<?xml version="1.0" encoding="utf-8"?>
<!-- Generator: Adobe Illustrator 24.1.2, SVG Export Plug-In . SVG Version: 6.00 Build 0)  -->
<svg version="1.1" id="Layer_1" xmlns="http://www.w3.org/2000/svg" xmlns:xlink="http://www.w3.org/1999/xlink" x="0px" y="0px"
	 viewBox="0 0 57.9 59" style="enable-background:new 0 0 57.9 59;" xml:space="preserve">
<style type="text/css">
	.st0{fill:url(#SVGID_1_);}
	.st1{fill:#FFFFFF;}
</style>
<linearGradient id="SVGID_1_" gradientUnits="userSpaceOnUse" x1="0.8579" y1="29.298" x2="56.6067" y2="29.298">
	<stop  offset="0" style="stop-color:#E0081B"/>
	<stop  offset="0.9995" style="stop-color:#92172D"/>
</linearGradient>
<circle class="st0" cx="28.7" cy="29.3" r="27.9"/>
<g>
	<path class="st1" d="M23.1,24.7c0-1.4,0-2.7,0-4c0.1-3.1,2.7-5.5,5.8-5.4c2.9,0.1,5.3,2.5,5.4,5.4c0.1,2.8,0.1,5.6,0,8.3
		c-0.1,2.2-1.7,4.3-4.2,4.9c-3.4,0.9-6.9-1.6-7-5.2C23.1,27.4,23.1,26,23.1,24.7z M33,24.7C33,24.7,33,24.7,33,24.7
		c0-1.3,0-2.5,0-3.8c0-1.1-0.4-2.1-1.1-2.9c-1.2-1.3-3-1.8-4.7-1.1c-1.7,0.6-2.7,2.2-2.7,4.1c0,2.5,0,5,0,7.4c0,0.8,0.2,1.6,0.6,2.2
		c0.9,1.6,2.9,2.4,4.7,2c1.8-0.4,3.2-2,3.3-3.8C33,27.5,33,26.1,33,24.7z"/>
	<path class="st1" d="M28.1,40.7c0-0.6,0-1.2,0-1.8c0-0.2-0.1-0.3-0.3-0.4c-3.2-0.4-5.7-1.9-7.4-4.6c-1-1.5-1.5-3.3-1.5-5.1
		c0-0.5,0.2-0.8,0.6-0.8c0.4,0,0.7,0.2,0.7,0.8c0.1,1.9,0.6,3.6,1.8,5.1c1.6,2,3.6,3.1,6.1,3.3c4.3,0.3,8-2.4,9-6.5
		c0.2-0.6,0.2-1.3,0.2-1.9c0-0.5,0.3-0.8,0.7-0.8c0.4,0,0.7,0.3,0.6,0.8c0,2.6-1,4.9-2.8,6.8c-1.7,1.7-3.7,2.7-6.1,2.9
		c-0.3,0-0.4,0.2-0.4,0.4c0,1.2,0,2.4,0,3.6c0,0.4-0.1,0.6-0.5,0.8c-0.5,0.1-0.9-0.2-0.9-0.7C28.1,42,28.1,41.3,28.1,40.7
		C28.1,40.7,28.1,40.7,28.1,40.7z"/>
</g>
</svg>
