<?xml version="1.0" encoding="utf-8"?>
<!-- Generator: Adobe Illustrator 24.1.0, SVG Export Plug-In . SVG Version: 6.00 Build 0)  -->
<svg version="1.1" id="Layer_1" xmlns="http://www.w3.org/2000/svg" xmlns:xlink="http://www.w3.org/1999/xlink" x="0px" y="0px"
	 viewBox="0 0 36.35 32.94" style="enable-background:new 0 0 36.35 32.94;" xml:space="preserve">
<style type="text/css">
	.st0{fill:url(#SVGID_1_);}
</style>
<g>
	<linearGradient id="SVGID_1_" gradientUnits="userSpaceOnUse" x1="6.9638" y1="16.4708" x2="28.4157" y2="16.4708">
		<stop  offset="0" style="stop-color:#E0081B"/>
		<stop  offset="0.9995" style="stop-color:#92172D"/>
	</linearGradient>
	<path class="st0" d="M17.64,28.36c-0.45-0.19-0.53-0.3-0.53-0.8c0-0.83,0-1.66,0-2.48c0-0.08,0.03-0.17-0.06-0.28
		c-0.14,0.15-0.26,0.29-0.4,0.43c-0.51,0.52-1.03,1.03-1.54,1.54c-0.16,0.16-0.34,0.24-0.56,0.22c-0.24-0.02-0.41-0.14-0.5-0.36
		c-0.09-0.22-0.06-0.43,0.1-0.61c0.14-0.15,0.29-0.3,0.44-0.45c0.78-0.78,1.57-1.56,2.36-2.34c0.09-0.09,0.13-0.17,0.13-0.3
		c0-1.74,0-3.48,0-5.22c0-0.05,0-0.09-0.01-0.14c-0.09-0.01-0.15,0.05-0.21,0.09c-1.47,0.84-2.93,1.69-4.4,2.53
		c-0.15,0.09-0.22,0.19-0.26,0.35c-0.32,1.22-0.65,2.44-0.98,3.66c-0.14,0.52-0.64,0.7-1.01,0.35c-0.18-0.17-0.23-0.37-0.16-0.61
		c0.23-0.85,0.46-1.7,0.69-2.54c0.01-0.05,0.02-0.1,0.03-0.16c-0.11-0.02-0.17,0.05-0.24,0.09c-0.75,0.43-1.5,0.86-2.25,1.29
		c-0.36,0.2-0.72,0.13-0.9-0.19c-0.18-0.31-0.07-0.65,0.29-0.85c0.82-0.47,1.65-0.94,2.52-1.44c-0.33-0.09-0.62-0.17-0.91-0.25
		c-0.62-0.17-1.25-0.33-1.87-0.51c-0.39-0.11-0.56-0.5-0.4-0.84c0.13-0.27,0.4-0.38,0.75-0.28c1.22,0.32,2.45,0.64,3.67,0.97
		c0.16,0.04,0.29,0.03,0.43-0.05c1.46-0.85,2.93-1.69,4.4-2.54c0.22-0.13,0.22-0.13,0-0.26c-1.47-0.85-2.95-1.7-4.41-2.55
		c-0.12-0.07-0.24-0.08-0.37-0.05c-1.24,0.34-2.49,0.67-3.73,1.01c-0.35,0.09-0.66-0.07-0.76-0.41c-0.1-0.32,0.06-0.65,0.41-0.75
		c0.82-0.24,1.65-0.46,2.47-0.7c0.09-0.02,0.18-0.03,0.26-0.09c-0.05-0.09-0.14-0.11-0.21-0.15c-0.77-0.44-1.54-0.88-2.31-1.33
		c-0.28-0.16-0.38-0.44-0.29-0.71c0.09-0.27,0.35-0.44,0.63-0.41c0.12,0.01,0.22,0.07,0.32,0.13c0.75,0.43,1.5,0.86,2.25,1.29
		c0.07,0.04,0.15,0.08,0.26,0.14c-0.14-0.52-0.27-1-0.4-1.48c-0.11-0.4-0.22-0.8-0.33-1.21c-0.11-0.4,0.06-0.74,0.41-0.83
		c0.34-0.1,0.66,0.12,0.77,0.52c0.33,1.22,0.66,2.44,0.98,3.66c0.03,0.12,0.07,0.22,0.2,0.29c1.52,0.87,3.03,1.74,4.54,2.61
		c0.03,0.02,0.07,0.03,0.11,0.05c0.05-0.07,0.03-0.14,0.03-0.2c0-1.72,0-3.44,0-5.15c0-0.15-0.05-0.24-0.15-0.34
		c-0.91-0.9-1.81-1.8-2.71-2.71c-0.26-0.26-0.29-0.57-0.09-0.83c0.24-0.3,0.61-0.32,0.91-0.03c0.57,0.56,1.14,1.14,1.71,1.71
		c0.09,0.09,0.17,0.19,0.26,0.3c0.09-0.1,0.06-0.18,0.06-0.25c0-0.87,0-1.75,0-2.62c0-0.41,0.23-0.67,0.6-0.67
		c0.37,0,0.6,0.26,0.6,0.67c0,0.88,0,1.76,0,2.65c0,0.07,0,0.15,0,0.22c0.02,0.01,0.04,0.03,0.06,0.04
		c0.08-0.09,0.15-0.19,0.24-0.27c0.57-0.58,1.15-1.15,1.72-1.72c0.29-0.29,0.61-0.3,0.88-0.04c0.25,0.24,0.23,0.6-0.05,0.88
		c-0.9,0.9-1.8,1.81-2.71,2.71c-0.08,0.08-0.15,0.16-0.15,0.29c0.01,1.75,0,3.5,0,5.25c0,0.04,0.01,0.09,0.01,0.13
		c0.09,0.01,0.14-0.04,0.2-0.08c1.47-0.86,2.95-1.72,4.42-2.58c0.12-0.07,0.17-0.15,0.21-0.28c0.32-1.21,0.65-2.41,0.97-3.62
		c0.02-0.07,0.04-0.15,0.07-0.22C24.3,8.3,24.6,8.15,24.9,8.25c0.34,0.11,0.51,0.4,0.42,0.74c-0.23,0.86-0.46,1.71-0.69,2.57
		c-0.01,0.05-0.02,0.1-0.03,0.16c0.11,0.01,0.17-0.06,0.24-0.09c0.77-0.44,1.54-0.88,2.31-1.32c0.26-0.15,0.51-0.12,0.71,0.05
		c0.19,0.16,0.26,0.42,0.18,0.65c-0.06,0.17-0.19,0.28-0.34,0.36c-0.75,0.43-1.5,0.86-2.25,1.29c-0.07,0.04-0.14,0.09-0.26,0.16
		c0.47,0.13,0.9,0.25,1.33,0.36c0.47,0.13,0.94,0.25,1.41,0.38c0.41,0.11,0.59,0.45,0.46,0.82c-0.12,0.32-0.4,0.45-0.75,0.36
		c-1.23-0.32-2.46-0.65-3.69-0.97c-0.16-0.04-0.29-0.03-0.43,0.06c-1.46,0.85-2.93,1.69-4.4,2.54c-0.21,0.12-0.21,0.12,0,0.25
		c1.48,0.86,2.95,1.71,4.43,2.58c0.12,0.07,0.23,0.09,0.37,0.05c1.23-0.34,2.47-0.67,3.71-1c0.39-0.11,0.71,0.05,0.8,0.38
		c0.08,0.32-0.14,0.64-0.5,0.74c-0.88,0.24-1.77,0.48-2.66,0.72c0.03,0.11,0.12,0.12,0.19,0.16c0.77,0.44,1.54,0.88,2.31,1.33
		c0.38,0.22,0.45,0.61,0.18,0.94c-0.19,0.23-0.49,0.27-0.8,0.1c-0.75-0.42-1.49-0.85-2.23-1.28c-0.09-0.05-0.17-0.1-0.31-0.17
		c0.13,0.5,0.26,0.95,0.38,1.4c0.12,0.44,0.24,0.88,0.35,1.32c0.1,0.37-0.08,0.72-0.42,0.81c-0.32,0.09-0.63-0.12-0.73-0.5
		c-0.33-1.22-0.66-2.44-0.98-3.66c-0.04-0.17-0.13-0.27-0.28-0.36c-1.45-0.83-2.89-1.66-4.34-2.5c-0.07-0.04-0.15-0.08-0.22-0.12
		c-0.07,0.06-0.04,0.14-0.04,0.2c0,1.72,0,3.44-0.01,5.15c0,0.15,0.05,0.24,0.15,0.34c0.91,0.9,1.81,1.8,2.71,2.71
		c0.31,0.31,0.33,0.64,0.05,0.91c-0.25,0.25-0.6,0.22-0.9-0.08c-0.64-0.65-1.29-1.29-1.93-1.94c-0.09,0.08-0.05,0.17-0.05,0.25
		c0,0.81-0.02,1.63,0,2.44c0.01,0.4-0.1,0.69-0.49,0.84C17.77,28.36,17.71,28.36,17.64,28.36z"/>
</g>
</svg>
