<?xml version="1.0" encoding="utf-8"?>
<!-- Generator: Adobe Illustrator 24.1.0, SVG Export Plug-In . SVG Version: 6.00 Build 0)  -->
<svg version="1.1" id="Layer_1" xmlns="http://www.w3.org/2000/svg" xmlns:xlink="http://www.w3.org/1999/xlink" x="0px" y="0px"
	 viewBox="0 0 36.35 32.94" style="enable-background:new 0 0 36.35 32.94;" xml:space="preserve">
<style type="text/css">
	.st0{fill:url(#SVGID_1_);}
	.st1{fill:url(#SVGID_2_);}
	.st2{fill:url(#SVGID_3_);}
	.st3{fill:url(#SVGID_4_);}
</style>
<g>
	<linearGradient id="SVGID_1_" gradientUnits="userSpaceOnUse" x1="5.4148" y1="15.591" x2="29.3709" y2="15.591">
		<stop  offset="0" style="stop-color:#E0081B"/>
		<stop  offset="0.9995" style="stop-color:#92172D"/>
	</linearGradient>
	<path class="st0" d="M17.38,26.13c-3.14,0-6.28,0-9.42,0c-1.54,0-2.54-0.96-2.54-2.5c-0.01-3.06,0-6.12,0-9.18
		c0-1.48-0.01-2.97,0-4.45c0.01-1.19,0.65-2.08,1.66-2.38c0.26-0.07,0.52-0.1,0.79-0.1c1.41,0,2.83,0,4.24,0
		c0.24,0,0.35-0.05,0.42-0.31c0.36-1.38,1.38-2.15,2.81-2.16c1.37,0,2.74-0.01,4.1,0c1.43,0.01,2.45,0.8,2.8,2.18
		c0.07,0.26,0.18,0.3,0.4,0.3c1.4-0.01,2.8,0,4.21,0c1.51,0,2.5,0.98,2.5,2.5c0,4.55,0,9.11,0,13.66c0,1.44-1.02,2.44-2.46,2.44
		C23.73,26.13,20.56,26.13,17.38,26.13z M17.4,24.91c3.15,0,6.31,0,9.46,0c0.93,0,1.34-0.4,1.34-1.33c0.01-4.49,0.01-8.97,0-13.46
		c0-0.94-0.46-1.38-1.39-1.38c-2.02,0-4.03,0-6.05,0c-4.31,0-8.62,0-12.94,0C7.52,8.74,7.24,8.8,7.01,9
		C6.64,9.3,6.59,9.72,6.59,10.16c0,4.45,0.01,8.9-0.01,13.35c0,0.77,0.37,1.42,1.39,1.41C11.11,24.89,14.26,24.91,17.4,24.91z
		 M17.4,7.52c1.12,0,2.25,0,3.37,0c0.34,0,0.36-0.04,0.21-0.35c-0.27-0.55-0.72-0.9-1.34-0.9c-1.49-0.02-2.99-0.02-4.48,0
		c-0.63,0.01-1.08,0.36-1.37,0.92c-0.12,0.23-0.12,0.35,0.2,0.35C15.13,7.51,16.27,7.52,17.4,7.52z"/>
	<linearGradient id="SVGID_2_" gradientUnits="userSpaceOnUse" x1="10.2097" y1="16.8267" x2="11.3829" y2="16.8267">
		<stop  offset="0" style="stop-color:#E0081B"/>
		<stop  offset="0.9995" style="stop-color:#92172D"/>
	</linearGradient>
	<path class="st1" d="M11.38,16.82c0,1.83,0,3.66,0,5.49c0,0.44-0.2,0.69-0.55,0.7c-0.36,0.01-0.62-0.25-0.62-0.68
		c0-3.67,0-7.35,0-11.02c0-0.41,0.25-0.68,0.6-0.67c0.35,0.01,0.57,0.26,0.57,0.69C11.38,13.16,11.38,14.99,11.38,16.82
		C11.38,16.82,11.38,16.82,11.38,16.82z"/>
	<linearGradient id="SVGID_3_" gradientUnits="userSpaceOnUse" x1="23.4061" y1="16.8286" x2="24.576" y2="16.8286">
		<stop  offset="0" style="stop-color:#E0081B"/>
		<stop  offset="0.9995" style="stop-color:#92172D"/>
	</linearGradient>
	<path class="st2" d="M23.41,16.8c0-1.77,0-3.55,0-5.32c0-0.07,0-0.14,0-0.21c0.01-0.38,0.23-0.62,0.55-0.63
		c0.34-0.01,0.6,0.23,0.61,0.62c0.01,0.66,0,1.32,0,1.98c0,3,0,6,0,9c0,0.16,0,0.33-0.09,0.47c-0.15,0.25-0.38,0.35-0.65,0.28
		c-0.3-0.08-0.42-0.3-0.42-0.6c0-1.22,0-2.43,0-3.65C23.41,18.1,23.41,17.45,23.41,16.8C23.41,16.8,23.41,16.8,23.41,16.8z"/>
	<linearGradient id="SVGID_4_" gradientUnits="userSpaceOnUse" x1="2.4261" y1="16.4708" x2="32.9534" y2="16.4708">
		<stop  offset="0" style="stop-color:#E0081B"/>
		<stop  offset="0.9995" style="stop-color:#92172D"/>
	</linearGradient>
	<path class="st3" d="M31.78,3.09c0,8.37,0,16.74,0,25.11c0,0.45,0,0.46-0.45,0.46c-8.66,0-17.32,0-25.98,0
		c-0.78,0-1.55,0-2.33,0.01c-0.35,0-0.6,0.27-0.6,0.59c0,0.32,0.23,0.56,0.56,0.59c0.14,0.01,0.28,0.01,0.42,0.01
		c4.75,0,9.5,0,14.26,0c0,0,0,0,0,0.01c2.86,0,5.73,0,8.59,0c1.99,0,3.99,0,5.98-0.01c0.52,0,0.71-0.19,0.72-0.72
		c0.01-0.5,0-1,0-1.5c0-5.23,0-10.45,0-15.68c0-2.96,0-5.91-0.01-8.87H31.78z"/>
</g>
</svg>
