<?xml version="1.0" encoding="utf-8"?>
<!-- Generator: Adobe Illustrator 24.1.0, SVG Export Plug-In . SVG Version: 6.00 Build 0)  -->
<svg version="1.1" id="Layer_1" xmlns="http://www.w3.org/2000/svg" xmlns:xlink="http://www.w3.org/1999/xlink" x="0px" y="0px"
	 viewBox="0 0 69.67 37.28" style="enable-background:new 0 0 69.67 37.28;" xml:space="preserve">
<style type="text/css">
	.st0{fill:url(#SVGID_1_);}
	.st1{fill:url(#SVGID_2_);}
	.st2{fill:url(#SVGID_3_);}
</style>
<g>
	<linearGradient id="SVGID_1_" gradientUnits="userSpaceOnUse" x1="4.0956" y1="18.9578" x2="65.5715" y2="18.9578">
		<stop  offset="0" style="stop-color:#E00819"/>
		<stop  offset="0.9995" style="stop-color:#92172C"/>
	</linearGradient>
	<path class="st0" d="M59.89,2.09c3.36,0,5.66,2.27,5.67,5.63c0.02,7.2,0.01,14.41,0,21.61c0,1.75-0.92,2.64-2.67,2.65
		c-1.31,0.01-2.63,0.02-3.94-0.01c-0.39-0.01-0.56,0.1-0.68,0.5c-0.62,2.07-2.37,3.36-4.48,3.36c-2.1,0-3.88-1.3-4.49-3.36
		c-0.12-0.4-0.29-0.5-0.68-0.5c-9.2,0.01-18.39,0.01-27.59,0c-0.36,0-0.53,0.08-0.65,0.46c-0.62,2.08-2.37,3.39-4.46,3.4
		c-2.15,0.01-3.9-1.27-4.53-3.38c-0.13-0.42-0.32-0.48-0.69-0.48C9.43,32,8.16,31.99,6.88,31.99c-1.88,0-2.78-0.88-2.78-2.74
		c-0.01-5.62,0-11.25,0-16.87c0-0.84,0.06-1.68,0.27-2.5C5.55,5.14,9.48,2.1,14.44,2.09c7.51-0.01,15.03,0,22.54,0
		C44.62,2.09,52.25,2.09,59.89,2.09z M21.22,21.04c-0.55,0-0.68,0.15-0.68,0.69c0.03,2.71,0.03,5.42,0,8.13
		c-0.01,0.55,0.16,0.69,0.7,0.68c9.11-0.02,18.23-0.01,27.34,0c0.39,0,0.57-0.1,0.69-0.5c0.62-2.08,2.4-3.42,4.51-3.42
		c2.12,0,3.93,1.33,4.52,3.4c0.12,0.41,0.29,0.52,0.67,0.51c1.35-0.02,2.71,0,4.06-0.01c0.77-0.01,1.04-0.28,1.05-1.04
		c0.01-1.35-0.03-2.71,0.02-4.06c0.02-0.63-0.21-0.73-0.77-0.72c-6.94,0.02-13.88,0.01-20.81,0.01c-5.81,0-11.62,0-17.43,0
		c-0.08,0-0.16,0-0.25,0c-0.5-0.01-0.91-0.14-0.96-0.72c-0.04-0.48,0.31-0.75,0.98-0.75c3.63-0.01,7.27,0,10.9,0
		c9.17,0,18.35,0,27.52,0c0.8,0,0.8,0,0.8-0.8c0-1.38,0-1.39-1.36-1.39c-6.79,0-13.59,0-20.38,0C35.3,21.05,28.26,21.06,21.22,21.04
		z M19.09,4.09c0-0.25,0.09-0.55-0.36-0.54c-1.99,0.06-3.98-0.14-5.96,0.13c-3.82,0.51-7.04,4-7.15,7.86
		c-0.08,2.89-0.03,5.79-0.05,8.68c0,0.37,0.12,0.49,0.5,0.49c1.99-0.01,3.98-0.01,5.97,0c0.34,0,0.51-0.11,0.66-0.41
		c0.51-0.98,1.12-1.91,1.88-2.73c1.07-1.15,2.4-1.68,3.94-1.73c0.45-0.01,0.58-0.16,0.57-0.62c-0.03-1.85-0.01-3.69-0.01-5.54
		C19.09,7.82,19.1,5.96,19.09,4.09z M30.37,4.13c0.01-0.45-0.12-0.59-0.59-0.59c-2.87,0.02-5.75,0.02-8.62,0
		c-0.49,0-0.62,0.15-0.61,0.63c0.02,3.67,0.02,7.35,0,11.02c0,0.48,0.12,0.63,0.62,0.63c2.87-0.02,5.75-0.02,8.62,0
		c0.48,0,0.59-0.16,0.58-0.6c-0.02-1.83-0.01-3.65-0.01-5.48C30.36,7.86,30.35,6,30.37,4.13z M43.06,15.25
		c0,0.42,0.1,0.56,0.54,0.56c2.89-0.02,5.79-0.02,8.68,0c0.48,0,0.57-0.17,0.57-0.6c-0.02-3.69-0.02-7.39,0-11.08
		c0-0.45-0.1-0.59-0.57-0.59c-2.87,0.02-5.75,0.02-8.62,0c-0.51,0-0.6,0.17-0.6,0.63c0.02,1.85,0.01,3.69,0.01,5.54
		C43.07,11.56,43.08,13.4,43.06,15.25z M41.62,4.07c0-0.39-0.09-0.53-0.51-0.53c-2.94,0.02-5.87,0.01-8.81,0
		c-0.39,0-0.48,0.13-0.48,0.5c0.01,3.76,0.01,7.51,0,11.27c0,0.43,0.17,0.5,0.54,0.5c2.91-0.01,5.83-0.01,8.74,0
		c0.42,0,0.52-0.14,0.51-0.53c-0.02-1.89-0.01-3.78-0.01-5.67C41.61,7.77,41.6,5.92,41.62,4.07z M54.29,15.25
		c0,0.42,0.1,0.57,0.54,0.57c2.91-0.02,5.83-0.02,8.74,0c0.41,0,0.52-0.13,0.52-0.53c-0.02-2.61,0.02-5.21-0.02-7.82
		c-0.03-2.29-1.67-3.89-3.95-3.91c-1.76-0.02-3.53,0.01-5.29-0.01c-0.44-0.01-0.55,0.15-0.54,0.56c0.02,1.87,0.01,3.73,0.01,5.6
		C54.3,11.55,54.31,13.4,54.29,15.25z M19.09,27.22c0-3.12-0.01-6.24,0.01-9.36c0-0.46-0.11-0.57-0.59-0.55
		c-1.46,0.05-2.53,0.73-3.38,1.85c-0.51,0.67-0.97,1.38-1.3,2.16c-0.29,0.67-0.73,0.88-1.44,0.86c-2.05-0.04-4.11,0-6.16-0.03
		c-0.49-0.01-0.68,0.09-0.67,0.63c0.03,2.22,0.01,4.43,0.01,6.65c0,0.81,0.27,1.09,1.05,1.1c1.38,0.01,2.75,0,4.13,0
		c0.29,0,0.47-0.05,0.58-0.39c1.06-3.36,4.51-4.54,7.42-2.55c0.07,0.05,0.14,0.08,0.24,0.14C19.14,27.54,19.09,27.37,19.09,27.22z
		 M21.35,17.27c-0.79,0-0.79,0-0.79,0.81c0,1.52,0,1.52,1.55,1.52c13.71,0,27.42,0,41.13,0c0.93,0,0.85,0.13,0.85-0.86
		c0.01-1.47,0-1.47-1.49-1.47c-6.77,0-13.55,0-20.32,0C35.3,17.27,28.33,17.27,21.35,17.27z M53.76,34.39
		c1.75,0,3.23-1.37,3.25-3.03c0.03-1.77-1.45-3.26-3.23-3.25s-3.19,1.41-3.2,3.2C50.58,33,52.01,34.38,53.76,34.39z M19.08,31.33
		c0-1.82-1.44-3.25-3.23-3.22c-1.78,0.03-3.21,1.47-3.19,3.23c0.01,1.65,1.5,3.05,3.23,3.05C17.64,34.39,19.09,33.01,19.08,31.33z"
		/>
	<linearGradient id="SVGID_2_" gradientUnits="userSpaceOnUse" x1="52.7094" y1="31.2553" x2="54.8813" y2="31.2553">
		<stop  offset="0" style="stop-color:#E00819"/>
		<stop  offset="0.9995" style="stop-color:#92172C"/>
	</linearGradient>
	<path class="st1" d="M53.78,30.17c0.58,0,1.07,0.46,1.1,1.03c0.03,0.57-0.48,1.12-1.06,1.14s-1.1-0.48-1.11-1.08
		C52.69,30.65,53.17,30.17,53.78,30.17z M53.44,31.24c0,0.21,0.13,0.33,0.35,0.33c0.2,0,0.31-0.12,0.32-0.3
		c0.01-0.2-0.1-0.35-0.32-0.37C53.58,30.91,53.45,31.04,53.44,31.24z"/>
	<linearGradient id="SVGID_3_" gradientUnits="userSpaceOnUse" x1="14.78" y1="31.255" x2="16.9601" y2="31.255">
		<stop  offset="0" style="stop-color:#E00819"/>
		<stop  offset="0.9995" style="stop-color:#92172C"/>
	</linearGradient>
	<path class="st2" d="M15.9,30.17c0.59,0.01,1.05,0.46,1.06,1.05c0.01,0.6-0.48,1.12-1.07,1.12c-0.57,0.01-1.11-0.53-1.11-1.1
		C14.79,30.65,15.3,30.16,15.9,30.17z M15.55,31.28c0.01,0.19,0.14,0.29,0.33,0.29c0.22,0,0.35-0.13,0.34-0.34
		c-0.01-0.21-0.15-0.32-0.34-0.33C15.64,30.94,15.53,31.08,15.55,31.28z"/>
</g>
</svg>
