<?xml version="1.0" encoding="utf-8"?>
<!-- Generator: Adobe Illustrator 24.1.0, SVG Export Plug-In . SVG Version: 6.00 Build 0)  -->
<svg version="1.1" id="Layer_1" xmlns="http://www.w3.org/2000/svg" xmlns:xlink="http://www.w3.org/1999/xlink" x="0px" y="0px"
	 viewBox="0 0 69.67 37.28" style="enable-background:new 0 0 69.67 37.28;" xml:space="preserve">
<style type="text/css">
	.st0{fill:#202020;}
</style>
<g>
	<path class="st0" d="M1.11,21.28c0.28-0.57,0.54-1.17,1.17-1.44c0.73-0.32,0.99-0.86,0.87-1.62c-0.02-0.11,0-0.22,0-0.33
		c-0.02-1.04,0.44-1.74,1.42-2.13c3.42-1.38,7.01-1.96,10.65-2.21c2.98-0.21,5.89-0.62,8.58-2.01c1.35-0.69,2.73-1.31,4.05-2.05
		c3.23-1.78,6.65-2.65,10.35-2.52c1.93,0.07,3.86-0.01,5.8,0.01C45.63,7,47.27,7.12,48.9,7.39c3.39,0.57,6.53,1.82,9.52,3.5
		c1.96,1.1,4.09,1.82,6.34,1.73c2.04-0.08,2.59,0.63,2.44,2.57c-0.06,0.74,0.11,1.39,0.46,2.07c1.04,2,1.18,4.11,0.44,6.25
		c-0.83,2.39-2.31,3.43-4.85,3.44c-1.1,0-2.2,0.03-3.29-0.01c-0.54-0.02-0.79,0.16-1.03,0.65c-1.11,2.23-2.95,3.41-5.43,3.39
		c-2.45-0.02-4.26-1.23-5.33-3.44c-0.22-0.45-0.46-0.58-0.95-0.58c-9.44,0.01-18.88,0.01-28.32,0c-0.4,0-0.62,0.1-0.8,0.49
		c-1.06,2.25-2.87,3.5-5.34,3.53c-2.56,0.03-4.43-1.21-5.54-3.54c-0.17-0.35-0.36-0.48-0.74-0.47c-1.05,0.03-2.11-0.03-3.16,0.02
		c-0.96,0.05-1.71-0.23-2.2-1.1C1.11,24.35,1.11,22.82,1.11,21.28z M61.47,17.41c-0.5-0.01-0.89-0.23-0.88-0.76
		c0.01-0.52,0.38-0.75,0.9-0.74c1.21,0.01,2.42-0.02,3.62,0.01c0.45,0.01,0.6-0.1,0.6-0.58c-0.02-1.16,0.01-1.15-1.16-1.19
		c-2.39-0.08-4.61-0.77-6.72-1.87c-1.07-0.56-2.11-1.16-3.22-1.65c-0.34-0.15-0.51-0.15-0.72,0.21c-2.2,3.58-5.41,5.53-9.62,5.58
		c-5.29,0.07-10.58,0.02-15.87-0.02c-2.14-0.02-4.02-0.85-5.66-2.2c-0.32-0.26-0.58-0.36-1-0.22c-2.24,0.77-4.6,0.88-6.93,1.08
		c-3.22,0.28-6.39,0.82-9.43,1.97c-0.54,0.2-0.81,0.51-0.71,1.07c0.24,1.41-0.18,2.45-1.57,3.02c-0.34,0.14-0.44,0.44-0.44,0.81
		c0.01,1.01,0,2.02-0.03,3.03c-0.01,0.39,0.1,0.55,0.52,0.54c0.99-0.02,1.98-0.03,2.96,0c0.49,0.02,0.56-0.18,0.57-0.61
		c0.07-2.7,1.88-4.97,4.49-5.67c2.51-0.67,5.22,0.44,6.59,2.71c0.54,0.9,0.88,1.88,0.84,2.93c-0.02,0.56,0.2,0.64,0.68,0.64
		c7.25-0.01,14.49-0.01,21.74-0.01c1.93,0,3.86-0.02,5.8,0.01c0.57,0.01,0.78-0.1,0.81-0.73c0.13-3.08,2.49-5.48,5.5-5.7
		c2.98-0.22,5.65,1.81,6.28,4.78c0.08,0.38,0.11,0.78,0.11,1.18c0,0.35,0.14,0.46,0.47,0.45c1.23-0.01,2.46,0.02,3.69-0.01
		c1.38-0.03,2.31-0.75,2.83-2c0.79-1.89,0.71-3.76-0.19-5.6c-0.18-0.37-0.42-0.49-0.82-0.47c-0.64,0.03-1.27,0.01-1.91,0.01
		c0,0,0,0,0,0C62.88,17.41,62.17,17.42,61.47,17.41z M28.42,14.92c3.53,0.06,7.07,0.03,10.6,0.05c0.37,0,0.44-0.17,0.43-0.48
		c-0.01-1.84-0.01-3.69,0-5.53c0-0.38-0.14-0.47-0.5-0.49c-3.49-0.16-6.81,0.37-9.91,2.09c-1.66,0.93-3.4,1.71-5.2,2.61
		C25.26,14.29,26.77,14.89,28.42,14.92z M58.04,25.04c0-2.46-2.02-4.47-4.49-4.48c-2.45,0-4.47,1.97-4.49,4.4
		c-0.02,2.52,1.95,4.52,4.48,4.53C56.02,29.51,58.04,27.51,58.04,25.04z M12.72,29.5c2.45-0.03,4.43-2.04,4.4-4.47
		c-0.03-2.58-2.02-4.5-4.6-4.46c-2.43,0.04-4.36,2.06-4.34,4.53C8.21,27.57,10.23,29.53,12.72,29.5z M40.93,14.5
		c0,0.26,0.01,0.48,0.37,0.47c1.84-0.04,3.68,0.16,5.49-0.38c2.37-0.7,4.22-2.08,5.59-4.13c0.26-0.39,0.3-0.59-0.24-0.76
		C48.62,8.57,45,8.39,41.34,8.47c-0.39,0.01-0.41,0.21-0.41,0.5c0.01,0.92,0,1.84,0,2.76C40.94,12.66,40.94,13.58,40.93,14.5z"/>
	<path class="st0" d="M53.52,23.6c-0.75,0.02-1.43,0.73-1.41,1.47c0.02,0.78,0.69,1.41,1.47,1.39c0.79-0.01,1.41-0.66,1.39-1.45
		C54.95,24.23,54.28,23.58,53.52,23.6z"/>
	<path class="st0" d="M12.64,23.61c-0.75,0.01-1.41,0.69-1.41,1.44c0,0.8,0.67,1.45,1.48,1.42c0.78-0.03,1.4-0.69,1.38-1.45
		C14.06,24.25,13.38,23.59,12.64,23.61z"/>
</g>
</svg>
