<?xml version="1.0" encoding="utf-8"?>
<!-- Generator: Adobe Illustrator 24.1.0, SVG Export Plug-In . SVG Version: 6.00 Build 0)  -->
<svg version="1.1" id="Layer_1" xmlns="http://www.w3.org/2000/svg" xmlns:xlink="http://www.w3.org/1999/xlink" x="0px" y="0px"
	 viewBox="0 0 35.39 32.94" style="enable-background:new 0 0 35.39 32.94;" xml:space="preserve">
<style type="text/css">
	.st0{fill:url(#SVGID_1_);}
	.st1{fill:url(#SVGID_2_);}
	.st2{fill:url(#SVGID_3_);}
	.st3{fill:url(#SVGID_4_);}
</style>
<g>
	<linearGradient id="SVGID_1_" gradientUnits="userSpaceOnUse" x1="4.3873" y1="19.387" x2="18.9017" y2="19.387">
		<stop  offset="0" style="stop-color:#DF091A"/>
		<stop  offset="0.9995" style="stop-color:#91172D"/>
	</linearGradient>
	<path class="st0" d="M18.9,19.38c0,2.62,0,5.24,0,7.86c0,1.69-1.28,2.97-2.98,2.98c-2.86,0.01-5.71,0.01-8.57,0
		c-1.68,0-2.96-1.28-2.96-2.96c-0.01-5.28-0.01-10.55,0-15.83c0-1.52,1.31-2.87,2.84-2.88c2.94-0.02,5.88-0.02,8.82,0
		c1.56,0.01,2.85,1.34,2.85,2.89C18.9,14.1,18.9,16.74,18.9,19.38z M5.5,19.41c0,2.61,0,5.22,0,7.83c0,1.24,0.65,1.89,1.9,1.9
		c0.67,0,1.35,0,2.02,0c2.17,0,4.34,0.01,6.52,0c1.22-0.01,1.86-0.65,1.86-1.86c0-5.27,0-10.53,0-15.8c0-1.13-0.68-1.8-1.81-1.8
		c-2.88,0-5.76,0-8.64,0c-1.18,0-1.84,0.66-1.84,1.85C5.5,14.14,5.5,16.78,5.5,19.41z"/>
	<linearGradient id="SVGID_2_" gradientUnits="userSpaceOnUse" x1="14.5412" y1="14.2149" x2="31.0027" y2="14.2149">
		<stop  offset="0" style="stop-color:#DF091A"/>
		<stop  offset="0.9995" style="stop-color:#91172D"/>
	</linearGradient>
	<path class="st1" d="M21.26,14.36c0-2.58,0-5.17,0-7.75c0-1.6-1.13-2.76-2.75-2.8c-1.54-0.04-2.76,1.08-2.86,2.64
		c0,0.04,0,0.07,0,0.11c-0.02,0.4-0.24,0.64-0.57,0.62c-0.34-0.01-0.56-0.3-0.53-0.7c0.06-0.88,0.37-1.65,0.93-2.32
		c1.08-1.28,2.7-1.76,4.21-1.23c1.53,0.53,2.66,2,2.68,3.61c0.03,2.73,0.02,5.45,0.02,8.18c0,2.38-0.01,4.77,0,7.15
		c0.01,1.62,1.22,2.77,2.87,2.76c1.55-0.01,2.73-1.21,2.74-2.78c0.01-2.97,0-5.95,0.01-8.92c0-0.26-0.05-0.36-0.34-0.36
		C26.59,12.56,26,11.94,26,10.88c0-0.27,0-0.54,0-0.81c0.01-0.85,0.65-1.5,1.49-1.51c0.66-0.01,1.32-0.01,1.98,0
		c0.81,0.01,1.47,0.63,1.51,1.44c0.02,0.39,0.02,0.78,0,1.17c-0.05,0.79-0.7,1.4-1.5,1.39c-0.32-0.01-0.39,0.09-0.39,0.4
		c0.01,2.94,0.01,5.88,0.01,8.82c0,2.05-1.68,3.88-3.73,3.95c-1.67,0.06-2.88-0.77-3.67-2.21c-0.31-0.56-0.47-1.15-0.46-1.82
		C21.28,19.25,21.26,16.81,21.26,14.36z M28.5,11.45c0.34,0,0.68-0.01,1.03,0c0.24,0.01,0.35-0.1,0.35-0.33c0-0.38,0-0.75,0-1.13
		c0-0.21-0.09-0.33-0.32-0.33c-0.71,0-1.41,0-2.12,0c-0.21,0-0.33,0.09-0.33,0.32c0.01,0.39,0.01,0.78,0,1.17
		c0,0.23,0.11,0.31,0.33,0.31C27.8,11.45,28.15,11.45,28.5,11.45z"/>
	<linearGradient id="SVGID_3_" gradientUnits="userSpaceOnUse" x1="6.5887" y1="12.0051" x2="11.4073" y2="12.0051">
		<stop  offset="0" style="stop-color:#DF091A"/>
		<stop  offset="0.9995" style="stop-color:#91172D"/>
	</linearGradient>
	<path class="st2" d="M9.03,11.45c0.58,0,1.15,0,1.73,0c0.41,0,0.64,0.2,0.64,0.54c0.01,0.35-0.23,0.56-0.66,0.57
		c-1.17,0-2.33,0-3.5,0c-0.42,0-0.67-0.22-0.67-0.56c0-0.34,0.25-0.55,0.68-0.55C7.86,11.45,8.44,11.45,9.03,11.45
		C9.03,11.45,9.03,11.45,9.03,11.45z"/>
	<linearGradient id="SVGID_4_" gradientUnits="userSpaceOnUse" x1="10.8899" y1="26.6052" x2="12.4004" y2="26.6052">
		<stop  offset="0" style="stop-color:#DF091A"/>
		<stop  offset="0.9995" style="stop-color:#91172D"/>
	</linearGradient>
	<path class="st3" d="M12.4,26.6c0,0.43-0.32,0.76-0.75,0.77c-0.43,0-0.76-0.32-0.76-0.75c0-0.42,0.33-0.77,0.75-0.78
		C12.06,25.84,12.4,26.18,12.4,26.6z"/>
</g>
</svg>
