<?xml version="1.0" encoding="utf-8"?>
<!-- Generator: Adobe Illustrator 24.1.2, SVG Export Plug-In . SVG Version: 6.00 Build 0)  -->
<svg version="1.1" id="Layer_1" xmlns="http://www.w3.org/2000/svg" xmlns:xlink="http://www.w3.org/1999/xlink" x="0px" y="0px"
	 viewBox="0 0 66.4 57.4" style="enable-background:new 0 0 66.4 57.4;" xml:space="preserve">
<style type="text/css">
	.st0{fill:url(#SVGID_1_);}
	.st1{fill:url(#SVGID_2_);}
	.st2{fill:url(#SVGID_3_);}
	.st3{fill:url(#SVGID_4_);}
	.st4{fill:url(#SVGID_5_);}
</style>
<g>
	<linearGradient id="SVGID_1_" gradientUnits="userSpaceOnUse" x1="8.0417" y1="28.2457" x2="58.7756" y2="28.2457">
		<stop  offset="0" style="stop-color:#E0081D"/>
		<stop  offset="0.9995" style="stop-color:#921730"/>
	</linearGradient>
	<path class="st0" d="M45.3,54.7c-2.1,0-3.7-0.8-4.9-2.3c-0.2-0.3-0.4-0.4-0.8-0.2c-4.1,1.7-8.2,1.7-12.2,0
		c-0.3-0.1-0.5-0.2-0.8,0.1c-1.8,2.5-4.8,3-7.5,1.9c-4-1.7-6.4-6.6-5-10.6c0.6-1.8,1.7-3.1,3.4-3.8c0.4-0.2,0.7-1,0.5-1.3
		c-0.2-0.2-0.3-0.1-0.4,0c-0.4,0.3-0.8,0.7-1.3,1c-2.9,2.2-7.1,0.9-8-2.7c-0.5-1.9-0.1-3.6,1.4-4.9c1.9-1.7,3.8-3.2,5.7-4.8
		c1.3-1.1,2.6-2.2,4-3.3c0.3-0.3,0.4-0.5,0.2-0.9c-1.7-3.1-2.1-6.4-1.1-9.9c0.1-0.4,0-0.6-0.4-0.8c-2-1.1-3.2-3.4-2.9-5.5
		c0.3-2.5,2-4.4,4.4-4.8c2.2-0.4,4.2,0.3,5.6,2.1c0.3,0.4,0.5,0.5,1,0.2C31,2,35.9,2,40.8,4.2c0.4,0.2,0.6,0.2,0.9-0.2
		c1.4-1.9,3.4-2.6,5.7-2.1c2.4,0.5,3.8,2.1,4.3,4.4c0.5,2.3-0.7,4.7-2.8,5.8c-0.5,0.2-0.5,0.5-0.4,0.9c0.9,3.3,0.6,6.6-1,9.6
		c-0.3,0.6-0.2,0.8,0.3,1.2c3.1,2.5,6.2,5.1,9.2,7.6c2.3,1.9,2.5,5.2,0.5,7.3c-1.8,1.9-4.7,2.2-6.8,0.6c-0.4-0.3-0.8-0.7-1.2-1
		c-0.2-0.2-0.4-0.1-0.4,0.2c-0.1,0.5-0.1,0.9,0.6,1.2c2.3,1,3.4,2.9,3.7,5.4c0.4,4.3-2.4,7.7-5.2,8.9C47.1,54.5,46.2,54.8,45.3,54.7
		z M47.4,37.8c0-2.7-0.7-5.1-2.4-7.6c-0.4-0.6-0.4-1.1,0-1.4c0.4-0.3,0.9-0.1,1.3,0.5c1.3,1.9,2.1,4,2.5,6.3c0,0.3,0.1,0.5,0.3,0.6
		c0.8,0.7,1.6,1.4,2.5,2c0.7,0.6,1.6,0.9,2.5,0.7c1.5-0.2,2.5-1,2.9-2.5c0.4-1.5-0.1-2.7-1.2-3.7c-3.1-2.6-6.2-5.1-9.3-7.7
		c-0.3-0.3-0.5-0.2-0.8,0.1c-3.6,4.1-8.2,5.9-13.7,5.5c-4.4-0.3-8.1-2.1-11-5.5c-0.3-0.4-0.5-0.3-0.9-0.1c-1,0.9-2.1,1.7-3.1,2.6
		c-2,1.7-4,3.3-6,5c-0.9,0.7-1.4,1.6-1.4,2.7c0,1.4,0.6,2.5,1.8,3.2c1.3,0.7,2.5,0.6,3.7-0.3c0.9-0.6,1.7-1.4,2.5-2
		c0.3-0.3,0.5-0.6,0.5-1c0.4-2.2,1.3-4.3,2.6-6.2c0.3-0.5,0.8-0.6,1.2-0.3c0.4,0.3,0.4,0.7,0.2,1.2c-0.1,0.2-0.3,0.4-0.4,0.6
		c-1.5,2.4-2.3,5-2.2,7.8c0,1,0,1,1,1c0.1,0,0.3,0,0.4,0.1c4.6,1,7.8,5.9,6.7,10.5c-0.1,0.5,0,0.7,0.4,0.8c1.4,0.6,2.8,0.9,4.3,1
		c2.3,0.2,4.5-0.2,6.6-1.1c0.3-0.1,0.4-0.3,0.3-0.6C39,49,39,47.9,39.2,46.7c0.4-3.4,3.5-6.7,6.9-7.3C47.4,39.2,47.4,39.2,47.4,37.8
		z M33.5,29.1c3.2-0.1,5.8-0.8,8.2-2.4c4.5-3,7.1-8.6,4.9-14.1c-0.3-0.9-0.2-1.2,0.8-1.5c1.7-0.6,2.8-2.3,2.7-4
		c-0.1-1.7-1.5-3.3-3.2-3.6c-1.7-0.3-3.5,0.5-4.3,2.1c-0.5,1-0.8,1.1-1.8,0.6c-4.9-2.6-9.8-2.6-14.8,0c-1.1,0.5-1.3,0.5-1.8-0.5
		c-0.8-1.6-2.6-2.5-4.3-2.1c-1.8,0.4-3.1,1.8-3.2,3.7c-0.1,1.6,1,3.3,2.6,3.9c1.2,0.4,1.2,0.6,0.8,1.8c-1,2.7-0.9,5.4,0.1,8
		C22.4,25.8,27.8,29.2,33.5,29.1z M21.7,53.2c2,0,3.5-1.1,4.2-3c1.2-3.5-1-7.8-4.6-9c-2.9-0.9-5.6,0.8-6,3.8
		c-0.4,2.8,0.7,5.1,2.8,6.9C19.2,52.7,20.4,53.2,21.7,53.2z M51.7,45.9c0-3.9-3.3-6-6.7-4.5c-2.9,1.3-4.7,4.7-4.2,7.8
		c0.5,2.9,3.2,4.6,6,3.6C49.6,52,51.6,49,51.7,45.9z"/>
	<linearGradient id="SVGID_2_" gradientUnits="userSpaceOnUse" x1="23.7778" y1="37.0309" x2="34.4176" y2="37.0309">
		<stop  offset="0" style="stop-color:#E0081D"/>
		<stop  offset="0.9995" style="stop-color:#921730"/>
	</linearGradient>
	<path class="st1" d="M34.4,35.3c0,1.1-0.3,1.8-0.9,2.4c-1.2,1.2-2.5,2.5-3.7,3.7c-0.5,0.5-0.9,0.5-1.4,0c-1.2-1.2-2.5-2.4-3.6-3.7
		c-1.2-1.2-1.3-3-0.2-4.3c1-1.2,2.8-1.5,4.2-0.5c0.3,0.2,0.5,0.1,0.8,0c1-0.7,2.1-0.7,3.2-0.2C33.9,33.3,34.4,34.2,34.4,35.3z
		 M26.9,33.9c-0.6,0.1-1.1,0.3-1.4,0.9c-0.3,0.6-0.2,1.2,0.3,1.7c1,1,2,2,3,3c0.2,0.3,0.4,0.2,0.6,0c1-1,1.9-1.9,2.9-2.9
		c0.7-0.8,0.7-1.7-0.1-2.3c-0.8-0.6-1.7-0.4-2.3,0.5c-0.5,0.9-1.1,0.9-1.6,0C28,34.3,27.5,34,26.9,33.9z"/>
	<linearGradient id="SVGID_3_" gradientUnits="userSpaceOnUse" x1="26.5094" y1="21.1687" x2="40.4146" y2="21.1687">
		<stop  offset="0" style="stop-color:#E0081D"/>
		<stop  offset="0.9995" style="stop-color:#921730"/>
	</linearGradient>
	<path class="st2" d="M26.5,21.2c0-2.1,1-3.8,2.7-5c2.7-1.9,6.4-1.8,9,0.3c3.1,2.5,3,7,0,9.5C35,28.4,30.4,28,27.9,25
		C27,23.9,26.5,22.6,26.5,21.2z M34.3,24.1c0,0.6-0.3,1.4,0.1,1.6c0.6,0.3,1.3-0.2,1.9-0.5c2.6-1.5,3.3-4.6,1.5-6.8
		c-1.5-1.9-4.4-2.5-6.7-1.5c-2,0.9-3.2,2.8-3,4.7c0.2,1.9,1.8,3.7,3.9,4.2c0.5,0.1,0.7,0,0.7-0.5c0-0.7,0-1.5,0-2.2
		c0-0.4-0.1-0.6-0.5-0.7c-0.5-0.1-1-0.3-1.4-0.5c-0.4-0.2-0.6-0.5-0.4-0.9c0.2-0.4,0.5-0.7,0.9-0.5c1.5,0.6,3,0.7,4.5,0
		c0.4-0.2,0.7,0,0.9,0.4c0.2,0.3,0.1,0.7-0.2,1c-0.2,0.2-0.5,0.3-0.8,0.4c-0.4,0.2-1.1,0.1-1.3,0.5C34.2,23,34.3,23.6,34.3,24.1z"/>
	<linearGradient id="SVGID_4_" gradientUnits="userSpaceOnUse" x1="24.6601" y1="13.3964" x2="27.8446" y2="13.3964">
		<stop  offset="0" style="stop-color:#E0081D"/>
		<stop  offset="0.9995" style="stop-color:#921730"/>
	</linearGradient>
	<path class="st3" d="M26.2,15c-0.9,0-1.6-0.7-1.6-1.6c0-0.9,0.8-1.6,1.6-1.6c0.9,0,1.6,0.7,1.6,1.6C27.8,14.3,27.1,15,26.2,15z"/>
	<linearGradient id="SVGID_5_" gradientUnits="userSpaceOnUse" x1="39.0494" y1="13.3949" x2="42.2321" y2="13.3949">
		<stop  offset="0" style="stop-color:#E0081D"/>
		<stop  offset="0.9995" style="stop-color:#921730"/>
	</linearGradient>
	<path class="st4" d="M40.7,15c-0.9,0-1.6-0.7-1.6-1.5c0-0.8,0.8-1.6,1.6-1.6c0.9,0,1.6,0.7,1.6,1.6C42.2,14.3,41.6,15,40.7,15z"/>
</g>
</svg>
