<?xml version="1.0" encoding="utf-8"?>
<!-- Generator: Adobe Illustrator 24.1.0, SVG Export Plug-In . SVG Version: 6.00 Build 0)  -->
<svg version="1.1" id="Layer_1" xmlns="http://www.w3.org/2000/svg" xmlns:xlink="http://www.w3.org/1999/xlink" x="0px" y="0px"
	 viewBox="0 0 20.74 18.87" style="enable-background:new 0 0 20.74 18.87;" xml:space="preserve">
<style type="text/css">
	.st0{fill:url(#clip_1_);}
</style>
<linearGradient id="clip_1_" gradientUnits="userSpaceOnUse" x1="0.485" y1="9.4209" x2="20.0609" y2="9.4209">
	<stop  offset="0" style="stop-color:#E0081C"/>
	<stop  offset="0.9995" style="stop-color:#92172F"/>
</linearGradient>
<path id="clip_2_" class="st0" d="M18.45,2.16c-2.15-2.15-5.64-2.15-7.79,0l-8.93,8.82c-1.67,1.67-1.67,4.39,0,6.06
	s4.39,1.67,6.05,0l8.93-8.82c1.19-1.19,1.19-3.13,0-4.33c-1.19-1.19-3.13-1.19-4.32,0L5.68,10.6c-0.24,0.24-0.24,0.63,0,0.87
	c0.24,0.24,0.63,0.24,0.86,0l6.71-6.71c0.72-0.72,1.88-0.72,2.59,0c0.72,0.72,0.72,1.88,0,2.6l-8.93,8.82
	c-1.19,1.19-3.13,1.19-4.32,0c-1.19-1.19-1.19-3.13,0-4.32l8.84-8.73c1.67-1.67,4.38-1.67,6.05,0c1.67,1.67,1.67,4.38,0,6.06
	l-6.62,6.62c-0.24,0.24-0.24,0.63,0,0.86c0.24,0.24,0.63,0.24,0.86,0l6.71-6.71C20.6,7.8,20.6,4.31,18.45,2.16z"/>
</svg>
