<?xml version="1.0" encoding="utf-8"?>
<!-- Generator: Adobe Illustrator 24.1.0, SVG Export Plug-In . SVG Version: 6.00 Build 0)  -->
<svg version="1.1" id="Layer_1" xmlns="http://www.w3.org/2000/svg" xmlns:xlink="http://www.w3.org/1999/xlink" x="0px" y="0px"
	 viewBox="0 0 23.7 18.9" style="enable-background:new 0 0 23.7 18.9;" xml:space="preserve">
<style type="text/css">
	.st0{fill:url(#Fill-3_1_);}
	.st1{fill:url(#Fill-4_1_);}
</style>
<g>
	<g id="Icon-Envelope" transform="translate(78.000000, 232.000000)">
		<linearGradient id="Fill-3_1_" gradientUnits="userSpaceOnUse" x1="-77.4324" y1="-222.6356" x2="-55.2635" y2="-222.6356">
			<stop  offset="0" style="stop-color:#E0081C"/>
			<stop  offset="0.9995" style="stop-color:#92172F"/>
		</linearGradient>
		<path id="Fill-3" class="st0" d="M-55.3-228.8l-0.9-0.9l-8.3,8.3c-1,1-2.8,1-3.8,0l-8.3-8.2l-0.9,0.9l6.2,6.2l-6.2,6.2l0.9,0.9
			l6.2-6.2l1.2,1.2c0.8,0.8,1.7,1.2,2.8,1.2s2-0.4,2.8-1.2l1.2-1.2l6.2,6.2l0.9-0.9l-6.2-6.2L-55.3-228.8"/>
		<linearGradient id="Fill-4_1_" gradientUnits="userSpaceOnUse" x1="-77.5736" y1="-222.565" x2="-55.0282" y2="-222.565">
			<stop  offset="0" style="stop-color:#E0081C"/>
			<stop  offset="0.9995" style="stop-color:#92172F"/>
		</linearGradient>
		<path id="Fill-4" class="st1" d="M-57-214h-18.6c-1.1,0-2-0.9-2-2v-13.3c0-1.1,0.9-2,2-2H-57c1.1,0,2,0.9,2,2v13.3
			C-55-214.8-55.9-214-57-214L-57-214z M-75.6-229.9c-0.4,0-0.7,0.3-0.7,0.7v13.3c0,0.4,0.3,0.7,0.7,0.7h18.6c0.4,0,0.7-0.3,0.7-0.7
			v-13.3c0-0.4-0.3-0.7-0.7-0.7H-75.6L-75.6-229.9z"/>
	</g>
</g>
</svg>
