<?xml version="1.0" encoding="utf-8"?>
<!-- Generator: Adobe Illustrator 24.1.0, SVG Export Plug-In . SVG Version: 6.00 Build 0)  -->
<svg version="1.1" id="Layer_1" xmlns="http://www.w3.org/2000/svg" xmlns:xlink="http://www.w3.org/1999/xlink" x="0px" y="0px"
	 viewBox="0 0 42.64 38.36" style="enable-background:new 0 0 42.64 38.36;" xml:space="preserve">
<style type="text/css">
	.st0{fill:url(#SVGID_1_);}
	.st1{fill:url(#SVGID_2_);}
	.st2{fill:url(#SVGID_3_);}
	.st3{fill:url(#SVGID_4_);}
	.st4{fill:url(#SVGID_5_);}
</style>
<g>
	<linearGradient id="SVGID_1_" gradientUnits="userSpaceOnUse" x1="0.9699" y1="19.4658" x2="41.5844" y2="19.4658">
		<stop  offset="0" style="stop-color:#E0081B"/>
		<stop  offset="0.9995" style="stop-color:#92172D"/>
	</linearGradient>
	<path class="st0" d="M0.97,35.96c3.86,0,7.72,0.01,11.58,0.01c0.46,0,0.93-0.02,1.39,0.01c0.3,0.02,0.38-0.08,0.37-0.38
		c-0.01-1.65,0-3.3-0.01-4.96c0-0.32,0.09-0.4,0.39-0.39c0.86,0.02,0.86,0,0.86,0.86c0,1.49,0.01,2.99-0.01,4.48
		c0,0.29,0.06,0.38,0.37,0.38c0.92-0.01,0.92,0,0.92-0.92c0-1.89-0.01-3.78,0.01-5.67c0-0.33-0.08-0.42-0.41-0.42
		c-4.16,0.01-8.33,0.01-12.49,0.01c-0.11,0-0.21,0-0.32,0c-0.32,0.02-0.58-0.09-0.7-0.4c-0.13-0.32,0.01-0.56,0.23-0.78
		c1.4-1.4,2.81-2.8,4.21-4.2c0.08-0.08,0.16-0.17,0.24-0.26c-0.1-0.13-0.23-0.07-0.34-0.07c-0.98-0.01-1.96-0.01-2.93,0
		c-0.34,0-0.64-0.05-0.78-0.41c-0.13-0.33,0.04-0.58,0.27-0.8c1.59-1.59,3.18-3.18,4.77-4.77c0.1-0.1,0.23-0.17,0.29-0.37
		c-0.81,0-1.59,0-2.38,0c-0.39,0-0.82,0.09-1.03-0.39c-0.2-0.48,0.17-0.73,0.45-1c1.41-1.41,2.82-2.82,4.26-4.26
		c-0.3-0.11-0.57-0.05-0.83-0.06c-0.42-0.01-0.85-0.01-1.27,0c-0.32,0.01-0.58-0.08-0.71-0.4c-0.13-0.32,0.01-0.56,0.23-0.78
		c2.12-2.12,4.24-4.24,6.37-6.36c0.66-0.66,1.33-1.32,1.99-1.97c0.16,0,0.32,0,0.48,0c1.68,1.68,3.37,3.35,5.05,5.03
		c1.09,1.09,2.18,2.19,3.28,3.28c0.23,0.23,0.4,0.47,0.26,0.81c-0.14,0.36-0.44,0.41-0.78,0.4c-0.66-0.01-1.31,0-2.06,0
		c0.14,0.16,0.23,0.26,0.33,0.36c1.37,1.37,2.75,2.75,4.12,4.12c0.24,0.23,0.43,0.48,0.29,0.84c-0.14,0.35-0.44,0.4-0.78,0.4
		c-0.87-0.01-1.73,0-2.69,0c0.18,0.19,0.3,0.33,0.43,0.45c1.57,1.57,3.14,3.14,4.71,4.71c0.33,0.33,0.38,0.66,0.16,0.95
		c-0.15,0.19-0.36,0.24-0.6,0.24c-1.11-0.01-2.22,0-3.33,0c-0.03,0.17,0.1,0.22,0.18,0.29c1.42,1.42,2.84,2.84,4.26,4.26
		c0.22,0.22,0.34,0.47,0.2,0.78c-0.13,0.29-0.37,0.39-0.68,0.37c-0.07,0-0.13,0.01-0.2,0c-0.25-0.03-0.34,0.05-0.34,0.32
		c0.01,2.11,0.01,4.23,0,6.34c0,0.35,0.16,0.34,0.4,0.34c4.16,0,8.33,0,12.49-0.01c0.37,0,0.46,0.1,0.45,0.46
		c-0.03,0.8-0.01,0.8-0.81,0.8c-13.1,0-26.19,0-39.29,0c-0.17,0-0.34,0.01-0.51,0.01C0.97,36.81,0.97,36.38,0.97,35.96z
		 M27.28,27.71c-0.06-0.19-0.19-0.27-0.29-0.37c-1.38-1.38-2.76-2.77-4.15-4.15c-0.22-0.22-0.37-0.46-0.24-0.77
		c0.13-0.33,0.4-0.41,0.74-0.41c0.98,0.01,1.96,0.01,2.93,0c0.12,0,0.26,0.06,0.39-0.09c-1.01-1-2.01-1.99-3.01-2.99
		c-0.69-0.69-1.38-1.38-2.08-2.07c-0.23-0.23-0.39-0.47-0.24-0.81c0.15-0.33,0.43-0.39,0.76-0.38c0.45,0.01,0.9,0,1.35,0
		c0.43,0,0.86,0,1.4,0c-0.77-0.76-1.45-1.44-2.13-2.11c-0.82-0.82-1.65-1.64-2.47-2.47c-0.22-0.21-0.31-0.46-0.18-0.75
		c0.12-0.27,0.35-0.38,0.64-0.38c0.21,0.01,0.42,0,0.63,0c0.49,0,0.99,0,1.48,0c0.03-0.05,0.05-0.1,0.08-0.14
		c-0.13-0.09-0.28-0.17-0.39-0.28c-2.01-2-4.03-4.01-6.03-6.03c-0.24-0.24-0.36-0.22-0.58,0c-2.03,2.05-4.07,4.08-6.11,6.12
		C9.71,9.72,9.58,9.78,9.58,9.96c0.65,0,1.3,0.01,1.94,0c0.35-0.01,0.67,0.04,0.82,0.41c0.14,0.35-0.05,0.6-0.29,0.84
		c-1.41,1.4-2.81,2.8-4.21,4.2c-0.06,0.07-0.19,0.11-0.14,0.27c0.87,0,1.74,0.01,2.61,0c0.33,0,0.61,0.06,0.75,0.39
		c0.15,0.35-0.03,0.6-0.27,0.84c-1.62,1.61-3.24,3.23-4.85,4.85c-0.07,0.07-0.18,0.11-0.16,0.27c1.08,0,2.16,0.01,3.24,0
		c0.35,0,0.64,0.06,0.78,0.41c0.13,0.33-0.03,0.58-0.26,0.81c-1.4,1.39-2.79,2.78-4.18,4.17c-0.08,0.08-0.23,0.14-0.21,0.31
		C12.52,27.71,19.88,27.71,27.28,27.71z M22.55,28.97c-1.35,0-2.7,0.01-4.04-0.01c-0.33,0-0.42,0.08-0.42,0.41
		c0.02,2.07,0.01,4.15,0,6.22c0,0.3,0.08,0.38,0.37,0.37c1.88-0.01,3.75-0.01,5.63,0c0.3,0,0.38-0.08,0.37-0.37
		c-0.02-1.48-0.01-2.96-0.01-4.44c0-0.91,0-0.9,0.9-0.91c0.32-0.01,0.36,0.11,0.36,0.39c-0.01,1.49-0.01,2.99-0.01,4.48
		c0,0.86,0,0.84,0.87,0.86c0.32,0.01,0.43-0.07,0.42-0.41c-0.02-2.07-0.01-4.15,0-6.22c0-0.29-0.06-0.38-0.37-0.38
		C25.27,28.98,23.91,28.97,22.55,28.97z"/>
	<linearGradient id="SVGID_2_" gradientUnits="userSpaceOnUse" x1="22.894" y1="15.3411" x2="39.6741" y2="15.3411">
		<stop  offset="0" style="stop-color:#E0081B"/>
		<stop  offset="0.9995" style="stop-color:#92172D"/>
	</linearGradient>
	<path class="st1" d="M26.59,1.7c1.57,1.56,3.14,3.13,4.71,4.69c1.2,1.19,2.39,2.4,3.59,3.59c0.24,0.24,0.43,0.48,0.29,0.83
		c-0.15,0.35-0.45,0.4-0.78,0.4c-0.66-0.01-1.31,0-2.05,0c0.17,0.18,0.28,0.31,0.4,0.42c1.34,1.34,2.67,2.67,4.01,4.01
		c0.06,0.06,0.11,0.11,0.17,0.17c0.2,0.21,0.29,0.44,0.16,0.72c-0.12,0.27-0.34,0.39-0.63,0.39c-0.79,0-1.59,0-2.38,0
		c-0.12,0-0.26-0.04-0.44,0.08c0.21,0.2,0.42,0.38,0.61,0.57c1.48,1.48,2.95,2.95,4.43,4.43c0.24,0.24,0.47,0.48,0.32,0.86
		c-0.16,0.4-0.5,0.41-0.86,0.41c-0.93-0.01-1.85,0-2.78,0c-0.13,0-0.26,0.01-0.45,0.02c0.13,0.15,0.22,0.25,0.32,0.35
		c1.35,1.36,2.71,2.71,4.07,4.06c0.25,0.25,0.5,0.49,0.33,0.89c-0.16,0.37-0.49,0.39-0.83,0.39c-2.54,0-5.08-0.01-7.61,0
		c-0.29,0-0.38-0.07-0.37-0.37c0.01-0.89,0-0.89,0.88-0.89c1.8,0,3.6,0,5.39,0c0.11,0,0.23,0,0.42,0c-0.13-0.14-0.2-0.23-0.28-0.31
		c-1.39-1.39-2.78-2.79-4.18-4.18c-0.24-0.24-0.42-0.48-0.28-0.84c0.15-0.36,0.45-0.39,0.79-0.39c0.96,0.01,1.93,0,2.9,0
		c0.11,0,0.23,0.04,0.35-0.04c-0.02-0.13-0.13-0.19-0.21-0.27c-1.59-1.59-3.18-3.18-4.77-4.77c-0.07-0.07-0.13-0.13-0.19-0.2
		c-0.18-0.21-0.24-0.44-0.12-0.7c0.12-0.25,0.32-0.37,0.6-0.37c0.92,0,1.85,0,2.87,0c-0.17-0.18-0.28-0.3-0.39-0.42
		c-1.35-1.36-2.71-2.71-4.07-4.06c-0.24-0.23-0.44-0.48-0.29-0.83c0.15-0.37,0.47-0.41,0.82-0.4c0.64,0.01,1.29,0,1.93,0
		c0.03-0.15-0.07-0.19-0.13-0.25c-2.06-2.07-4.13-4.13-6.19-6.2c-0.24-0.24-0.37-0.22-0.59,0.01c-0.71,0.74-1.46,1.46-2.18,2.2
		c-0.2,0.21-0.31,0.19-0.5-0.01c-0.64-0.65-0.65-0.64-0.02-1.28c0.92-0.91,1.83-1.82,2.75-2.73C26.27,1.7,26.43,1.7,26.59,1.7z"/>
	<linearGradient id="SVGID_3_" gradientUnits="userSpaceOnUse" x1="15.5725" y1="10.5846" x2="16.8366" y2="10.5846">
		<stop  offset="0" style="stop-color:#E0081B"/>
		<stop  offset="0.9995" style="stop-color:#92172D"/>
	</linearGradient>
	<path class="st2" d="M16.83,10.57c-0.06,0.27,0.19,0.69-0.42,0.65c-0.84-0.05-0.84-0.01-0.84-0.42c0-0.85,0-0.82,0.87-0.86
		C17.05,9.92,16.75,10.34,16.83,10.57z"/>
	<linearGradient id="SVGID_4_" gradientUnits="userSpaceOnUse" x1="15.5605" y1="16.2682" x2="16.829" y2="16.2682">
		<stop  offset="0" style="stop-color:#E0081B"/>
		<stop  offset="0.9995" style="stop-color:#92172D"/>
	</linearGradient>
	<path class="st3" d="M16.18,16.92c-0.24-0.05-0.65,0.2-0.62-0.41c0.05-0.84,0.02-0.9,0.41-0.82c0.29,0.06,0.86-0.4,0.86,0.37
		C16.82,16.92,16.83,16.92,16.18,16.92z"/>
	<linearGradient id="SVGID_5_" gradientUnits="userSpaceOnUse" x1="15.5605" y1="22.6124" x2="16.829" y2="22.6124">
		<stop  offset="0" style="stop-color:#E0081B"/>
		<stop  offset="0.9995" style="stop-color:#92172D"/>
	</linearGradient>
	<path class="st4" d="M16.18,23.26c-0.24-0.05-0.65,0.2-0.62-0.41c0.05-0.84,0.02-0.9,0.41-0.82c0.29,0.06,0.86-0.4,0.86,0.37
		C16.82,23.26,16.83,23.26,16.18,23.26z"/>
</g>
</svg>
