<?xml version="1.0" encoding="utf-8"?>
<!-- Generator: Adobe Illustrator 24.1.2, SVG Export Plug-In . SVG Version: 6.00 Build 0)  -->
<svg version="1.1" id="Layer_1" xmlns="http://www.w3.org/2000/svg" xmlns:xlink="http://www.w3.org/1999/xlink" x="0px" y="0px"
	 viewBox="0 0 66.4 57.4" style="enable-background:new 0 0 66.4 57.4;" xml:space="preserve">
<style type="text/css">
	.st0{fill:url(#SVGID_1_);}
	.st1{fill:url(#SVGID_2_);}
	.st2{fill:url(#SVGID_3_);}
</style>
<g>
	<linearGradient id="SVGID_1_" gradientUnits="userSpaceOnUse" x1="22.2726" y1="17.85" x2="41.4977" y2="17.85">
		<stop  offset="0" style="stop-color:#E0081D"/>
		<stop  offset="0.9995" style="stop-color:#921730"/>
	</linearGradient>
	<path class="st0" d="M22.3,15.1c0-1.3,0.1-2.7,0.5-4.1c0.8-2.7,2.6-4.5,5.3-5.3c3-0.9,6-0.7,8.9,0.7c2.7,1.3,4.2,3.6,4.5,6.6
		c0.4,4.5-0.6,8.7-2.6,12.7c-0.5,1.1-1.3,2-2.1,2.8c-2.6,2.8-6.2,2.6-8.7,0.6c-1.5-1.2-2.7-2.7-3.5-4.5
		C23.2,21.6,22.4,18.5,22.3,15.1z M39.9,14.9c0-0.6,0-1.2-0.1-1.9c-0.4-2.7-1.8-4.7-4.4-5.6c-2.3-0.8-4.6-0.8-7-0.1
		c-1.8,0.5-3,1.7-3.7,3.4C24.2,11.9,24,13,24,14.2c-0.1,3,0.6,5.9,1.7,8.8c0.7,1.8,1.8,3.3,3.2,4.6c1.8,1.6,4.9,2,6.8-0.5
		c0.4-0.5,0.8-1,1.2-1.6C38.9,22.2,39.7,18.7,39.9,14.9z"/>
	<linearGradient id="SVGID_2_" gradientUnits="userSpaceOnUse" x1="40.1292" y1="42.1477" x2="56.2876" y2="42.1477">
		<stop  offset="0" style="stop-color:#E0081D"/>
		<stop  offset="0.9995" style="stop-color:#921730"/>
	</linearGradient>
	<path class="st1" d="M40.6,44.6c0.2-2.3,0.2-4.2,0-6.1c-0.1-0.6-0.2-1.1-0.4-1.7c-0.2-0.6,0.1-1.2,0.7-1.2c2.4-0.1,4.5-1.1,6.5-2.3
		c0.6-0.4,1-0.3,1.6,0c2,1.2,4.1,2.2,6.4,2.3c0.6,0,0.9,0.5,0.8,1.1c-0.6,2-0.6,4-0.5,6c0,0.2,0,0.5,0,0.7c0.3,1.7-0.4,3.1-1.6,4.3
		c-1.6,1.6-3.5,2.7-5.5,3.6c-0.3,0.1-0.6,0.1-0.8,0c-2.1-0.9-4-2-5.6-3.6C41.2,46.5,40.6,45.2,40.6,44.6z M42.4,41.8
		c0,0.7,0,1.4,0,2c-0.1,1,0.2,1.7,0.8,2.4c1.3,1.5,3.1,2.5,4.8,3.3c0.2,0.1,0.4,0,0.5-0.1c0.8-0.4,1.7-0.8,2.4-1.3
		c0.9-0.6,1.8-1.3,2.5-2.2c0.4-0.6,0.7-1.2,0.6-1.9c-0.1-2.2-0.3-4.4,0.3-6.5c0.1-0.3,0-0.4-0.3-0.5c-2-0.4-3.8-1.1-5.5-2.1
		c-0.3-0.2-0.5-0.1-0.8,0c-1.7,1-3.4,1.8-5.4,2.1c-0.3,0.1-0.4,0.2-0.3,0.5C42.4,38.9,42.4,40.3,42.4,41.8z"/>
	<linearGradient id="SVGID_3_" gradientUnits="userSpaceOnUse" x1="10.5296" y1="41.2173" x2="39.5024" y2="41.2173">
		<stop  offset="0" style="stop-color:#E0081D"/>
		<stop  offset="0.9995" style="stop-color:#921730"/>
	</linearGradient>
	<path class="st2" d="M10.5,46.7c0.1-2.2,0.3-4.5,1.1-6.7c0.2-0.6,0.5-1.2,0.8-1.7c0.5-0.8,1.2-1.3,2.2-1.6
		c3.4-0.8,6.9-1.7,10.3-2.6c0.6-0.1,1,0,1.4,0.4c1.8,1.9,3.6,3.8,5.4,5.7c0.3,0.3,0.4,0.2,0.6,0c1.8-1.9,3.7-3.8,5.5-5.8
		c0.2-0.2,0.4-0.4,0.7-0.4c0.3,0,0.6,0.1,0.8,0.4c0.2,0.3,0.2,0.6,0,0.9c-0.1,0.2-0.3,0.3-0.5,0.5c-2,2.1-4,4.2-6,6.3
		c-0.7,0.7-1,0.7-1.8,0c-1.9-2-3.8-3.9-5.6-5.9c-0.2-0.3-0.5-0.3-0.8-0.3c-3.2,0.8-6.4,1.6-9.6,2.4c-0.9,0.2-1.4,0.7-1.8,1.5
		c-0.6,1.3-0.8,2.6-0.9,4c-0.1,1.3-0.2,2.5-0.2,3.8c0,0.6-0.3,0.9-0.8,0.9c-0.5,0-0.8-0.4-0.8-1C10.5,47.2,10.5,47,10.5,46.7z"/>
</g>
</svg>
