<?xml version="1.0" encoding="utf-8"?>
<!-- Generator: Adobe Illustrator 24.1.0, SVG Export Plug-In . SVG Version: 6.00 Build 0)  -->
<svg version="1.1" id="Layer_1" xmlns="http://www.w3.org/2000/svg" xmlns:xlink="http://www.w3.org/1999/xlink" x="0px" y="0px"
	 viewBox="0 0 35.39 32.94" style="enable-background:new 0 0 35.39 32.94;" xml:space="preserve">
<style type="text/css">
	.st0{fill:url(#SVGID_1_);}
	.st1{fill:url(#SVGID_2_);}
</style>
<g>
	<linearGradient id="SVGID_1_" gradientUnits="userSpaceOnUse" x1="10.4459" y1="20.1319" x2="24.9125" y2="20.1319">
		<stop  offset="0" style="stop-color:#DF091A"/>
		<stop  offset="0.9995" style="stop-color:#91172D"/>
	</linearGradient>
	<path class="st0" d="M13.34,20.51c-0.07,0.1-0.14,0.21-0.21,0.3c-0.42,0.52-1.07,0.71-1.67,0.5c-0.65-0.23-1.06-0.76-1.01-1.46
		c0.1-1.45,0.22-2.91,0.38-4.36c0.14-1.23,0.26-2.46,0.46-3.68c0.24-1.46,1.08-2.44,2.35-3.09c1.58-0.81,3.28-0.89,5.01-0.74
		c0.38,0.03,0.76,0.11,1.13,0.21c2.46,0.62,3.63,2.01,3.91,4.56c0.25,2.28,0.5,4.56,0.69,6.85c0.04,0.48-0.05,0.9-0.35,1.28
		c-0.41,0.51-0.31,0.91,0.26,1.16c0.41,0.18,0.62,0.49,0.62,0.94c0,2.28,0.01,4.56-0.01,6.84c0,0.6-0.41,1-1.01,0.99
		c-0.83-0.02-1.67,0.13-2.5-0.1c-0.3-0.08-0.2,0.18-0.24,0.31c-0.27,0.78-0.98,1.32-1.77,1.32c-0.77,0-1.47-0.52-1.75-1.27
		c-0.11-0.29-0.09-0.57-0.09-0.86c0-2.83,0-5.66,0-8.48c0-0.13,0.01-0.26,0-0.38c-0.01-0.1,0.03-0.24-0.15-0.23
		c-0.12,0.01-0.12,0.12-0.12,0.21c-0.01,0.15,0,0.29,0,0.44c0,2.86,0,5.73,0,8.59c0,0.8-0.31,1.42-1.04,1.78
		c-0.69,0.34-1.35,0.25-1.95-0.21c-0.52-0.39-0.7-0.95-0.71-1.58c-0.02-2.26-0.06-4.52-0.08-6.79c-0.01-1,0-2,0-3.01
		C13.45,20.53,13.4,20.52,13.34,20.51z M18.23,25.66c0,1.57-0.01,3.14,0,4.71c0.01,0.75,0.49,1.24,1.17,1.24
		c0.7,0,1.13-0.47,1.14-1.25c0.04-2.33,0.07-4.67,0.1-7c0.04-3.06,0.08-6.13,0.12-9.19c0-0.27,0.01-0.56,0.34-0.59
		c0.3-0.03,0.38,0.22,0.4,0.47c0.18,1.81,0.37,3.62,0.54,5.44c0.08,0.87,0.35,1.27,0.91,1.22c0.6-0.05,0.82-0.5,0.72-1.39
		c-0.15-1.39-0.26-2.79-0.42-4.19c-0.13-1.16-0.25-2.32-0.46-3.46c-0.29-1.55-2.6-3.12-4.23-2.96c-0.27,0.03-0.22,0.17-0.21,0.33
		c0.11,1.4,0.17,2.8,0.35,4.19c0.11,0.9,0.02,1.65-0.54,2.4c-0.8,1.08-0.75,1.11-1.49-0.01c-0.37-0.56-0.74-1.07-0.63-1.84
		c0.18-1.24,0.24-2.5,0.31-3.76c0.02-0.43,0.36-1-0.03-1.26C16,8.52,15.46,8.8,15.03,8.93c-1.64,0.5-2.88,1.39-3.09,3.27
		c-0.1,0.9-0.24,1.8-0.34,2.71c-0.17,1.61-0.33,3.23-0.48,4.84c-0.05,0.53,0.29,0.92,0.77,0.95c0.45,0.03,0.82-0.3,0.87-0.8
		c0.12-1.2,0.22-2.39,0.34-3.59c0.08-0.78,0.16-1.56,0.25-2.34c0.02-0.21,0.11-0.42,0.35-0.41c0.26,0.01,0.37,0.19,0.37,0.45
		c0,0.09,0,0.18,0,0.27c0.04,3.41,0.08,6.82,0.13,10.23c0.03,1.95,0.06,3.9,0.1,5.86c0.01,0.79,0.53,1.28,1.28,1.22
		c0.62-0.05,1.03-0.53,1.03-1.25c0-3.08,0-6.17,0-9.25c0-0.7,0.02-0.72,0.7-0.69c0.09,0,0.19,0.02,0.27,0
		c0.56-0.12,0.69,0.15,0.68,0.66C18.22,22.59,18.23,24.13,18.23,25.66z M24.26,26.44c0-1.08-0.01-2.15,0.01-3.23
		c0.01-0.4-0.14-0.57-0.54-0.57c-0.55,0.01-1.09,0.01-1.64,0c-0.36-0.01-0.53,0.14-0.53,0.52c0.01,2.15,0.01,4.3,0,6.46
		c0,0.38,0.18,0.52,0.54,0.51c0.53-0.01,1.06-0.02,1.59,0c0.46,0.02,0.6-0.19,0.59-0.63C24.24,28.48,24.26,27.46,24.26,26.44z
		 M17.44,15.37c0.38-0.49,0.77-0.95,0.61-1.69c-0.13-0.62-0.1-1.27-0.15-1.9c-0.07-0.94-0.15-1.89-0.22-2.83
		c-0.01-0.16-0.01-0.34-0.25-0.35s-0.24,0.17-0.27,0.33C17.15,9,17.15,9.07,17.14,9.15c-0.11,1.34-0.21,2.69-0.32,4.03
		C16.75,13.98,16.68,14.78,17.44,15.37z M21.44,20.37c0,0.6,0,1.11,0,1.63C22.19,21.88,22.2,21.58,21.44,20.37z M22.94,21.95
		c0.21,0.01,0.21-0.13,0.22-0.28c0-0.17-0.04-0.27-0.23-0.27c-0.24,0-0.24,0.14-0.25,0.32S22.77,21.97,22.94,21.95z"/>
	<linearGradient id="SVGID_2_" gradientUnits="userSpaceOnUse" x1="14.07" y1="3.9949" x2="20.77" y2="3.9949">
		<stop  offset="0" style="stop-color:#DF091A"/>
		<stop  offset="0.9995" style="stop-color:#91172D"/>
	</linearGradient>
	<path class="st1" d="M20.77,3.99c0,1.87-1.51,3.39-3.36,3.38c-1.84-0.01-3.34-1.53-3.34-3.4c0-1.82,1.51-3.34,3.33-3.35
		C19.25,0.6,20.77,2.12,20.77,3.99z M17.44,1.34c-1.47,0-2.69,1.2-2.69,2.65c0,1.43,1.2,2.64,2.64,2.65
		c1.48,0.01,2.7-1.16,2.71-2.62C20.11,2.56,18.9,1.34,17.44,1.34z"/>
</g>
</svg>
