<?xml version="1.0" encoding="utf-8"?>
<!-- Generator: Adobe Illustrator 24.1.0, SVG Export Plug-In . SVG Version: 6.00 Build 0)  -->
<svg version="1.1" id="Layer_1" xmlns="http://www.w3.org/2000/svg" xmlns:xlink="http://www.w3.org/1999/xlink" x="0px" y="0px"
	 viewBox="0 0 34.66 25.28" style="enable-background:new 0 0 34.66 25.28;" xml:space="preserve">
<style type="text/css">
	.st0{fill:#F93232;}
	.st1{fill:#FED049;}
</style>
<g>
	<g id="Master_Card_1_">
		<g id="Master_Card">
			<circle id="Red_x5F_Circle" class="st0" cx="10.92" cy="12.65" r="10.67"/>
			<path id="Yellow_x5F_Circle" class="st1" d="M23.73,1.98c-2.4,0-4.6,0.8-6.38,2.13h-0.02v0.01c-0.42,0.32-0.81,0.68-1.18,1.05
				h2.36c0.33,0.33,0.63,0.69,0.91,1.07h-4.2c-0.26,0.34-0.5,0.7-0.71,1.07h5.62c0.2,0.35,0.39,0.7,0.55,1.07h-6.71
				c-0.15,0.35-0.29,0.7-0.4,1.07h7.52c0.11,0.35,0.2,0.71,0.28,1.07h-8.07c-0.07,0.35-0.13,0.7-0.17,1.07h8.41
				c0.04,0.35,0.06,0.71,0.06,1.07h-8.54c0,0.36,0.03,0.71,0.06,1.07h8.41c-0.04,0.36-0.1,0.72-0.17,1.07h-8.07
				c0.07,0.36,0.17,0.72,0.28,1.07h7.52c-0.12,0.36-0.25,0.72-0.4,1.07h-6.71c0.16,0.37,0.34,0.72,0.54,1.07h5.62
				c-0.22,0.37-0.46,0.73-0.71,1.07h-4.19c0.28,0.38,0.59,0.73,0.92,1.07h2.36c-0.37,0.38-0.76,0.73-1.18,1.05
				c1.78,1.34,4,2.15,6.4,2.15c5.89,0,10.67-4.78,10.67-10.67S29.62,1.98,23.73,1.98z"/>
		</g>
	</g>
</g>
</svg>
