<!-- Generated by IcoMoon.io -->
<svg version="1.1" xmlns="http://www.w3.org/2000/svg" width="1404" height="1024" viewBox="0 0 1404 1024">
<title></title>
<g id="icomoon-ignore">
</g>
<path fill="none" stroke-linejoin="miter" stroke-linecap="butt" stroke-miterlimit="10" stroke-width="20.2532" stroke="#000" d="M874.532 512.405c0 238.699-193.504 432.203-432.203 432.203s-432.203-193.504-432.203-432.203c0-238.699 193.504-432.203 432.203-432.203s432.203 193.504 432.203 432.203z"></path>
<path fill="#000" d="M961.215 80.203c-97.215 0-186.329 32.405-258.43 86.278h-0.81v0.405c-17.013 12.962-32.81 27.544-47.797 42.532h95.595c13.367 13.367 25.519 27.949 36.861 43.342h-170.127c-10.532 13.772-20.253 28.354-28.759 43.342h227.646c8.101 14.177 15.797 28.354 22.278 43.342h-271.797c-6.076 14.177-11.747 28.354-16.203 43.342h304.608c4.456 14.177 8.101 28.759 11.342 43.342h-326.886c-2.835 14.177-5.266 28.354-6.886 43.342h340.658c1.62 14.177 2.43 28.759 2.43 43.342h-345.924c0 14.582 1.215 28.759 2.43 43.342h340.658c-1.62 14.582-4.051 29.165-6.886 43.342h-326.886c2.835 14.582 6.886 29.165 11.342 43.342h304.608c-4.861 14.582-10.127 29.165-16.203 43.342h-271.797c6.481 14.987 13.772 29.165 21.873 43.342h227.646c-8.911 14.987-18.633 29.57-28.759 43.342h-169.722c11.342 15.392 23.899 29.57 37.266 43.342h95.595c-14.987 15.392-30.785 29.57-47.797 42.532 72.101 54.278 162.025 87.089 259.241 87.089 238.582 0 432.203-193.62 432.203-432.203s-194.025-433.418-432.608-433.418z"></path>
</svg>
