<?xml version="1.0" encoding="utf-8"?>
<!-- Generator: Adobe Illustrator 24.1.0, SVG Export Plug-In . SVG Version: 6.00 Build 0)  -->
<svg version="1.1" id="Layer_1" xmlns="http://www.w3.org/2000/svg" xmlns:xlink="http://www.w3.org/1999/xlink" x="0px" y="0px"
	 viewBox="0 0 36.35 32.94" style="enable-background:new 0 0 36.35 32.94;" xml:space="preserve">
<style type="text/css">
	.st0{fill:url(#SVGID_1_);}
	.st1{fill:url(#SVGID_2_);}
	.st2{fill:url(#SVGID_3_);}
</style>
<g>
	<linearGradient id="SVGID_1_" gradientUnits="userSpaceOnUse" x1="11.2236" y1="8.7908" x2="24.2116" y2="8.7908">
		<stop  offset="0" style="stop-color:#E0081B"/>
		<stop  offset="0.9995" style="stop-color:#92172D"/>
	</linearGradient>
	<path class="st0" d="M12.35,6.7c0.08-0.05,0.16-0.08,0.2-0.13c0.85-1.06,1.99-1.32,3.28-1.22c1.29,0.1,2.54-0.13,3.73-0.66
		c0.65-0.28,1.08-0.17,1.52,0.38c0.27,0.33,0.62,0.52,0.96,0.74c0.25,0.17,0.45,0.4,0.24,0.69c-0.19,0.28-0.45,0.15-0.68-0.01
		C21.21,6.21,20.74,6,20.45,5.56c-0.15-0.23-0.37-0.23-0.59-0.13c-1.44,0.64-2.94,0.83-4.5,0.7c-0.79-0.06-1.5,0.15-2.04,0.79
		c-0.3,0.35-0.64,0.67-0.99,0.98c-0.39,0.35-0.77,0.22-0.83-0.3c-0.27-2.53,0.78-5.56,3.87-6.58c1.76-0.58,3.56-0.55,5.28,0.14
		c2.07,0.84,2.99,2.56,3.23,4.68c0.08,0.7,0.05,1.41-0.06,2.11c-0.05,0.35,0,0.68,0.13,1.02c0.44,1.12,0.31,2.19-0.46,3.13
		c-0.26,0.32-0.48,0.65-0.68,1.01c-0.64,1.12-1.4,2.15-2.44,2.92c-2.19,1.62-5.28,1.08-6.79-1.19c-0.2-0.31-0.4-0.63-0.55-0.96
		c-0.32-0.72-0.67-1.4-1.21-2.01c-0.77-0.88-0.76-1.97-0.24-3.02c0.13-0.27,0.33-0.5,0.65-0.32c0.3,0.16,0.19,0.42,0.07,0.67
		c-0.48,1.01-0.31,1.86,0.53,2.6c0.24,0.22,0.4,0.47,0.52,0.77c0.18,0.47,0.38,0.93,0.6,1.37c1.23,2.45,4.53,3.07,6.55,0.94
		c0.5-0.53,0.95-1.08,1.34-1.7c0.37-0.58,0.68-1.18,1.12-1.71c0.46-0.56,0.6-1.28,0.31-1.94c-0.34-0.78-0.25-1.56-0.2-2.35
		c0.27-4.36-2.51-6.01-5.89-5.7c-2.98,0.27-4.56,1.92-4.93,4.86C12.26,6.44,12.23,6.55,12.35,6.7z"/>
	<linearGradient id="SVGID_2_" gradientUnits="userSpaceOnUse" x1="5.3618" y1="23.7926" x2="30.0177" y2="23.7926">
		<stop  offset="0" style="stop-color:#E0081B"/>
		<stop  offset="0.9995" style="stop-color:#92172D"/>
	</linearGradient>
	<path class="st1" d="M6.14,26.34c0.01,1.23,0.11,2.39,0,3.56c-0.02,0.26-0.02,0.56-0.39,0.55c-0.41-0.01-0.38-0.32-0.38-0.6
		c0.01-2.04,0-4.08,0.02-6.11c0.01-0.52,0.05-1.04,0.14-1.55c0.22-1.2,0.92-2.08,1.97-2.69c1.02-0.59,2.14-0.91,3.27-1.22
		c0.96-0.26,1.92-0.53,2.83-0.95c0.52-0.24,0.7-0.12,0.75,0.46c0.07,0.83,0.15,1.66,0.19,2.49c0.02,0.4,0.15,0.42,0.46,0.26
		c0.66-0.34,1.34-0.64,1.98-0.99c0.4-0.22,0.75-0.21,1.15,0c0.65,0.34,1.33,0.65,1.99,0.98c0.3,0.15,0.48,0.22,0.52-0.25
		c0.07-0.87,0.2-1.73,0.31-2.59c0.06-0.51,0.34-0.69,0.75-0.39c1.34,0.99,2.93,1.28,4.47,1.75c0.53,0.16,1.05,0.37,1.56,0.57
		c1.57,0.61,2.27,1.78,2.29,3.44c0.01,1.61-0.12,3.22-0.16,4.83c-0.02,0.63-0.07,1.26,0,1.89c0.03,0.31,0.05,0.64-0.36,0.68
		c-0.43,0.03-0.42-0.31-0.43-0.62c-0.09-2.26,0.14-4.52,0.14-6.78c0-1.35-0.57-2.2-1.78-2.71c-1.01-0.42-2.06-0.73-3.11-1
		c-0.78-0.2-1.53-0.43-2.2-0.89c-0.31-0.21-0.43-0.16-0.47,0.24c-0.08,0.83-0.2,1.65-0.3,2.48c-0.07,0.58-0.28,0.7-0.81,0.45
		c-0.82-0.39-1.64-0.77-2.44-1.2c-0.36-0.19-0.66-0.21-1.03-0.01c-0.81,0.44-1.65,0.83-2.48,1.24c-0.51,0.24-0.71,0.13-0.76-0.43
		c-0.08-0.85-0.13-1.7-0.19-2.55c-0.01-0.22-0.01-0.45-0.33-0.32c-1.58,0.62-3.29,0.87-4.85,1.56c-1.36,0.6-2.15,1.61-2.21,3.12
		C6.18,24.14,6.08,25.27,6.14,26.34z"/>
	<linearGradient id="SVGID_3_" gradientUnits="userSpaceOnUse" x1="15.3725" y1="26.8505" x2="19.8494" y2="26.8505">
		<stop  offset="0" style="stop-color:#E0081B"/>
		<stop  offset="0.9995" style="stop-color:#92172D"/>
	</linearGradient>
	<path class="st2" d="M16.79,22.39c-0.17,1.91-0.28,3.89-0.56,5.85c-0.14,0.97,0.34,1.58,0.78,2.27c0.47,0.72,0.4,0.65,1.02,0.07
		c0.94-0.88,0.98-1.87,0.79-3.05c-0.3-1.83-0.38-3.68-0.44-5.53c-0.01-0.22-0.05-0.49,0.21-0.58c0.35-0.13,0.53,0.06,0.55,0.4
		c0.06,0.89,0.13,1.77,0.19,2.66c0.1,1.55,0.23,3.1,0.5,4.63c0.05,0.27-0.01,0.46-0.16,0.66c-0.6,0.75-1.19,1.52-1.79,2.27
		c-0.32,0.4-0.54,0.39-0.83-0.02c-0.53-0.78-1.04-1.58-1.56-2.36c-0.14-0.21-0.12-0.42-0.1-0.64c0.16-1.84,0.33-3.69,0.5-5.53
		c0.05-0.52,0.09-1.03,0.14-1.55c0.02-0.27,0.04-0.56,0.4-0.55c0.41,0.01,0.37,0.33,0.37,0.61C16.79,22.11,16.79,22.22,16.79,22.39z
		"/>
</g>
</svg>
