<?xml version="1.0" encoding="utf-8"?>
<!-- Generator: Adobe Illustrator 24.1.0, SVG Export Plug-In . SVG Version: 6.00 Build 0)  -->
<svg version="1.1" id="Layer_1" xmlns="http://www.w3.org/2000/svg" xmlns:xlink="http://www.w3.org/1999/xlink" x="0px" y="0px"
	 viewBox="0 0 36.35 32.94" style="enable-background:new 0 0 36.35 32.94;" xml:space="preserve">
<style type="text/css">
	.st0{fill:url(#SVGID_1_);}
	.st1{fill:url(#SVGID_2_);}
</style>
<g>
	<linearGradient id="SVGID_1_" gradientUnits="userSpaceOnUse" x1="11.7064" y1="11.5641" x2="23.7008" y2="11.5641">
		<stop  offset="0" style="stop-color:#E0081B"/>
		<stop  offset="0.9995" style="stop-color:#92172D"/>
	</linearGradient>
	<path class="st0" d="M11.72,11.56c0-1.43-0.04-2.87,0.01-4.3c0.12-3.31,2.9-5.84,6.21-5.71c3.1,0.12,5.64,2.61,5.7,5.7
		c0.06,2.96,0.1,5.93-0.02,8.89c-0.09,2.37-1.83,4.55-4.46,5.24c-3.65,0.95-7.3-1.75-7.43-5.53C11.68,14.43,11.72,12.99,11.72,11.56
		z M22.22,11.58c0.01,0,0.02,0,0.02,0c0-1.35,0-2.69,0-4.04c0-1.17-0.39-2.2-1.17-3.06c-1.28-1.41-3.22-1.87-5.01-1.2
		c-1.78,0.67-2.91,2.33-2.93,4.33c-0.02,2.64-0.01,5.27,0,7.91c0,0.85,0.2,1.65,0.63,2.39c0.99,1.7,3.03,2.57,4.97,2.12
		c1.9-0.44,3.37-2.09,3.47-4.03C22.27,14.53,22.22,13.05,22.22,11.58z"/>
	<linearGradient id="SVGID_2_" gradientUnits="userSpaceOnUse" x1="7.103" y1="23.1926" x2="28.2766" y2="23.1926">
		<stop  offset="0" style="stop-color:#E0081B"/>
		<stop  offset="0.9995" style="stop-color:#92172D"/>
	</linearGradient>
	<path class="st1" d="M16.98,28.57c0-0.65-0.01-1.3,0-1.96c0.01-0.26-0.07-0.35-0.35-0.38c-3.4-0.4-6.05-2.04-7.91-4.91
		c-1.08-1.65-1.59-3.49-1.62-5.46C7.09,15.34,7.35,15.02,7.78,15c0.45-0.02,0.73,0.27,0.74,0.83c0.07,2.03,0.67,3.87,1.93,5.47
		c1.67,2.1,3.83,3.33,6.52,3.52c4.53,0.33,8.51-2.56,9.62-6.95c0.17-0.68,0.22-1.37,0.27-2.06c0.03-0.54,0.28-0.82,0.72-0.81
		c0.44,0.01,0.71,0.31,0.7,0.83c-0.05,2.82-1.06,5.24-3.03,7.26c-1.78,1.82-3.96,2.85-6.48,3.13c-0.34,0.04-0.37,0.17-0.37,0.45
		c0.01,1.29,0,2.58,0,3.87c0,0.37-0.11,0.68-0.49,0.8c-0.48,0.16-0.91-0.16-0.92-0.69C16.97,29.96,16.99,29.26,16.98,28.57
		C16.99,28.57,16.98,28.57,16.98,28.57z"/>
</g>
</svg>
