<?xml version="1.0" encoding="utf-8"?>
<!-- Generator: Adobe Illustrator 24.1.0, SVG Export Plug-In . SVG Version: 6.00 Build 0)  -->
<svg version="1.1" id="Layer_1" xmlns="http://www.w3.org/2000/svg" xmlns:xlink="http://www.w3.org/1999/xlink" x="0px" y="0px"
	 viewBox="0 0 69.67 37.28" style="enable-background:new 0 0 69.67 37.28;" xml:space="preserve">
<style type="text/css">
	.st0{fill:url(#SVGID_1_);}
	.st1{fill:url(#SVGID_2_);}
	.st2{fill:url(#SVGID_3_);}
</style>
<g>
	<linearGradient id="SVGID_1_" gradientUnits="userSpaceOnUse" x1="3.8194" y1="18.9667" x2="65.8503" y2="18.9667">
		<stop  offset="0" style="stop-color:#E0091A"/>
		<stop  offset="0.9995" style="stop-color:#92172C"/>
	</linearGradient>
	<path class="st0" d="M38.68,2.22c7.19,0,14.38,0,21.57,0c2.78,0,4.83,1.55,5.45,4.08c0.12,0.49,0.15,0.98,0.15,1.48
		c0,6.69,0.01,13.38,0,20.08c0,1.7-0.79,2.78-2.29,3.21c-0.31,0.09-0.61,0.09-0.92,0.09c-1.6,0-3.19,0.01-4.79,0
		c-0.39,0-0.57,0.09-0.67,0.51c-0.63,2.42-2.72,4.04-5.17,4.05c-2.43,0.01-4.57-1.63-5.19-4.03c-0.12-0.45-0.31-0.53-0.72-0.53
		c-7.31,0.01-14.63,0.01-21.94,0c-0.45,0-0.63,0.12-0.75,0.57c-0.66,2.4-2.73,3.99-5.15,4c-2.44,0.01-4.53-1.6-5.18-4.04
		c-0.12-0.43-0.3-0.54-0.72-0.53c-1.93,0.02-3.85,0.01-5.78,0.01c-1.64,0-2.46-0.79-2.58-2.44c-0.34-4.82-0.2-9.6,0.88-14.33
		c0.52-2.27,1.28-4.45,2.49-6.46c2.27-3.78,5.58-5.71,10.01-5.71c6.07,0,12.14,0,18.21,0C36.61,2.22,37.64,2.22,38.68,2.22z
		 M33.04,20.87C33.04,20.87,33.04,20.87,33.04,20.87c-5.95,0-11.89,0-17.84,0c-2.98,0-5.97,0-8.95,0c-0.89,0-0.89,0-0.91,0.86
		c-0.07,2.3-0.09,4.6,0.11,6.9c0.07,0.86,0.25,1.06,1.09,1.06c1.93,0,3.85-0.01,5.78,0.01c0.45,0.01,0.63-0.12,0.75-0.57
		c0.65-2.41,2.7-3.96,5.17-3.96c2.46,0,4.51,1.56,5.16,3.97c0.11,0.4,0.24,0.56,0.69,0.56c7.34-0.02,14.67-0.02,22.01,0
		c0.42,0,0.6-0.1,0.71-0.54c0.62-2.39,2.69-3.97,5.15-3.98c2.47-0.01,4.57,1.58,5.2,4c0.11,0.41,0.26,0.53,0.66,0.52
		c1.55-0.02,3.11-0.01,4.66-0.01c1.38,0,1.86-0.49,1.86-1.87c0-3.52,0-7.05,0-10.57c0-0.81,0-0.81-0.79-0.81c-7,0-14.01,0-21.01,0
		c-6.49,0-12.97,0.01-19.46-0.01c-0.53,0-0.74,0.12-0.7,0.68c0.04,0.53,0.06,1.07-0.11,1.6c-0.23,0.68-0.21,0.68,0.54,0.68
		c12.35,0,24.7,0,37.06,0c0.17,0,0.34-0.01,0.5,0.02c0.41,0.08,0.69,0.3,0.68,0.75c-0.01,0.45-0.29,0.67-0.71,0.71
		c-0.23,0.02-0.46,0.01-0.68,0.01C50.78,20.87,41.91,20.87,33.04,20.87z M10.32,19.31c0.14,0.04,0.2,0.07,0.26,0.07
		c3,0,6.01,0,9.01-0.02c0.75-0.01,1.32-0.63,1.33-1.44c0.01-4.58,0-9.16,0.01-13.74c0-0.39-0.15-0.49-0.51-0.49
		c-1.12,0.02-2.24,0-3.36,0.02c-3.08,0.05-5.64,1.23-7.54,3.68c-2.65,3.43-3.48,7.48-3.96,11.66c-0.04,0.31,0.13,0.34,0.36,0.34
		c0.73,0,1.45-0.02,2.18,0.01c0.37,0.01,0.56-0.13,0.73-0.44c0.65-1.18,1.32-2.35,1.98-3.52c0.18-0.32,0.35-0.66,0.56-0.97
		c0.23-0.36,0.59-0.48,0.97-0.29c0.42,0.22,0.48,0.6,0.3,1.01c-0.08,0.19-0.2,0.36-0.3,0.54C11.67,16.91,11.02,18.08,10.32,19.31z
		 M28.96,3.7c-1.97,0-3.94,0.02-5.9-0.01c-0.5-0.01-0.68,0.13-0.67,0.65c0.02,3.31,0.02,6.63,0,9.94c0,0.51,0.13,0.67,0.66,0.67
		c3.92-0.02,7.83-0.02,11.75,0c0.47,0,0.65-0.11,0.64-0.62c-0.02-3.34-0.02-6.67,0-10.01c0-0.48-0.13-0.64-0.63-0.64
		C32.86,3.71,30.91,3.7,28.96,3.7z M43.36,14.94c1.99,0,3.98-0.01,5.96,0.01c0.41,0,0.58-0.08,0.58-0.54
		c-0.02-3.4-0.02-6.79,0-10.19c0-0.41-0.12-0.53-0.53-0.53c-3.98,0.01-7.95,0.01-11.93,0c-0.44,0-0.55,0.15-0.55,0.57
		c0.01,3.37,0.01,6.75,0,10.12c0,0.44,0.13,0.57,0.56,0.56C39.42,14.93,41.39,14.94,43.36,14.94z M57.85,14.94c1.91,0,3.81,0,5.72,0
		c0.79,0,0.79,0,0.79-0.82c0-2.11-0.07-4.23,0.02-6.34c0.1-2.36-1.71-4.13-4.06-4.1c-2.77,0.04-5.55,0.02-8.33,0
		c-0.46,0-0.65,0.09-0.64,0.61c0.02,3.36,0.02,6.71,0,10.07c0,0.48,0.15,0.59,0.6,0.59C53.91,14.93,55.88,14.94,57.85,14.94z
		 M18.23,26.65c-2.18,0-3.87,1.65-3.87,3.77c0,2.13,1.74,3.84,3.91,3.81c2.14-0.02,3.87-1.74,3.85-3.82
		C22.1,28.3,20.39,26.65,18.23,26.65z M51.99,26.65c-2.17,0-3.88,1.65-3.88,3.76c-0.01,2.13,1.74,3.85,3.9,3.83
		c2.15-0.02,3.85-1.7,3.85-3.81C55.86,28.3,54.17,26.65,51.99,26.65z"/>
	<linearGradient id="SVGID_2_" gradientUnits="userSpaceOnUse" x1="16.8965" y1="30.4239" x2="19.5931" y2="30.4239">
		<stop  offset="0" style="stop-color:#E0091A"/>
		<stop  offset="0.9995" style="stop-color:#92172C"/>
	</linearGradient>
	<path class="st1" d="M18.27,29.07c0.71,0.02,1.35,0.69,1.33,1.39c-0.02,0.73-0.65,1.33-1.39,1.31c-0.74-0.01-1.33-0.63-1.31-1.37
		C16.91,29.66,17.55,29.05,18.27,29.07z"/>
	<linearGradient id="SVGID_3_" gradientUnits="userSpaceOnUse" x1="50.634" y1="30.424" x2="53.3361" y2="30.424">
		<stop  offset="0" style="stop-color:#E0091A"/>
		<stop  offset="0.9995" style="stop-color:#92172C"/>
	</linearGradient>
	<path class="st2" d="M52,29.07c0.71,0.01,1.33,0.65,1.33,1.36c0,0.75-0.64,1.37-1.4,1.34c-0.73-0.02-1.33-0.65-1.3-1.37
		C50.66,29.68,51.29,29.06,52,29.07z"/>
</g>
</svg>
