<?xml version="1.0" encoding="utf-8"?>
<!-- Generator: Adobe Illustrator 24.1.0, SVG Export Plug-In . SVG Version: 6.00 Build 0)  -->
<svg version="1.1" id="Layer_1" xmlns="http://www.w3.org/2000/svg" xmlns:xlink="http://www.w3.org/1999/xlink" x="0px" y="0px"
	 viewBox="0 0 69.67 37.28" style="enable-background:new 0 0 69.67 37.28;" xml:space="preserve">
<style type="text/css">
	.st0{fill:#202020;}
</style>
<g>
	<path class="st0" d="M8.27,24.04c0.34,1.76,0.88,3.45,1.61,5.07c0.57,1.27,1.57,1.96,2.99,2c0.59,0.01,1.19,0.03,1.78-0.01
		c0.43-0.02,0.61,0.14,0.73,0.54c0.63,2.12,2.4,3.43,4.56,3.41c2.02-0.02,3.81-1.36,4.37-3.33c0.14-0.49,0.36-0.62,0.85-0.62
		c7.19,0.02,14.39,0.02,21.58,0c0.52,0,0.78,0.1,0.95,0.66c0.58,2,2.42,3.31,4.47,3.29c2.11-0.03,3.89-1.36,4.46-3.39
		c0.1-0.37,0.21-0.59,0.64-0.56c2.01,0.14,4.29-1.51,4.29-4.39c-0.01-5.6,0-11.19-0.01-16.79c0-1.21,0.1-2.42-0.05-3.62
		c-0.26-2.07-1.79-3.42-3.88-3.43c-4.96-0.01-9.92,0-14.88,0c-4.82,0-9.63,0.02-14.45-0.01c-1.15-0.01-2.13,0.35-3.03,0.99
		c-1.44,1.02-2.57,2.35-3.61,3.75c-1.86,2.5-4.03,4.75-6.06,7.1c-0.37,0.43-0.97,0.67-1.48,0.98c-1.52,0.94-2.93,2.02-4.29,3.18
		C8.13,20.29,7.88,22.04,8.27,24.04z M20.48,12.23c1.69,0.08,3.4,0.04,5.09,0.02c0.46-0.01,0.66,0.09,0.64,0.6
		c-0.04,0.94-0.04,1.88,0,2.82c0.02,0.5-0.17,0.62-0.64,0.61c-2.37-0.02-4.75-0.01-7.12-0.01c-0.71,0-1.42,0-2.31,0
		c1.09-1.25,2.07-2.34,3.02-3.46C19.52,12.39,19.86,12.2,20.48,12.23z M48.94,30.39c0.01-1.76,1.48-3.22,3.21-3.21
		c1.69,0.01,3.18,1.51,3.19,3.19c0.01,1.74-1.54,3.27-3.27,3.24C50.36,33.58,48.93,32.1,48.94,30.39z M16.66,30.41
		c0-1.75,1.43-3.2,3.19-3.23c1.69-0.03,3.18,1.46,3.18,3.17c0,1.77-1.41,3.24-3.15,3.26C18.17,33.64,16.67,32.15,16.66,30.41z
		 M10.5,22.49c0.18,0,0.37,0,0.55,0c0.88,0,0.85,0,0.87-0.85c0.01-0.52-0.17-0.71-0.67-0.65c-0.18,0.02-0.37,0.02-0.55-0.01
		c-0.21-0.03-0.52,0.13-0.61-0.12c-0.08-0.22,0.21-0.37,0.36-0.52c0.88-0.92,1.9-1.68,2.94-2.41c0.25-0.18,0.53-0.2,0.82-0.2
		c1.78,0,3.57,0.01,5.35,0.01c2.17,0,4.35,0,6.52-0.01c1.03-0.01,1.55-0.53,1.57-1.54c0.02-1.23,0.01-2.46,0-3.69
		c-0.01-1.17-0.56-1.72-1.73-1.73c-1.31-0.01-2.62,0-3.94-0.01c-0.27,0-0.56,0.06-0.87-0.07c0.46-0.59,0.89-1.12,1.3-1.68
		c0.88-1.21,1.83-2.36,2.95-3.37c0.91-0.82,1.9-1.33,3.2-1.26c1.76,0.1,3.52,0.02,5.29,0.02c7.87,0,15.74,0,23.61,0
		c1.66,0,2.56,0.9,2.56,2.54c0,6.66,0,13.32,0,19.99c0,1.51-1.07,2.64-2.57,2.77c-0.46,0.04-0.72-0.05-0.87-0.59
		c-0.56-2-2.4-3.36-4.42-3.35c-2.15,0.01-3.96,1.33-4.52,3.38c-0.13,0.46-0.33,0.57-0.76,0.56c-7.19-0.01-14.39-0.01-21.58,0.01
		c-0.57,0-0.85-0.12-1.03-0.73c-0.51-1.75-2.19-3.09-3.9-3.21c-2.05-0.15-4.03,0.77-4.66,2.59c-0.46,1.32-1.18,1.47-2.29,1.34
		c-0.14-0.02-0.29,0-0.43,0c-0.77-0.02-1.33-0.38-1.68-1.05c-0.17-0.33-0.29-0.68-0.44-1.01c-0.02-0.04-0.04-0.08-0.05-0.12
		c-0.05-0.11-0.09-0.22-0.13-0.33c-0.1-0.23-0.23-0.44-0.3-0.69c-0.02-0.07-0.03-0.15-0.05-0.22c-0.01-0.03-0.03-0.06-0.04-0.09
		c0-0.01,0-0.01-0.01-0.02c-0.02-0.05-0.03-0.11-0.03-0.16c-0.3-0.88-0.51-1.73-0.61-2.61C9.57,22.49,9.58,22.49,10.5,22.49z"/>
	<path class="st0" d="M43.82,10.76c1.02,0,2.05,0,3.07,0c3.26,0,6.52,0,9.78,0c1.1,0,1.7,0.62,1.7,1.71c0,1.21,0,2.42,0,3.63
		c0,1.05-0.52,1.63-1.55,1.64c-3.54,0.03-7.09,0.02-10.63,0.04c-2.09,0.01-4.18-0.02-6.27-0.03c-2.95-0.02-5.9,0-8.85-0.01
		c-1.21,0-1.69-0.51-1.69-1.73c0-1.11,0-2.21-0.01-3.32c-0.01-1.4,0.5-1.92,1.92-1.92C35.46,10.76,39.64,10.76,43.82,10.76
		C43.82,10.76,43.82,10.76,43.82,10.76z M45.3,16.29c0.41,0.01,0.59-0.1,0.58-0.55c-0.03-0.98-0.02-1.96,0-2.95
		c0.01-0.38-0.11-0.55-0.52-0.54c-2.05,0.02-4.09,0.02-6.14,0c-0.38,0-0.55,0.1-0.54,0.52c0.02,1,0.03,2.01,0,3.01
		c-0.01,0.42,0.17,0.51,0.55,0.51c1.02-0.02,2.05-0.01,3.07-0.01c0,0,0,0,0,0C43.3,16.28,44.3,16.27,45.3,16.29z M31.33,12.26
		c-0.35-0.01-0.53,0.07-0.52,0.47c0.02,1.02,0.02,2.05,0,3.07c-0.01,0.38,0.14,0.5,0.5,0.49c1.82-0.01,3.64-0.01,5.46,0
		c0.35,0,0.46-0.14,0.46-0.47c-0.01-1.02-0.02-2.05,0-3.07c0.01-0.37-0.14-0.5-0.51-0.49c-0.9,0.02-1.8,0.01-2.7,0.01
		C33.13,12.26,32.23,12.28,31.33,12.26z M53.27,16.29c0.38,0.01,0.5-0.13,0.49-0.5c-0.02-1-0.02-2.01,0-3.01
		c0.01-0.41-0.15-0.53-0.54-0.53c-1.78,0.01-3.56,0.01-5.35,0c-0.38,0-0.5,0.13-0.49,0.5c0.02,1,0.02,2.01,0,3.01
		c-0.01,0.4,0.13,0.54,0.53,0.53c0.9-0.02,1.8-0.01,2.7-0.01c0,0,0,0,0,0C51.51,16.29,52.39,16.27,53.27,16.29z M55.2,15.82
		c-0.01,0.34,0.14,0.45,0.48,0.47c1.22,0.06,1.22,0.07,1.23-1.12c0.01-0.8-0.02-1.6,0-2.39c0.01-0.4-0.14-0.54-0.54-0.52
		c-1.27,0.05-1.18-0.24-1.18,1.17c0,0.29,0,0.57,0,0.86C55.21,14.8,55.21,15.31,55.2,15.82z"/>
	<path class="st0" d="M50.93,30.42c-0.01-0.69,0.49-1.21,1.18-1.21c0.68-0.01,1.21,0.5,1.21,1.18c0.01,0.69-0.49,1.21-1.18,1.21
		C51.46,31.6,50.93,31.09,50.93,30.42z"/>
	<path class="st0" d="M19.87,29.2c0.67,0.01,1.21,0.55,1.2,1.21c-0.01,0.67-0.55,1.19-1.22,1.18c-0.69,0-1.17-0.51-1.17-1.21
		C18.68,29.68,19.17,29.19,19.87,29.2z"/>
</g>
</svg>
