<?xml version="1.0" encoding="utf-8"?>
<!-- Generator: Adobe Illustrator 24.1.0, SVG Export Plug-In . SVG Version: 6.00 Build 0)  -->
<svg version="1.1" id="Layer_1" xmlns="http://www.w3.org/2000/svg" xmlns:xlink="http://www.w3.org/1999/xlink" x="0px" y="0px"
	 viewBox="0 0 35.39 36.79" style="enable-background:new 0 0 35.39 36.79;" xml:space="preserve">
<style type="text/css">
	.st0{fill:url(#SVGID_1_);}
	.st1{fill:url(#SVGID_2_);}
</style>
<g>
	<linearGradient id="SVGID_1_" gradientUnits="userSpaceOnUse" x1="0.4306" y1="17.893" x2="34.9586" y2="17.893">
		<stop  offset="0" style="stop-color:#E0081B"/>
		<stop  offset="0.9995" style="stop-color:#92172D"/>
	</linearGradient>
	<path class="st0" d="M17.68,35.13c-5.24,0-10.49,0-15.73,0c-1.08,0-1.52-0.43-1.52-1.52c0-0.3-0.01-0.59,0-0.89
		c0.01-0.75,0.52-1.26,1.26-1.27c0.32-0.01,0.64-0.01,0.96,0c0.18,0.01,0.25-0.05,0.25-0.24c-0.01-0.31-0.01-0.62,0-0.93
		c0.01-0.66,0.33-1.1,0.97-1.26c0.23-0.06,0.28-0.15,0.27-0.36c-0.01-0.31-0.01-0.62,0-0.93c0.02-0.59,0.36-1.04,0.93-1.17
		c0.22-0.05,0.31-0.12,0.31-0.37c-0.01-3.5-0.01-6.99,0-10.49c0-0.21-0.04-0.31-0.27-0.36c-0.64-0.16-0.94-0.59-0.97-1.26
		c-0.01-0.38,0.17-0.89-0.08-1.1c-0.22-0.19-0.71-0.05-1.08-0.06c-0.79-0.03-1.29-0.53-1.3-1.32c-0.01-0.48,0.01-0.95,0-1.43
		c-0.02-0.69,0.3-1.16,0.9-1.49c2.2-1.2,4.39-2.41,6.58-3.61c2.5-1.37,5-2.73,7.49-4.12c0.72-0.41,1.37-0.41,2.1-0.01
		c4.66,2.56,9.33,5.1,14,7.63c0.7,0.38,1.04,0.91,0.99,1.71c-0.03,0.45,0,0.9-0.01,1.35c-0.01,0.75-0.53,1.28-1.29,1.3
		c-0.31,0.01-0.62,0.01-0.93,0c-0.21-0.01-0.27,0.07-0.26,0.27c0.01,0.31,0.01,0.62,0,0.93c-0.01,0.63-0.34,1.09-0.95,1.23
		c-0.26,0.06-0.28,0.18-0.28,0.39c0.01,3.48,0.01,6.96,0,10.45c0,0.23,0.05,0.32,0.29,0.38c0.6,0.14,0.92,0.58,0.94,1.2
		c0.01,0.15,0.01,0.31,0,0.46c-0.02,0.42-0.07,0.79,0.54,0.91c0.44,0.09,0.66,0.54,0.69,1.02c0.02,0.32,0.02,0.64,0,0.96
		c-0.02,0.28,0.09,0.35,0.35,0.34c0.31-0.02,0.62-0.01,0.92,0c0.66,0.03,1.16,0.52,1.19,1.18c0.02,0.4,0.01,0.8,0,1.19
		c-0.02,0.8-0.5,1.29-1.31,1.3c-2.13,0.01-4.27,0-6.4,0C24.05,35.14,20.87,35.14,17.68,35.13C17.68,35.14,17.68,35.13,17.68,35.13z
		 M17.7,11.72c3.1,0,6.19,0,9.29,0c1.66,0,3.31,0,4.97,0c0.44,0,0.54-0.11,0.55-0.55c0-0.27-0.01-0.54,0-0.81
		c0.02-0.38-0.15-0.62-0.48-0.8c-4.66-2.53-9.31-5.06-13.97-7.6c-0.27-0.15-0.48-0.14-0.75,0c-4.49,2.48-8.99,4.97-13.5,7.4
		c-0.72,0.39-1.05,0.83-0.95,1.65c0.07,0.62,0.08,0.69,0.73,0.69C8.29,11.72,12.99,11.72,17.7,11.72z M10.28,20.96
		c0,1.73,0,3.47-0.01,5.2c0,0.24,0.04,0.35,0.3,0.41c0.59,0.14,0.92,0.6,0.94,1.21c0.01,0.32,0.01,0.64,0,0.96
		c-0.01,0.18,0.04,0.25,0.24,0.25c0.67-0.01,1.34-0.01,2,0c0.21,0,0.26-0.08,0.26-0.27c-0.01-0.31-0.01-0.62,0-0.92
		c0.01-0.64,0.34-1.09,0.95-1.23c0.26-0.06,0.28-0.17,0.28-0.39c0-3.48,0-6.96,0-10.44c0-0.21-0.02-0.33-0.28-0.39
		c-0.61-0.13-0.94-0.6-0.95-1.23c-0.01-0.3-0.01-0.59,0-0.89c0.01-0.23-0.05-0.32-0.3-0.31c-0.64,0.02-1.28,0.01-1.93,0
		c-0.23,0-0.28,0.09-0.27,0.29c0.01,0.32,0.01,0.64,0,0.96c-0.02,0.59-0.36,1.03-0.93,1.17c-0.27,0.06-0.3,0.18-0.3,0.41
		C10.28,17.49,10.28,19.23,10.28,20.96z M22.62,12.93c0,0.01,0,0.02,0,0.03c-0.4,0-0.91-0.15-1.15,0.04
		c-0.26,0.2-0.07,0.74-0.09,1.14c-0.03,0.64-0.35,1.06-0.97,1.22c-0.19,0.05-0.27,0.1-0.27,0.32c0.01,3.52,0.01,7.04,0,10.56
		c0,0.2,0.06,0.27,0.26,0.32c0.64,0.15,0.96,0.6,0.98,1.26c0.01,0.31,0.01,0.62,0,0.92c0,0.17,0.03,0.26,0.23,0.26
		c0.68-0.01,1.36-0.01,2.04,0c0.17,0,0.23-0.06,0.22-0.22c-0.01-0.31-0.01-0.62,0-0.92c0.01-0.68,0.33-1.12,0.99-1.29
		c0.21-0.05,0.25-0.14,0.25-0.34c-0.01-3.52-0.01-7.04,0-10.56c0-0.19-0.05-0.26-0.24-0.3c-0.56-0.12-0.9-0.48-0.98-1.05
		c-0.03-0.24-0.01-0.49-0.01-0.73c0-0.66,0-0.66-0.64-0.65C23.03,12.93,22.83,12.93,22.62,12.93z M17.68,33.92
		c5.15,0,10.31,0,15.46,0c0.53,0,0.61-0.08,0.61-0.64c0-0.53-0.09-0.62-0.59-0.62c-10.29,0-20.59,0-30.88,0
		c-0.55,0-0.63,0.09-0.63,0.66c0,0.51,0.09,0.59,0.61,0.59C7.4,33.92,12.54,33.92,17.68,33.92z M17.68,31.46c3.22,0,6.45,0,9.67,0
		c1.19,0,2.39-0.01,3.58,0c0.27,0,0.38-0.08,0.34-0.35c-0.01-0.08,0-0.15,0-0.23c0-0.62-0.06-0.68-0.68-0.68
		c-6.82,0-13.64,0-20.47,0c-1.82,0-3.65,0-5.47,0c-0.44,0-0.54,0.11-0.55,0.55c0,0.1,0.01,0.21,0,0.31
		c-0.05,0.31,0.07,0.41,0.39,0.41C8.89,31.45,13.29,31.46,17.68,31.46z M9.07,20.95c0-1.73-0.01-3.47,0.01-5.2
		c0-0.29-0.08-0.37-0.37-0.36c-0.59,0.02-1.18,0.02-1.77,0c-0.28-0.01-0.37,0.06-0.37,0.36c0.02,1.07,0.01,2.13,0.01,3.2
		c0,2.39,0.01,4.78-0.01,7.16c0,0.35,0.1,0.44,0.43,0.42c0.56-0.03,1.13-0.02,1.69,0c0.3,0.01,0.39-0.08,0.38-0.38
		C9.06,24.41,9.07,22.68,9.07,20.95z M18.94,21C18.94,21,18.94,21,18.94,21c0-1.76-0.01-3.52,0-5.28c0-0.24-0.05-0.34-0.31-0.33
		c-0.63,0.02-1.26,0.02-1.89,0c-0.24-0.01-0.3,0.08-0.3,0.31c0.01,3.5,0.01,7.01,0,10.51c0,0.26,0.09,0.32,0.33,0.32
		c0.6-0.01,1.21-0.02,1.81,0c0.29,0.01,0.36-0.09,0.36-0.37C18.93,24.44,18.94,22.72,18.94,21z M26.32,20.96
		C26.32,20.96,26.32,20.96,26.32,20.96c0,1.73,0.01,3.47-0.01,5.2c0,0.28,0.07,0.38,0.36,0.37c0.6-0.02,1.21-0.02,1.81,0
		c0.28,0.01,0.34-0.1,0.33-0.35c-0.02-0.67-0.01-1.34-0.01-2c0-2.8,0-5.6,0.01-8.4c0-0.3-0.07-0.4-0.38-0.39
		c-0.58,0.03-1.16,0.03-1.73,0c-0.34-0.02-0.39,0.11-0.39,0.41C26.33,17.52,26.32,19.24,26.32,20.96z M7.83,12.93
		c-0.62,0-1.23,0-1.85,0c-0.65,0-0.65,0-0.64,0.65c0.01,0.51,0.1,0.6,0.61,0.6c1.14,0,2.28,0,3.43,0c0.94,0,0.95-0.03,0.93-0.98
		c-0.01-0.22-0.08-0.28-0.29-0.28C9.29,12.93,8.56,12.93,7.83,12.93z M17.68,12.93c-0.6,0-1.21,0-1.81,0c-0.67,0-0.67,0-0.66,0.67
		c0,0.48,0.1,0.59,0.58,0.59c1.15,0,2.31,0,3.46,0c0.91,0,0.92-0.02,0.92-0.92c0-0.26-0.07-0.36-0.34-0.35
		C19.12,12.94,18.4,12.93,17.68,12.93z M27.58,12.93c-0.63,0-1.26,0-1.88,0c-0.62,0-0.62,0-0.61,0.64c0,0.53,0.1,0.62,0.63,0.62
		c1.13,0,2.26,0,3.39,0c0.95,0,0.96-0.03,0.95-0.97c0-0.25-0.09-0.3-0.31-0.3C29.02,12.93,28.3,12.93,27.58,12.93z M7.78,28.99
		C7.78,28.99,7.78,28.99,7.78,28.99c0.62,0,1.23,0,1.85,0c0.68,0,0.68,0,0.67-0.66c0-0.5-0.1-0.59-0.62-0.6c-1.13,0-2.26,0-3.39,0
		c-0.97,0-0.99,0.03-0.96,0.99c0.01,0.23,0.08,0.28,0.29,0.27C6.35,28.98,7.07,28.99,7.78,28.99z M17.7,28.99
		C17.7,28.99,17.7,28.99,17.7,28.99c0.6,0,1.21,0,1.81,0c0.66,0,0.66,0,0.66-0.66c0-0.49-0.1-0.59-0.58-0.59c-1.15,0-2.31,0-3.46,0
		c-0.92,0-0.91,0-0.92,0.91c0,0.26,0.06,0.36,0.34,0.35C16.26,28.98,16.98,28.99,17.7,28.99z M27.55,28.99c0.62,0,1.23,0,1.85,0
		c0.65,0,0.65,0,0.65-0.64c0-0.52-0.1-0.62-0.64-0.62c-1.14,0-2.28,0-3.42,0c-0.9,0-0.91,0.02-0.91,0.93c0,0.28,0.1,0.34,0.36,0.33
		C26.14,28.98,26.84,28.99,27.55,28.99z"/>
	<linearGradient id="SVGID_2_" gradientUnits="userSpaceOnUse" x1="14.622" y1="7.3882" x2="20.7646" y2="7.3882">
		<stop  offset="0" style="stop-color:#E0081B"/>
		<stop  offset="0.9995" style="stop-color:#92172D"/>
	</linearGradient>
	<path class="st1" d="M20.76,7.43c-0.01,1.65-1.41,3.04-3.07,3.03c-1.7-0.01-3.08-1.38-3.07-3.06c0-1.74,1.38-3.09,3.13-3.08
		C19.42,4.33,20.77,5.73,20.76,7.43z M19.55,7.4c0.01-1.02-0.85-1.87-1.86-1.87c-1,0-1.85,0.84-1.86,1.83
		c-0.01,1.02,0.83,1.88,1.84,1.89C18.7,9.25,19.55,8.42,19.55,7.4z"/>
</g>
</svg>
