<?xml version="1.0" encoding="utf-8"?>
<!-- Generator: Adobe Illustrator 24.1.0, SVG Export Plug-In . SVG Version: 6.00 Build 0)  -->
<svg version="1.1" id="Layer_1" xmlns="http://www.w3.org/2000/svg" xmlns:xlink="http://www.w3.org/1999/xlink" x="0px" y="0px"
	 viewBox="0 0 36.35 32.94" style="enable-background:new 0 0 36.35 32.94;" xml:space="preserve">
<style type="text/css">
	.st0{fill:url(#SVGID_1_);}
</style>
<g>
	<linearGradient id="SVGID_1_" gradientUnits="userSpaceOnUse" x1="0.8779" y1="16.4708" x2="34.5016" y2="16.4708">
		<stop  offset="0" style="stop-color:#E0081B"/>
		<stop  offset="0.9995" style="stop-color:#92172D"/>
	</linearGradient>
	<path class="st0" d="M0.88,13.26c0.37-0.29,0.82-0.17,1.23-0.25c0.32-0.06,0.65-0.06,0.98-0.09c0.44-0.03,0.81-0.19,1.13-0.52
		c0.55-0.56,1.22-0.8,2.01-0.79c1.7,0.02,3.39,0.01,5.14,0.01c-0.12-0.53-0.24-1.03-0.34-1.54c-0.27-1.39-0.55-2.78-0.73-4.19
		c-0.04-0.3,0.05-0.49,0.36-0.6c1.31-0.48,2.63-0.71,4.01-0.37c0.16,0.04,0.34,0.06,0.46,0.16c0.37,0.27,0.63,0.13,0.97-0.11
		c0.82-0.59,1.77-0.88,2.78-0.97c0.48-0.05,0.48-0.04,0.45-0.51c-0.02-0.37-0.13-0.73-0.23-1.09C18.99,2,19.19,1.7,19.6,1.7
		c1.29-0.01,2.58,0.1,3.81,0.52c0.33,0.11,0.65,0.26,0.93,0.48c0.33,0.26,0.57,0.57,0.6,1.01c0.16,1.89,0.25,3.78-0.23,5.64
		c-0.17,0.65-0.38,1.3-0.58,1.94c-0.07,0.21-0.02,0.27,0.2,0.27c1.64-0.01,3.28-0.01,4.92,0c0.54,0,1.11,0.08,1.48,0.51
		c0.59,0.69,1.34,0.83,2.17,0.86c0.36,0.01,0.72,0.05,1.08,0.11c0.38,0.06,0.52,0.24,0.52,0.63c0,5.13,0,10.27,0,15.4
		c0,0.46-0.16,0.62-0.62,0.66c-0.56,0.05-1.11,0.11-1.67,0.14c-0.5,0.03-0.9,0.23-1.23,0.59c-0.37,0.41-0.82,0.69-1.38,0.75
		c-0.13,0.01-0.26,0.02-0.39,0.02c-7.72,0-15.43,0-23.15,0c-0.56,0-1.11-0.11-1.47-0.53c-0.63-0.76-1.46-0.86-2.35-0.92
		c-0.46-0.03-0.94,0.01-1.36-0.25C0.88,24.11,0.88,18.68,0.88,13.26z M17.71,27.18c3.82,0,7.64,0,11.46,0.01
		c0.27,0,0.35-0.06,0.35-0.34c-0.02-0.72-0.01-1.44-0.01-2.17c0-3.89,0-7.77,0-11.66c0-0.16,0.08-0.35-0.23-0.35
		c-1.72,0.01-3.44,0.01-5.15,0c-0.17,0-0.25,0.05-0.27,0.24c-0.06,0.49-0.17,0.97-0.23,1.46c-0.1,0.83-0.12,1.66-0.08,2.49
		c0.01,0.25,0.08,0.37,0.36,0.34c0.38-0.03,0.77-0.01,1.15-0.01c1.8,0,3.1,1.69,2.63,3.44c-0.33,1.25-1.36,2.02-2.72,2.02
		c-2.59,0-5.19,0-7.78,0c-2.34,0-4.68,0.02-7.03-0.02c-1.45-0.03-2.55-1.31-2.52-2.82c0.03-1.44,1.22-2.62,2.66-2.62
		c0.58,0,1.16-0.01,1.74,0c0.2,0,0.28-0.05,0.29-0.27c0.09-1.36-0.11-2.68-0.49-3.98c-0.07-0.23-0.17-0.32-0.42-0.32
		c-1.71,0.01-3.41,0.01-5.12,0c-0.3,0-0.38,0.07-0.38,0.38c0.01,4.61,0.01,9.21,0,13.82c0,0.3,0.09,0.35,0.37,0.35
		C10.1,27.17,13.91,27.18,17.71,27.18z M16.87,5.66c0.11,0.08,0.22,0.09,0.32,0.11c0.87,0.15,1.74,0.11,2.6-0.09
		c0.22-0.05,0.39-0.01,0.53,0.16c0.13,0.17,0.14,0.35,0.05,0.55c-0.77,1.64-1.33,3.34-1.61,5.13c-0.21,1.32-0.24,2.63,0.24,3.91
		c0.13,0.34,0,0.61-0.3,0.72c-0.29,0.1-0.55-0.02-0.67-0.35c-0.32-0.81-0.43-1.67-0.43-2.54c0-1.48,0.29-2.91,0.73-4.31
		C18.53,8.3,18.77,7.63,19,6.94c-0.11,0-0.19,0-0.28,0c-1.31,0.08-2.54-0.16-3.69-0.81c-0.19-0.11-0.4-0.17-0.61-0.23
		c-0.98-0.27-1.95-0.1-2.91,0.12c-0.19,0.04-0.15,0.17-0.13,0.27c0.06,0.33,0.13,0.66,0.19,1c0.29,1.69,0.58,3.38,1.14,5
		c0.77,2.24,0.91,4.5,0.26,6.79c-0.06,0.21,0.04,0.21,0.19,0.21c3.14,0,6.28,0,9.42,0c0.19,0,0.24-0.05,0.19-0.24
		c-0.24-1.03-0.33-2.07-0.33-3.12c0-1.86,0.27-3.69,0.88-5.44c0.68-2,0.85-4.02,0.64-6.12c-0.05,0.01-0.1,0.02-0.15,0.05
		c-0.54,0.28-1.13,0.39-1.73,0.44c-1.05,0.1-2.1-0.03-3.15,0.11C18.21,5.07,17.51,5.26,16.87,5.66z M4.47,29.11
		c0.21,0.18,0.41,0.34,0.58,0.52c0.35,0.37,0.76,0.5,1.26,0.49c2.09-0.02,4.18-0.01,6.27-0.01c5.53,0,11.05,0,16.58,0
		c0.35,0,0.67-0.05,0.95-0.29c0.21-0.18,0.4-0.37,0.61-0.55c0.12-0.1,0.13-0.18,0.01-0.28c-0.26-0.22-0.51-0.45-0.75-0.68
		c-0.14-0.13-0.28-0.18-0.47-0.18c-0.73,0.01-1.47,0-2.2,0c-7.12,0-14.25,0-21.37,0c-0.14,0-0.29-0.04-0.41,0.07
		C5.18,28.51,4.83,28.8,4.47,29.11z M4.87,13.28c-0.41,0.4-0.84,0.57-1.31,0.63c-0.43,0.05-0.87,0.11-1.31,0.12
		c-0.28,0.01-0.33,0.11-0.33,0.37c0.01,4.54,0.01,9.08,0.01,13.62c0,0.53,0,0.51,0.52,0.48c0.84-0.06,1.64-0.17,2.21-0.9
		c0.13-0.16,0.22-0.3,0.22-0.51c-0.01-2.59,0-5.19,0-7.78C4.87,17.32,4.87,15.35,4.87,13.28z M30.56,13.26c0,0.22,0,0.33,0,0.45
		c0,4.25,0.02,8.49-0.02,12.74c-0.01,0.69,0.13,1.2,0.72,1.57c0.17,0.11,0.28,0.31,0.51,0.34c0.45,0.04,0.89,0.08,1.34,0.15
		c0.31,0.05,0.4-0.04,0.4-0.37c-0.01-4.4-0.01-8.8-0.01-13.2c0-0.91,0-0.89-0.9-0.96C31.9,13.91,31.16,13.94,30.56,13.26z
		 M17.69,21.49c0.48,0,0.96,0,1.44,0c1.95,0,3.89,0.01,5.84-0.01c0.97-0.01,1.63-0.69,1.64-1.63c0.01-0.92-0.71-1.66-1.65-1.69
		c-0.37-0.01-0.74,0-1.12-0.01c-0.19,0-0.29,0.02-0.21,0.25c0.07,0.2,0.12,0.42,0.14,0.64c0.02,0.27,0.16,0.31,0.39,0.3
		c0.31-0.01,0.61-0.01,0.92,0c0.36,0.02,0.58,0.33,0.47,0.67c-0.1,0.31-0.34,0.39-0.64,0.39c-3.21,0-6.41,0-9.62,0
		c-1.63,0-3.26,0-4.89,0c-0.43,0-0.65-0.18-0.66-0.51c-0.01-0.35,0.23-0.54,0.66-0.55c0.15,0,0.31,0,0.46,0c1,0,1,0,1.31-0.96
		c0-0.01,0-0.02,0.01-0.03c0.07-0.13,0.05-0.2-0.12-0.2c-0.65,0.01-1.29-0.01-1.94,0.03c-0.65,0.04-1.27,0.64-1.38,1.27
		c-0.2,1.11,0.55,2.03,1.68,2.03C12.86,21.49,15.27,21.49,17.69,21.49z M23.53,3.44c-0.15-0.13-0.32-0.18-0.48-0.24
		c-0.67-0.23-1.37-0.33-2.08-0.38c-0.21-0.02-0.49-0.16-0.63-0.01c-0.14,0.14,0.03,0.41,0.05,0.62c0.04,0.52,0.05,0.52,0.58,0.52
		c0.26,0,0.52,0,0.79-0.01C22.38,3.9,22.97,3.8,23.53,3.44z"/>
</g>
</svg>
