<?xml version="1.0" encoding="utf-8"?>
<!-- Generator: Adobe Illustrator 24.1.0, SVG Export Plug-In . SVG Version: 6.00 Build 0)  -->
<svg version="1.1" id="Layer_1" xmlns="http://www.w3.org/2000/svg" xmlns:xlink="http://www.w3.org/1999/xlink" x="0px" y="0px"
	 viewBox="0 0 19.15 18.47" style="enable-background:new 0 0 19.15 18.47;" xml:space="preserve">
<style type="text/css">
	.st0{fill:#8A8888;}
</style>
<g id="Layer_1_1_">
</g>
<g id="_x32_36-odnoklassniki">
	<g>
		<path class="st0" d="M13.48,11.94c-0.94,0.6-2.24,0.84-3.1,0.93l0.72,0.71l2.63,2.63c0.96,0.98-0.6,2.52-1.57,1.57
			c-0.66-0.67-1.62-1.63-2.63-2.64L6.9,17.77c-0.97,0.95-2.53-0.61-1.56-1.57c0.67-0.67,1.62-1.63,2.63-2.63l0.71-0.71
			c-0.85-0.09-2.17-0.31-3.12-0.93c-1.12-0.72-1.61-1.15-1.18-2.03c0.25-0.5,0.95-0.93,1.88-0.2c0,0,1.25,0.99,3.27,0.99
			S12.8,9.7,12.8,9.7c0.93-0.73,1.62-0.31,1.88,0.2C15.09,10.79,14.6,11.21,13.48,11.94L13.48,11.94z M5.05,4.9
			c0-2.47,2.01-4.46,4.46-4.46s4.46,2,4.46,4.46s-2.01,4.45-4.46,4.45S5.05,7.36,5.05,4.9L5.05,4.9z M7.32,4.9
			c0,1.21,0.98,2.19,2.19,2.19S11.7,6.11,11.7,4.9c0-1.22-0.98-2.2-2.19-2.2S7.32,3.68,7.32,4.9z"/>
	</g>
</g>
</svg>
