<?xml version="1.0" encoding="utf-8"?>
<!-- Generator: Adobe Illustrator 24.1.0, SVG Export Plug-In . SVG Version: 6.00 Build 0)  -->
<svg version="1.1" id="Layer_1" xmlns="http://www.w3.org/2000/svg" xmlns:xlink="http://www.w3.org/1999/xlink" x="0px" y="0px"
	 viewBox="0 0 45.35 43.95" style="enable-background:new 0 0 45.35 43.95;" xml:space="preserve">
<style type="text/css">
	.st0{fill:#FFFFFF;}
</style>
<g id="XMLID_2175_">
	<g id="XMLID_438_">
		<g id="XMLID_448_">
			<g id="XMLID_449_">
				<path id="XMLID_452_" class="st0" d="M37.89,9.69H32.8c-1.63,0-2.95-1.33-2.95-2.98V1.58"/>
				<g id="XMLID_450_">
					<path id="XMLID_451_" class="st0" d="M35.04,43.03H9.27c-1.91,0-3.46-1.55-3.46-3.46v-9.49h1.22v9.49c0,1.24,1,2.24,2.24,2.24
						h25.76c1.24,0,2.24-1,2.24-2.24V9.6L30.2,2.19H9.27c-1.24,0-2.24,1-2.24,2.24v9.82H5.81V4.44c0-1.91,1.55-3.46,3.46-3.46h21.45
						l7.78,8.14v30.46C38.5,41.47,36.95,43.03,35.04,43.03z"/>
				</g>
			</g>
		</g>
		<g id="XMLID_444_">
			<path id="XMLID_445_" class="st0" d="M42.52,38.73H18.17c-1.13,0-2.05-0.92-2.05-2.05v-8.92c0-1.13,0.92-2.05,2.05-2.05h24.34
				c1.13,0,2.05,0.92,2.05,2.05v8.92C44.57,37.81,43.64,38.73,42.52,38.73z M18.17,26.94c-0.46,0-0.83,0.38-0.83,0.83v8.92
				c0,0.46,0.38,0.83,0.83,0.83h24.34c0.46,0,0.83-0.38,0.83-0.83v-8.92c0-0.46-0.38-0.83-0.83-0.83H18.17z"/>
		</g>
		<rect id="XMLID_443_" x="37.89" y="26.33" class="st0" width="5.73" height="11.27"/>
		<g id="XMLID_439_">
			<path id="XMLID_442_" class="st0" d="M9.83,15.1v-0.86c0-0.23-0.18-0.41-0.41-0.41h-6c-0.23,0-0.41,0.18-0.41,0.41v0.86H9.83z"/>
			<rect id="XMLID_441_" x="3.01" y="16.03" class="st0" width="6.82" height="0.53"/>
			<path id="XMLID_440_" class="st0" d="M11.49,24.08h-1.25c-0.23,0-0.41-0.18-0.41-0.41v-5.41H3.01v5.41
				c0,0.23-0.18,0.41-0.41,0.41H1.35c-0.33,0-0.52,0.37-0.33,0.64l5.07,7.34c0.17,0.24,0.51,0.24,0.67,0l5.07-7.34
				C12.01,24.44,11.82,24.08,11.49,24.08z"/>
		</g>
	</g>
	<g id="XMLID_2652_">
		<path id="XMLID_2658_" class="st0" d="M20.51,32.96v2.31h-1.02v-6.11h2.34c0.67,0,1.2,0.17,1.58,0.52
			c0.38,0.35,0.58,0.8,0.58,1.37c0,0.58-0.19,1.03-0.58,1.38c-0.38,0.35-0.91,0.51-1.58,0.51L20.51,32.96L20.51,32.96z M20.51,32.15
			h1.32c0.38,0,0.66-0.1,0.86-0.31c0.19-0.2,0.29-0.45,0.29-0.77c0-0.31-0.1-0.57-0.29-0.78c-0.19-0.21-0.47-0.31-0.86-0.31h-1.32
			L20.51,32.15L20.51,32.15z"/>
		<path id="XMLID_2655_" class="st0" d="M25.21,35.28v-6.11h2.02c0.78,0,1.4,0.24,1.89,0.72c0.49,0.48,0.72,1.11,0.72,1.87v0.92
			c0,0.77-0.24,1.39-0.72,1.87c-0.49,0.48-1.12,0.72-1.89,0.72L25.21,35.28L25.21,35.28z M26.23,29.99v4.48h0.99
			c0.49,0,0.88-0.17,1.17-0.5s0.44-0.76,0.44-1.27v-0.93c0-0.51-0.15-0.93-0.44-1.27c-0.29-0.33-0.68-0.5-1.17-0.5L26.23,29.99
			L26.23,29.99z"/>
		<path id="XMLID_2653_" class="st0" d="M34.71,32.67h-2.46v2.61h-1.02v-6.11h3.91v0.82h-2.89v1.87h2.46V32.67z"/>
	</g>
</g>
</svg>
