<?xml version="1.0" encoding="utf-8"?>
<!-- Generator: Adobe Illustrator 24.1.0, SVG Export Plug-In . SVG Version: 6.00 Build 0)  -->
<svg version="1.1" id="Layer_1" xmlns="http://www.w3.org/2000/svg" xmlns:xlink="http://www.w3.org/1999/xlink" x="0px" y="0px"
	 viewBox="0 0 34.37 39.15" style="enable-background:new 0 0 34.37 39.15;" xml:space="preserve">
<style type="text/css">
	.st0{fill:url(#SVGID_1_);}
	.st1{fill:url(#SVGID_2_);}
	.st2{fill:url(#SVGID_3_);}
	.st3{fill:url(#SVGID_4_);}
	.st4{fill:url(#SVGID_5_);}
	.st5{fill:url(#SVGID_6_);}
	.st6{fill:url(#SVGID_7_);}
	.st7{fill:url(#SVGID_8_);}
	.st8{fill:url(#SVGID_9_);}
	.st9{fill:url(#SVGID_10_);}
</style>
<g>
	<linearGradient id="SVGID_1_" gradientUnits="userSpaceOnUse" x1="1.0589" y1="19.6989" x2="29.2817" y2="19.6989">
		<stop  offset="0" style="stop-color:#E0081C"/>
		<stop  offset="0.9995" style="stop-color:#92172F"/>
	</linearGradient>
	<path class="st0" d="M1.07,19.67c0-6.03,0-12.06-0.01-18.09c0-0.37,0.1-0.46,0.46-0.46c6.88,0.01,13.76,0.01,20.65,0
		c0.23,0,0.4,0.04,0.56,0.22c2.13,2.35,4.26,4.7,6.4,7.05c0.11,0.12,0.15,0.24,0.15,0.4c0,1-0.01,2,0,3c0,0.28-0.09,0.36-0.37,0.36
		c-0.95,0.01-0.95,0.02-0.94-0.94c0-0.45-0.02-0.91,0.01-1.36c0.02-0.31-0.08-0.4-0.4-0.4c-1.72,0.02-3.44,0.01-5.16,0.01
		c-0.66,0-0.85-0.18-0.85-0.86c0-1.92-0.01-3.84,0.01-5.76c0-0.32-0.06-0.43-0.41-0.43c-6.11,0.01-12.22,0.01-18.33,0
		c-0.39,0-0.48,0.09-0.48,0.48c0.01,11.19,0.01,22.38,0.01,33.57c0,0.62-0.07,0.54,0.52,0.54c8.2,0,16.41,0,24.61,0.01
		c0.4,0,0.48-0.12,0.47-0.49c-0.01-4.11-0.01-8.22-0.01-12.32c0-0.69-0.09-0.6,0.59-0.61c0.71-0.01,0.71,0,0.71,0.68
		c0,4.55,0,9.1,0.01,13.64c0,0.3-0.08,0.37-0.38,0.37c-9.15-0.01-18.3-0.01-27.45,0c-0.38,0-0.39-0.16-0.39-0.45
		C1.07,31.78,1.07,25.72,1.07,19.67C1.07,19.67,1.07,19.67,1.07,19.67z M27.14,8.17c-1.44-1.59-2.82-3.1-4.27-4.69
		c0,1.58,0,3.05,0,4.52c0,0.15,0.08,0.17,0.2,0.17C24.4,8.17,25.72,8.17,27.14,8.17z"/>
	<linearGradient id="SVGID_2_" gradientUnits="userSpaceOnUse" x1="13.4135" y1="22.8002" x2="33.7584" y2="22.8002">
		<stop  offset="0" style="stop-color:#E0081C"/>
		<stop  offset="0.9995" style="stop-color:#92172F"/>
	</linearGradient>
	<path class="st1" d="M33.76,16.37c0,0.53-0.16,0.95-0.51,1.3c-4.5,4.5-9,9-13.49,13.51c-0.28,0.28-0.62,0.28-0.95,0.35
		c-1.13,0.24-2.26,0.47-3.4,0.67c-0.43,0.07-0.66,0.37-0.92,0.64c-0.16,0.17-0.27,0.21-0.44,0.01c-0.2-0.24-0.58-0.44-0.62-0.7
		c-0.05-0.25,0.37-0.43,0.57-0.66c0.1-0.12,0.15-0.24,0.18-0.39c0.26-1.34,0.53-2.69,0.8-4.03c0.04-0.18,0.13-0.31,0.26-0.44
		c4.5-4.5,8.99-9.01,13.49-13.51c0.7-0.7,1.95-0.7,2.8,0.05c0.6,0.52,1.16,1.11,1.7,1.7C33.59,15.3,33.73,15.84,33.76,16.37z
		 M20.42,28.76c0.12-0.16,0.18-0.28,0.28-0.37c3.07-3.08,6.14-6.15,9.21-9.23c0.62-0.62,0.6-0.61,0-1.23
		c-0.22-0.23-0.34-0.2-0.55,0.01c-2.86,2.87-5.73,5.74-8.59,8.6c-0.63,0.63-0.62,0.62-1.26,0.02c-0.26-0.24-0.25-0.37,0-0.62
		c2.88-2.86,5.74-5.73,8.61-8.59c0.61-0.61,0.6-0.6,0-1.23c-0.22-0.23-0.34-0.25-0.58-0.01c-3.17,3.2-6.36,6.39-9.54,9.58
		c-0.09,0.09-0.22,0.16-0.24,0.33c0.24,0.02,0.53-0.04,0.7,0.07c0.22,0.15,0.07,0.47,0.09,0.71c0.02,0.33-0.11,0.77,0.06,0.97
		c0.19,0.24,0.65,0.08,0.99,0.08c0.71,0.01,0.71,0,0.76,0.72C20.34,28.6,20.35,28.62,20.42,28.76z M30.03,13.84
		c-0.15-0.02-0.28,0.07-0.4,0.19c-0.22,0.23-0.44,0.46-0.68,0.67c-0.18,0.16-0.18,0.27,0,0.44c0.59,0.56,1.15,1.14,1.73,1.72
		c0.24,0.24,0.48,0.65,0.75,0.67c0.31,0.03,0.52-0.43,0.78-0.67c0.44-0.42,0.46-0.67,0.05-1.12c-0.53-0.56-1.08-1.1-1.63-1.64
		C30.47,13.96,30.28,13.85,30.03,13.84z M17.21,28.27c0-0.17,0.01-0.35,0-0.52c-0.01-0.15,0.1-0.41-0.2-0.37
		c-0.28,0.04-0.71-0.21-0.82,0.24c-0.23,0.98-0.4,1.98-0.6,2.97c-0.04,0.21,0.04,0.26,0.23,0.22c0.96-0.2,1.92-0.4,2.89-0.59
		c0.24-0.05,0.33-0.16,0.33-0.4c-0.02-0.8,0.07-0.63-0.62-0.65c-0.11,0-0.21,0-0.32,0C17.21,29.17,17.21,29.17,17.21,28.27z"/>
	<linearGradient id="SVGID_3_" gradientUnits="userSpaceOnUse" x1="3.6201" y1="13.2971" x2="26.7228" y2="13.2971">
		<stop  offset="0" style="stop-color:#E0081C"/>
		<stop  offset="0.9995" style="stop-color:#92172F"/>
	</linearGradient>
	<path class="st2" d="M15.19,13.94c-3.71,0-7.41-0.01-11.12,0.01c-0.38,0-0.46-0.12-0.45-0.47c0.01-0.83,0-0.82,0.81-0.82
		c7.25,0,14.5,0.01,21.76-0.01c0.4,0,0.55,0.07,0.53,0.51c-0.04,0.78-0.01,0.78-0.81,0.78C22.34,13.94,18.77,13.94,15.19,13.94z"/>
	<linearGradient id="SVGID_4_" gradientUnits="userSpaceOnUse" x1="3.618" y1="17.1387" x2="22.8762" y2="17.1387">
		<stop  offset="0" style="stop-color:#E0081C"/>
		<stop  offset="0.9995" style="stop-color:#92172F"/>
	</linearGradient>
	<path class="st3" d="M13.27,17.78c-3.05,0-6.11-0.01-9.16,0.01c-0.37,0-0.51-0.06-0.5-0.47c0.03-0.82,0.01-0.82,0.85-0.82
		c5.99,0,11.97,0,17.96-0.01c0.38,0,0.46,0.11,0.45,0.46c-0.03,0.82-0.01,0.83-0.84,0.83C19.11,17.78,16.19,17.78,13.27,17.78
		C13.27,17.78,13.27,17.78,13.27,17.78z"/>
	<linearGradient id="SVGID_5_" gradientUnits="userSpaceOnUse" x1="3.6217" y1="5.6116" x2="20.3137" y2="5.6116">
		<stop  offset="0" style="stop-color:#E0081C"/>
		<stop  offset="0.9995" style="stop-color:#92172F"/>
	</linearGradient>
	<path class="st4" d="M11.95,6.25c-2.64,0-5.28-0.01-7.92,0.01c-0.34,0-0.42-0.1-0.41-0.43c0.02-0.86,0-0.86,0.85-0.86
		c5.15,0,10.29,0,15.44-0.01c0.35,0,0.41,0.11,0.41,0.43c-0.02,0.86,0,0.86-0.88,0.86C16.94,6.25,14.45,6.25,11.95,6.25z"/>
	<linearGradient id="SVGID_6_" gradientUnits="userSpaceOnUse" x1="3.6215" y1="9.4536" x2="20.3162" y2="9.4536">
		<stop  offset="0" style="stop-color:#E0081C"/>
		<stop  offset="0.9995" style="stop-color:#92172F"/>
	</linearGradient>
	<path class="st5" d="M11.99,10.09c-2.65,0-5.3-0.01-7.96,0.01c-0.34,0-0.42-0.1-0.41-0.42c0.02-0.86,0-0.86,0.89-0.86
		c5.12,0,10.24,0,15.35-0.01c0.38,0,0.46,0.12,0.45,0.47c-0.02,0.83,0,0.83-0.85,0.83C16.98,10.09,14.49,10.1,11.99,10.09
		C11.99,10.1,11.99,10.09,11.99,10.09z"/>
	<linearGradient id="SVGID_7_" gradientUnits="userSpaceOnUse" x1="3.6192" y1="20.98" x2="19.0341" y2="20.98">
		<stop  offset="0" style="stop-color:#E0081C"/>
		<stop  offset="0.9995" style="stop-color:#92172F"/>
	</linearGradient>
	<path class="st6" d="M11.31,21.62c-2.43,0-4.85-0.01-7.28,0.01c-0.3,0-0.41-0.06-0.41-0.39c0.02-0.89,0-0.9,0.9-0.9
		c4.7,0,9.41,0,14.11-0.01c0.31,0,0.41,0.06,0.4,0.39c-0.02,0.89,0,0.9-0.89,0.9C15.86,21.62,13.58,21.62,11.31,21.62z"/>
	<linearGradient id="SVGID_8_" gradientUnits="userSpaceOnUse" x1="3.6217" y1="24.8232" x2="15.1952" y2="24.8232">
		<stop  offset="0" style="stop-color:#E0081C"/>
		<stop  offset="0.9995" style="stop-color:#92172F"/>
	</linearGradient>
	<path class="st7" d="M9.43,25.46c-1.8,0-3.6-0.01-5.4,0.01c-0.34,0-0.42-0.1-0.41-0.43c0.02-0.86,0-0.86,0.85-0.86
		c3.42,0,6.85,0,10.27-0.01c0.33,0,0.47,0.04,0.45,0.42c-0.03,0.86-0.01,0.86-0.89,0.86C12.68,25.46,11.06,25.46,9.43,25.46z"/>
	<linearGradient id="SVGID_9_" gradientUnits="userSpaceOnUse" x1="3.6215" y1="28.664" x2="13.2698" y2="28.664">
		<stop  offset="0" style="stop-color:#E0081C"/>
		<stop  offset="0.9995" style="stop-color:#92172F"/>
	</linearGradient>
	<path class="st8" d="M8.42,28.02c1.49,0,2.98,0.01,4.48-0.01c0.26,0,0.37,0.05,0.37,0.34c0,0.94,0.01,0.94-0.92,0.94
		c-2.77,0-5.54-0.01-8.31,0.01c-0.34,0-0.42-0.1-0.41-0.42c0.02-0.86,0-0.86,0.89-0.86C5.81,28.02,7.12,28.02,8.42,28.02
		C8.42,28.02,8.42,28.02,8.42,28.02z"/>
	<linearGradient id="SVGID_10_" gradientUnits="userSpaceOnUse" x1="3.6206" y1="32.5054" x2="13.2718" y2="32.5054">
		<stop  offset="0" style="stop-color:#E0081C"/>
		<stop  offset="0.9995" style="stop-color:#92172F"/>
	</linearGradient>
	<path class="st9" d="M8.42,33.15c-1.48,0-2.96-0.01-4.44,0.01c-0.27,0-0.36-0.07-0.37-0.35c-0.01-0.94-0.02-0.94,0.94-0.94
		c2.77,0,5.54,0.01,8.31,0c0.31,0,0.41,0.07,0.4,0.39c-0.01,0.9,0,0.9-0.89,0.9C11.06,33.14,9.74,33.15,8.42,33.15z"/>
</g>
</svg>
