<?xml version="1.0" encoding="utf-8"?>
<!-- Generator: Adobe Illustrator 24.1.0, SVG Export Plug-In . SVG Version: 6.00 Build 0)  -->
<svg version="1.1" id="Layer_1" xmlns="http://www.w3.org/2000/svg" xmlns:xlink="http://www.w3.org/1999/xlink" x="0px" y="0px"
	 viewBox="0 0 25.8 26.6" style="enable-background:new 0 0 25.8 26.6;" xml:space="preserve">
<style type="text/css">
	.st0{fill:none;stroke:url(#SVGID_1_);stroke-miterlimit:10;}
</style>
<linearGradient id="SVGID_1_" gradientUnits="userSpaceOnUse" x1="0.9526" y1="13.1641" x2="25.0737" y2="13.1641">
	<stop  offset="0" style="stop-color:#E0081C"/>
	<stop  offset="0.9995" style="stop-color:#92172F"/>
</linearGradient>
<path class="st0" d="M15.5,18.1c0,0,2-1.1,2.5-1.4c0.5-0.3,1-0.3,1.4-0.1c0.5,0.3,4.6,3,4.9,3.2c0.3,0.2,0.5,0.9,0,1.6
	c-0.5,0.7-2.6,3.3-3.6,3.3c-0.9,0-4.7-0.1-12-7.3c-7.2-7.2-7.3-11-7.3-12c0-0.9,2.6-3.1,3.3-3.6c0.7-0.5,1.4-0.3,1.6,0
	c0.3,0.4,2.9,4.4,3.2,4.9c0.2,0.3,0.1,0.8-0.1,1.4c-0.3,0.5-1.4,2.5-1.4,2.5s0.8,1.3,3.4,4C14.2,17.3,15.5,18.1,15.5,18.1z"/>
</svg>
