<?xml version="1.0" encoding="utf-8"?>
<!-- Generator: Adobe Illustrator 24.1.0, SVG Export Plug-In . SVG Version: 6.00 Build 0)  -->
<svg version="1.1" id="Layer_1" xmlns="http://www.w3.org/2000/svg" xmlns:xlink="http://www.w3.org/1999/xlink" x="0px" y="0px"
	 viewBox="0 0 57.55 25.28" style="enable-background:new 0 0 57.55 25.28;" xml:space="preserve">
<style type="text/css">
	.st0{fill:#FE8D04;}
	.st1{fill:#FE9009;}
</style>
<g>
	<path class="st0" d="M9.68,15.79c1.36,2.13,3.34,3.05,5.67,3.52c1.77,0.36,3.23,1.34,4.43,2.68c0.2,0.23,0.5,0.41,0.47,0.79
		c-0.27,0.22-0.42-0.04-0.56-0.16c-2.25-1.99-4.88-2.49-7.78-2.12c-2.21,0.28-4.39,0.25-6.47-0.77c-4.21-2.07-6.2-6.83-4.63-11.21
		C2.38,4.1,7.1,1.57,11.67,2.68c4.55,1.11,7.56,5.39,7,9.95c-0.15,1.22-0.6,2.47-1.25,3.45c-1.33-2.81-1.33-2.81-3.73-3.9
		c0.35,0,0.71-0.04,1.06,0.01c0.66,0.09,0.9-0.13,0.87-0.82c-0.1-2.43-1.76-4.69-4.1-5.5c-2.44-0.85-5-0.15-6.68,1.83
		c-1.62,1.9-1.92,4.52-0.7,6.69c1,1.77,2.55,2.8,4.57,3.14c0.76,0.12,1.17-0.01,0.98-0.9C9.63,16.36,9.68,16.07,9.68,15.79z"/>
	<path class="st0" d="M43.41,12.07c0.56-1.66,1.13-3.24,1.63-4.85c0.2-0.66,0.59-0.78,1.2-0.77c0.62,0.01,1.07,0.05,1.29,0.79
		c0.47,1.6,1.06,3.16,1.79,4.75c0.48-1.53,0.96-3.07,1.45-4.6c0.11-0.34,0.07-0.86,0.56-0.9c0.73-0.06,1.48-0.15,2.19,0.06
		c0.31,0.09,0.14,0.44,0.06,0.67c-0.99,2.92-2.01,5.84-2.96,8.77c-0.23,0.71-0.71,0.61-1.21,0.59c-0.52-0.03-1.14,0.24-1.39-0.61
		c-0.42-1.43-0.96-2.83-1.44-4.25c-0.08-0.23-0.11-0.49-0.37-0.7c-0.55,1.62-1.14,3.2-1.61,4.82c-0.24,0.82-0.79,0.75-1.4,0.75
		c-0.59,0-1.06,0.05-1.3-0.73c-0.9-2.85-1.88-5.68-2.87-8.5c-0.24-0.67-0.15-0.91,0.61-0.91c1.85-0.01,1.85-0.04,2.39,1.71
		c0.38,1.21,0.76,2.43,1.14,3.64C43.18,11.87,43.25,11.91,43.41,12.07z"/>
	<path class="st0" d="M32.86,16.6c-0.52-0.07-1.14,0.2-1.62-0.41c-0.28-0.35-0.57,0.08-0.83,0.19c-3.32,1.42-7.04-0.63-7.51-4.16
		c-0.29-2.17,0.8-4.26,2.78-5.32c2-1.07,4.31-0.8,6.06,0.7c1.63,1.41,2.35,3.77,1.45,5.72c-0.46,1.01-0.21,1.56,0.47,2.17
		c0.14,0.13,0.27,0.27,0.38,0.43c0.13,0.17,0.39,0.3,0.26,0.56c-0.11,0.2-0.34,0.11-0.52,0.12C33.49,16.61,33.2,16.6,32.86,16.6z
		 M25.39,11.55c0,1.95,1.82,3.38,3.54,2.81c0.46-0.15,0.58-0.28,0.22-0.69c-0.25-0.29-0.79-0.6-0.57-0.98
		c0.19-0.33,0.76-0.09,1.16-0.14c0.13-0.01,0.26-0.02,0.38,0c0.71,0.1,0.87-0.27,0.88-0.89c0.03-1.65-1.19-3.03-2.76-3.07
		C26.67,8.55,25.39,9.88,25.39,11.55z"/>
	<path class="st1" d="M35.48,11.52c0-1.3,0.06-2.61-0.02-3.91c-0.06-0.96,0.31-1.27,1.2-1.14c0.22,0.03,0.45,0.02,0.67,0
		c0.49-0.04,0.7,0.17,0.7,0.66c-0.01,2.96-0.01,5.92,0,8.88c0,0.45-0.22,0.58-0.65,0.6c-1.9,0.12-1.9,0.13-1.9-1.75
		C35.48,13.75,35.48,12.63,35.48,11.52z"/>
	<path class="st1" d="M54.54,11.52c0-1.4,0.03-2.8-0.01-4.2c-0.02-0.68,0.23-0.94,0.89-0.85c0.03,0,0.06,0,0.1,0
		c1.57-0.01,1.57-0.01,1.57,1.51c0,2.55-0.02,5.09,0.01,7.64c0.01,0.73-0.16,1.03-0.96,0.99c-1.79-0.08-1.58,0.25-1.6-1.56
		C54.53,13.87,54.54,12.7,54.54,11.52z"/>
	<path class="st1" d="M15.25,17.76c-0.03,0.43-0.29,0.59-0.65,0.58c-0.57-0.01-0.89-0.33-0.95-0.88c-0.04-0.38,0.17-0.65,0.55-0.62
		C14.76,16.89,15.13,17.22,15.25,17.76z"/>
	<path class="st1" d="M16.76,16.27c0,0.23-0.05,0.52-0.24,0.46c-0.46-0.14-0.64-0.56-0.69-1.02c-0.02-0.21,0.08-0.4,0.31-0.35
		C16.63,15.47,16.66,15.92,16.76,16.27z"/>
</g>
</svg>
