<?xml version="1.0" encoding="utf-8"?>
<!-- Generator: Adobe Illustrator 24.1.0, SVG Export Plug-In . SVG Version: 6.00 Build 0)  -->
<svg version="1.1" id="Layer_1" xmlns="http://www.w3.org/2000/svg" xmlns:xlink="http://www.w3.org/1999/xlink" x="0px" y="0px"
	 viewBox="0 0 23.24 25.28" style="enable-background:new 0 0 23.24 25.28;" xml:space="preserve">
<style type="text/css">
	.st0{fill:#19A02A;}
</style>
<g>
	<path class="st0" d="M23,12.6c0,0.63-0.17,1.17-0.25,1.65c-0.89,5.47-5.69,9.6-11.13,9.57C6.31,23.79,1.58,19.66,0.7,14.28
		c-0.12-0.72-0.23-1.45-0.21-2.18c0-0.18-0.09-0.42,0.11-0.51c0.16-0.08,0.31,0.1,0.45,0.18c1.89,1.13,3.78,2.24,5.65,3.4
		c0.44,0.27,0.76,0.29,1.22,0.02c4.43-2.66,8.87-5.3,13.3-7.96c0.46-0.28,0.62-0.18,0.8,0.27c0.44,1.07,0.71,2.17,0.86,3.32
		c0.03,0.22,0.13,0.73,0.13,1C23,11.81,23,12.15,23,12.6z"/>
	<path class="st0" d="M1.17,8.91c0.11,0.06,0.24,0.13,0.37,0.21c1.73,1.03,3.46,2.04,5.17,3.1c0.46,0.28,0.78,0.24,1.22-0.02
		c3.98-2.39,7.97-4.76,11.95-7.14c0.47-0.28,1.02-0.02,1.08,0.51c0.03,0.26-0.22,0.28-0.36,0.37c-2.49,1.5-4.99,3-7.49,4.5
		c-1.77,1.06-3.55,2.12-5.31,3.2c-0.31,0.19-0.56,0.2-0.87,0c-1.91-1.16-3.84-2.3-5.76-3.44C0.78,9.97,0.68,9.33,0.96,8.99
		C1.01,8.93,1.07,8.9,1.17,8.91z"/>
	<path class="st0" d="M2.04,6.49c0.15,0.09,0.28,0.16,0.41,0.24c1.45,0.86,2.92,1.71,4.36,2.6c0.38,0.23,0.65,0.21,1.02-0.01
		c3.39-2.06,6.79-4.09,10.19-6.13c0.24-0.14,0.45-0.38,0.79-0.1c0.67,0.55,0.69,0.54-0.06,0.99c-3.66,2.19-7.32,4.37-10.98,6.57
		c-0.37,0.23-0.64,0.23-1.02,0c-1.65-1.01-3.31-2-4.97-2.99c-0.17-0.1-0.4-0.2-0.23-0.47C1.71,6.95,1.71,6.6,2.04,6.49z"/>
	<path class="st0" d="M17.15,2.01c-0.06,0.15-0.22,0.2-0.34,0.27c-3.01,1.8-6.04,3.6-9.04,5.42C7.38,7.93,7.11,7.92,6.75,7.69
		C5.55,6.94,4.33,6.24,3.13,5.5C2.96,5.4,2.56,5.34,2.87,5C3.09,4.75,3.17,4.2,3.75,4.55c1.02,0.63,2.08,1.21,3.1,1.84
		c0.33,0.2,0.58,0.2,0.92,0c2.54-1.54,5.08-3.07,7.63-4.6C16.19,1.32,16.39,1.34,17.15,2.01z"/>
</g>
</svg>
