<?xml version="1.0" encoding="utf-8"?>
<!-- Generator: Adobe Illustrator 24.1.0, SVG Export Plug-In . SVG Version: 6.00 Build 0)  -->
<svg version="1.1" id="Layer_1" xmlns="http://www.w3.org/2000/svg" xmlns:xlink="http://www.w3.org/1999/xlink" x="0px" y="0px"
	 viewBox="0 0 42.64 38.36" style="enable-background:new 0 0 42.64 38.36;" xml:space="preserve">
<style type="text/css">
	.st0{fill:url(#SVGID_1_);}
	.st1{fill:url(#SVGID_2_);}
	.st2{fill:url(#SVGID_3_);}
	.st3{fill:url(#SVGID_4_);}
	.st4{fill:url(#SVGID_5_);}
	.st5{fill:url(#SVGID_6_);}
	.st6{fill:url(#SVGID_7_);}
	.st7{fill:none;}
	.st8{fill:url(#SVGID_8_);}
</style>
<g>
	<linearGradient id="SVGID_1_" gradientUnits="userSpaceOnUse" x1="5.924" y1="30.9799" x2="12.0627" y2="30.9799">
		<stop  offset="0" style="stop-color:#E0081B"/>
		<stop  offset="0.9995" style="stop-color:#92172D"/>
	</linearGradient>
	<path class="st0" d="M11.8,24.23c0.1,0.29,0.03,0.58,0.04,0.87c-0.12,0.16-0.3,0.18-0.47,0.22c-0.93,0.23-1.77,0.62-2.49,1.27
		c-0.7,0.63-1.16,1.38-1.27,2.32c-0.25,2.14-0.48,4.28-0.72,6.41c-0.1,0.85,0.48,1.47,1.34,1.48c1.05,0.01,2.09,0,3.14,0
		c0.16,0,0.34-0.03,0.47,0.11c0,0.3-0.02,0.61,0.22,0.85c-1.45,0-2.91,0-4.36,0c-0.42-0.18-0.85-0.34-1.17-0.7
		c-0.47-0.53-0.67-1.14-0.59-1.84c0.21-1.82,0.49-3.64,0.6-5.46c0.13-2.35,1.24-3.96,3.34-4.93c0.04-0.02,0.08-0.05,0.12-0.07
		c0.24-0.23,0.57-0.25,0.85-0.37C11.17,24.31,11.46,24.13,11.8,24.23z"/>
	<linearGradient id="SVGID_2_" gradientUnits="userSpaceOnUse" x1="30.4986" y1="30.9847" x2="36.6303" y2="30.9847">
		<stop  offset="0" style="stop-color:#E0081B"/>
		<stop  offset="0.9995" style="stop-color:#92172D"/>
	</linearGradient>
	<path class="st1" d="M30.5,37.76c0.31-0.21,0.18-0.57,0.29-0.84c0.13-0.15,0.3-0.11,0.47-0.11c1.02,0,2.04,0,3.07,0
		c0.89,0,1.46-0.65,1.35-1.54c-0.24-2.03-0.47-4.06-0.68-6.09c-0.14-1.32-0.79-2.29-1.86-3.01c-0.58-0.39-1.21-0.66-1.88-0.83
		c-0.17-0.04-0.36-0.05-0.46-0.23c-0.08-0.29-0.09-0.58,0.01-0.86c0.34-0.11,0.62,0.08,0.93,0.15c0.29,0.12,0.62,0.14,0.85,0.37
		c0.78,0.39,1.51,0.84,2.11,1.49c0.73,0.8,1.14,1.73,1.25,2.81c0.21,2.03,0.43,4.06,0.68,6.09c0.14,1.17-0.48,2.19-1.61,2.53
		c-0.05,0.02-0.12,0.01-0.15,0.08C33.4,37.76,31.95,37.76,30.5,37.76z"/>
	<linearGradient id="SVGID_3_" gradientUnits="userSpaceOnUse" x1="15.2782" y1="37.2778" x2="27.3545" y2="37.2778">
		<stop  offset="0" style="stop-color:#E0081B"/>
		<stop  offset="0.9995" style="stop-color:#92172D"/>
	</linearGradient>
	<path class="st2" d="M27.07,36.92c0.12,0.27-0.02,0.64,0.29,0.84c-4.03,0-8.05,0-12.08,0c0.23-0.24,0.22-0.54,0.22-0.84
		c0.06-0.07,0.13-0.1,0.22-0.11c0.13,0,0.25-0.02,0.38-0.01c0.34-0.01,0.68-0.01,1.02-0.01c0.13,0.02,0.26-0.01,0.39,0
		c0.35,0,0.69-0.01,1.04,0c0.13,0.02,0.26-0.01,0.39,0c0.35,0,0.69-0.01,1.04,0c0.13,0.02,0.26-0.01,0.39,0c0.35,0,0.69-0.01,1.04,0
		c0.13,0.02,0.26-0.01,0.39,0c0.35,0,0.69-0.01,1.04,0c0.13,0.02,0.26-0.01,0.39,0c0.35,0,0.69-0.01,1.04,0
		c0.13,0.02,0.26-0.01,0.39,0c0.34,0,0.69-0.01,1.03,0c0.13,0.02,0.25,0,0.38,0c0.31,0.02,0.61-0.03,0.92,0.04
		C27.01,36.85,27.04,36.88,27.07,36.92z"/>
	<linearGradient id="SVGID_4_" gradientUnits="userSpaceOnUse" x1="25.639" y1="21.8416" x2="32.5759" y2="21.8416">
		<stop  offset="0" style="stop-color:#E0081B"/>
		<stop  offset="0.9995" style="stop-color:#92172D"/>
	</linearGradient>
	<path class="st3" d="M25.64,19.81c0.25-0.3,0.51-0.59,0.76-0.89c0.11,0.07,0.23,0.04,0.35,0.04c1.13,0,2.26,0,3.39,0.01
		c1.36,0.01,2.42,1.05,2.44,2.41c0.01,1.13,0,2.26,0,3.39c-0.29-0.1-0.57-0.2-0.86-0.3c-0.13-0.15-0.11-0.33-0.11-0.51
		c0-0.78-0.04-1.57,0.01-2.35c0.06-0.99-0.65-1.73-1.7-1.68c-1.25,0.05-2.49,0.01-3.74,0.01C25.99,19.93,25.79,19.98,25.64,19.81z"
		/>
	<linearGradient id="SVGID_5_" gradientUnits="userSpaceOnUse" x1="10.0011" y1="21.8054" x2="16.6313" y2="21.8054">
		<stop  offset="0" style="stop-color:#E0081B"/>
		<stop  offset="0.9995" style="stop-color:#92172D"/>
	</linearGradient>
	<path class="st4" d="M15.86,18.96c0.26,0.29,0.51,0.57,0.77,0.86c-0.14,0.15-0.33,0.11-0.51,0.11c-1.17,0-2.33,0-3.5,0
		c-1.06,0-1.66,0.6-1.67,1.66c-0.01,0.8,0,1.59,0,2.39c0,0.16,0.02,0.34-0.1,0.48c-0.28,0.1-0.57,0.2-0.85,0.3
		c0-0.98,0.03-1.95,0-2.93c-0.05-1.44,0.58-2.63,2.2-2.88c0.15-0.08,0.31-0.1,0.48-0.1c0.91,0,1.82,0,2.73,0
		C15.57,18.85,15.73,18.86,15.86,18.96z"/>
	<g>
		<linearGradient id="SVGID_6_" gradientUnits="userSpaceOnUse" x1="11.7184" y1="30.0226" x2="15.6241" y2="30.0226">
			<stop  offset="0" style="stop-color:#E0081B"/>
			<stop  offset="0.9995" style="stop-color:#92172D"/>
		</linearGradient>
		<path class="st5" d="M15.62,24.09c-0.03-0.31-0.02-0.62-0.03-0.93c-0.01-0.63-0.23-0.87-0.86-0.88c-0.71-0.01-1.43-0.01-2.14,0
			c-0.62,0.01-0.85,0.25-0.86,0.88c-0.01,0.36,0,0.71-0.02,1.07c0.03,0.31,0.02,0.62,0.02,0.93c-0.02,3.89-0.01,7.78,0,11.67
			c0.03,0.34-0.08,0.72,0.32,0.93c1.07,0,2.14,0,3.22,0c0.39-0.2,0.3-0.56,0.32-0.89c0.01-0.3,0-0.59,0-0.89
			c-0.01-0.13,0.01-0.26,0-0.39c0-0.35,0.01-0.69,0-1.04c-0.02-0.13,0.01-0.26,0-0.39c0-0.35,0.01-0.7,0-1.05
			c-0.02-0.13,0.02-0.27,0-0.4c0.02-0.56,0.01-1.12,0.01-1.67C15.62,28.72,15.58,26.41,15.62,24.09z M14.63,36.39
			c0,0.6,0.1,0.51-0.54,0.52c-0.36,0.01-0.72-0.02-1.07,0c-0.29,0.02-0.33-0.09-0.33-0.35c0.01-2.18,0.01-4.35,0.01-6.53
			c0-2.13,0.01-4.26-0.01-6.39c0-0.3,0.05-0.43,0.38-0.4c0.41,0.03,0.83,0.02,1.25,0c0.26-0.01,0.31,0.08,0.31,0.32
			c-0.01,2.94-0.01,5.88-0.01,8.82C14.63,33.73,14.64,35.06,14.63,36.39z"/>
	</g>
	<g>
		<linearGradient id="SVGID_7_" gradientUnits="userSpaceOnUse" x1="26.9619" y1="30.0233" x2="30.8409" y2="30.0233">
			<stop  offset="0" style="stop-color:#E0081B"/>
			<stop  offset="0.9995" style="stop-color:#92172D"/>
		</linearGradient>
		<path class="st6" d="M30.83,33.79c0.01-2.87-0.02-5.75,0.01-8.62c-0.01-0.32-0.04-0.64,0-0.96c-0.02-0.37-0.01-0.73-0.02-1.1
			c-0.01-0.62-0.2-0.81-0.81-0.82c-0.7-0.01-1.4,0-2.1,0c-0.7,0-0.84,0.14-0.9,0.84c0.01,0.32,0.07,0.64-0.05,0.95
			c0,0.04,0.01,0.08,0.03,0.12c0.05,0.2,0.05,0.4,0.05,0.6c0,1.81,0,3.62,0,5.42c0,2.2,0.01,4.4-0.01,6.6
			c0.03,0.34-0.1,0.73,0.32,0.93c1.05,0,2.1,0,3.14,0c0.19-0.09,0.31-0.23,0.31-0.46c0-0.16,0.04-0.32,0.03-0.48
			C30.82,35.81,30.83,34.8,30.83,33.79z M29.54,36.92c-0.43-0.03-0.86-0.02-1.28,0c-0.22,0.01-0.32-0.05-0.31-0.29
			c0.02-1.56,0.03-3.11,0.03-4.67c0-1.18-0.02-2.35-0.03-3.53c0-1.5,0-2.99,0-4.49c0-0.14,0.02-0.29,0.02-0.43
			c0-0.19,0.08-0.27,0.28-0.26c0.44,0.01,0.88,0.03,1.32,0c0.3-0.02,0.35,0.1,0.35,0.36c-0.01,2.15-0.01,4.31-0.01,6.46
			c0,2.15-0.01,4.31,0.01,6.46C29.92,36.83,29.85,36.94,29.54,36.92z"/>
	</g>
	<g>
		<path class="st7" d="M28.06,12.23c-0.44,0.16-0.7-0.02-0.71-0.48c-0.01-0.56-0.02-1.12,0-1.68c0.04-0.9-0.23-1.71-0.64-2.49
			c-0.08-0.16-0.19-0.25-0.38-0.27c-0.9-0.13-1.8-0.11-2.7-0.02c-1.68,0.17-3.32,0.59-4.99,0.85c-1.24,0.2-2.48,0.33-3.72,0.02
			c-0.33-0.08-0.37-0.01-0.36,0.3c0.06,1.08,0.09,2.16,0.12,3.25c0.01,0.46-0.2,0.63-0.65,0.53c-0.3-0.07-0.57-0.21-0.88-0.44
			c0.03,1.13,0.21,2.13,0.85,3.02c0.11,0.15,0.27,0.31,0.44,0.27c0.5-0.09,0.53,0.23,0.61,0.57c0.46,2.12,1.54,3.82,3.47,4.9
			c0.97,0.55,2.01,0.95,3.13,0.72c2.48-0.53,4.23-1.95,5.11-4.37c0.19-0.54,0.3-1.1,0.41-1.66c0.04-0.2,0.12-0.37,0.34-0.32
			c0.37,0.09,0.57-0.11,0.72-0.38c0.5-0.87,0.63-1.82,0.6-2.89C28.58,11.94,28.35,12.12,28.06,12.23z"/>
		<path class="st7" d="M28.3,5.44c-0.21-0.35-0.45-0.67-0.95-0.63c-0.22,0.02-0.33-0.17-0.4-0.35c-0.27-0.66-0.76-1.11-1.37-1.44
			c-1.36-0.75-2.83-0.82-4.33-0.67c-1.35,0.13-2.66,0.51-4,0.72c-1.53,0.23-3.01,0.04-4.41-0.65c-0.22-0.11-0.31-0.13-0.36,0.16
			c-0.2,1.22-0.09,2.37,0.6,3.43c0.12,0.18,0.15,0.35,0.07,0.57c-0.4,1.14-0.37,2.29-0.07,3.44c0.12,0.46,0.31,0.89,0.77,1.22
			c-0.01-0.28-0.03-0.5-0.03-0.72c-0.04-0.99-0.08-1.97-0.11-2.96c-0.01-0.43,0.27-0.64,0.64-0.47c1.04,0.47,2.13,0.46,3.22,0.35
			c1.54-0.16,3.04-0.53,4.56-0.79c1.42-0.24,2.85-0.37,4.3-0.18c0.35,0.05,0.71,0.16,0.88,0.47c0.38,0.66,0.7,1.35,0.82,2.11
			c0.1,0.65,0.03,1.31,0.06,2.06c0.08-0.12,0.12-0.16,0.15-0.21c0.06-0.1,0.11-0.21,0.16-0.32c0.45-1.14,0.49-2.32,0.32-3.51
			C28.74,6.49,28.61,5.94,28.3,5.44z"/>
		<linearGradient id="SVGID_8_" gradientUnits="userSpaceOnUse" x1="11.5406" y1="13.1287" x2="29.7728" y2="13.1287">
			<stop  offset="0" style="stop-color:#E0081B"/>
			<stop  offset="0.9995" style="stop-color:#92172D"/>
		</linearGradient>
		<path class="st8" d="M29.26,10.97c0.63-1.57,0.64-3.18,0.24-4.8c-0.18-0.75-0.46-1.53-1.16-1.9c-0.55-0.28-0.86-0.71-1.25-1.13
			C26.02,2,24.6,1.58,23.09,1.47c-1.84-0.14-3.61,0.31-5.4,0.67c-1.8,0.36-3.52,0.21-5.09-0.86c-0.3-0.21-0.57-0.11-0.69,0.24
			c-0.53,1.58-0.52,3.13,0.28,4.63c0.09,0.17,0.1,0.32,0.05,0.5c-0.34,1.38-0.33,2.76,0.22,4.09c0.13,0.33,0.22,0.62,0.19,1
			c-0.09,1.01,0.15,1.98,0.6,2.9c0.19,0.38,0.45,0.7,0.82,0.92c0.08,0.09,0.17,0.14,0.29,0.11c0.31,0.12,0.19,0.43,0.29,0.64
			c0.07,0.16,0.01,0.34,0.08,0.52c0.28,0.75,0.58,1.5,1.07,2.14c0.26,0.32,0.53,0.64,0.83,0.93c0.23,0.24,0.47,0.47,0.75,0.66
			c0.12,0.08,0.23,0.18,0.24,0.34c0.01,0.41,0.05,0.83-0.05,1.24c-0.06,0.24-0.2,0.38-0.43,0.48c-0.4,0.16-0.81,0.28-1.22,0.39
			c-0.15,0.04-0.31,0.05-0.4,0.2c0.01,0.29-0.06,0.58,0.04,0.87c0.13,0.08,0.25,0.03,0.38,0c0.3-0.06,0.6-0.15,0.89-0.25
			c0.26-0.09,0.47-0.05,0.7,0.1c1.9,1.28,3.94,1.44,6.09,0.76c0.23-0.11,0.46-0.19,0.69-0.3c0.23-0.11,0.46-0.24,0.66-0.4
			c0.28-0.23,0.57-0.3,0.9-0.14c0.15,0.04,0.31,0.07,0.46,0.13c0.23,0.05,0.45,0.19,0.71,0.09c0.21-0.27,0.12-0.57,0.05-0.86
			c-0.08-0.17-0.25-0.16-0.39-0.2c-0.41-0.11-0.82-0.23-1.22-0.38c-0.23-0.09-0.4-0.24-0.43-0.48c-0.08-0.79-0.36-1.65,0.57-2.18
			c0.02-0.01,0.03-0.03,0.05-0.05c0.28-0.32,0.63-0.57,0.76-1c0.46-0.62,0.73-1.32,1-2.03c0.18-0.16,0.15-0.37,0.16-0.57
			c0.04-0.4,0.02-0.84,0.58-0.91c0.08-0.01,0.16-0.09,0.23-0.15c0.3-0.25,0.5-0.57,0.61-0.94c0.33-1.02,0.68-2.04,0.23-3.11
			C29.19,11.11,29.23,11.05,29.26,10.97z M24.53,23.15c-1.01,0.69-2.14,1-3.36,0.98c-1.13-0.02-2.17-0.33-3.12-0.96
			c-0.16-0.11-0.24-0.17-0.09-0.37c0.22-0.29,0.3-0.64,0.31-1.01c0-0.22,0-0.45,0-0.74c2.05,1.18,4.02,1.08,6.02-0.22
			c0,0.29,0,0.52,0,0.74c-0.01,0.46,0.06,0.91,0.35,1.28C24.78,23.04,24.63,23.08,24.53,23.15z M28.25,14.55
			c-0.15,0.26-0.35,0.47-0.72,0.38c-0.22-0.05-0.3,0.12-0.34,0.32c-0.11,0.56-0.21,1.12-0.41,1.66c-0.87,2.42-2.63,3.84-5.11,4.37
			c-1.12,0.24-2.16-0.17-3.13-0.72c-1.93-1.09-3.01-2.78-3.47-4.9c-0.08-0.34-0.11-0.66-0.61-0.57c-0.17,0.03-0.33-0.13-0.44-0.27
			c-0.64-0.88-0.81-1.89-0.85-3.02c0.31,0.23,0.58,0.37,0.88,0.44c0.45,0.1,0.66-0.07,0.65-0.53c-0.03-1.08-0.07-2.16-0.12-3.25
			c-0.02-0.3,0.03-0.38,0.36-0.3c1.24,0.31,2.48,0.17,3.72-0.02c1.67-0.26,3.31-0.68,4.99-0.85c0.9-0.09,1.8-0.11,2.7,0.02
			c0.19,0.03,0.29,0.11,0.38,0.27c0.4,0.78,0.68,1.59,0.64,2.49c-0.03,0.56-0.01,1.12,0,1.68c0.01,0.46,0.27,0.64,0.71,0.48
			c0.28-0.1,0.52-0.29,0.79-0.57C28.89,12.73,28.76,13.68,28.25,14.55z M28.51,10.57c-0.04,0.11-0.1,0.21-0.16,0.32
			c-0.03,0.05-0.06,0.09-0.15,0.21c-0.03-0.75,0.04-1.41-0.06-2.06c-0.12-0.76-0.44-1.45-0.82-2.11c-0.18-0.31-0.53-0.42-0.88-0.47
			c-1.44-0.2-2.87-0.06-4.3,0.18c-1.52,0.26-3.03,0.63-4.56,0.79c-1.09,0.11-2.18,0.13-3.22-0.35c-0.38-0.17-0.66,0.03-0.64,0.47
			c0.03,0.99,0.07,1.97,0.11,2.96c0.01,0.22,0.02,0.44,0.03,0.72c-0.46-0.33-0.65-0.76-0.77-1.22c-0.3-1.15-0.33-2.3,0.07-3.44
			C13.23,6.35,13.2,6.19,13.08,6c-0.68-1.06-0.8-2.21-0.6-3.43c0.05-0.29,0.14-0.27,0.36-0.16c1.4,0.69,2.87,0.88,4.41,0.65
			c1.34-0.2,2.65-0.58,4-0.72c1.5-0.15,2.97-0.08,4.33,0.67c0.61,0.34,1.1,0.78,1.37,1.44c0.07,0.18,0.18,0.37,0.4,0.35
			c0.49-0.04,0.73,0.28,0.95,0.63c0.3,0.49,0.44,1.05,0.52,1.62C29,8.25,28.96,9.43,28.51,10.57z"/>
	</g>
</g>
</svg>
