<?xml version="1.0" encoding="utf-8"?>
<!-- Generator: Adobe Illustrator 24.1.0, SVG Export Plug-In . SVG Version: 6.00 Build 0)  -->
<svg version="1.1" id="Layer_9" xmlns="http://www.w3.org/2000/svg" xmlns:xlink="http://www.w3.org/1999/xlink" x="0px" y="0px"
	 viewBox="0 0 32 32" style="enable-background:new 0 0 32 32;" xml:space="preserve">
<style type="text/css">
	.st0{fill:#202020;}
	.st1{fill:none;}
</style>
<g>
	<path class="st0" d="M8.23,19.88c0.09,0.25,0.03,0.49,0.03,0.74c-0.1,0.14-0.26,0.15-0.4,0.19c-0.79,0.2-1.51,0.53-2.12,1.08
		c-0.6,0.54-0.99,1.17-1.08,1.97c-0.21,1.82-0.41,3.64-0.61,5.45c-0.09,0.72,0.41,1.25,1.14,1.26c0.89,0.01,1.78,0,2.67,0
		c0.14,0,0.29-0.03,0.4,0.09c0,0.26-0.02,0.52,0.19,0.72c-1.23,0-2.48,0-3.71,0c-0.36-0.15-0.72-0.29-1-0.6
		c-0.4-0.45-0.57-0.97-0.5-1.57c0.18-1.55,0.42-3.1,0.51-4.64c0.11-2,1.05-3.37,2.84-4.19c0.03-0.02,0.07-0.04,0.1-0.06
		c0.2-0.2,0.48-0.21,0.72-0.31C7.69,19.95,7.94,19.8,8.23,19.88z"/>
	<path class="st0" d="M24.13,31.39c0.26-0.18,0.15-0.48,0.25-0.71c0.11-0.13,0.26-0.09,0.4-0.09c0.87,0,1.74,0,2.61,0
		c0.76,0,1.24-0.55,1.15-1.31c-0.2-1.73-0.4-3.45-0.58-5.18c-0.12-1.12-0.67-1.95-1.58-2.56c-0.49-0.33-1.03-0.56-1.6-0.71
		c-0.14-0.03-0.31-0.04-0.39-0.2c-0.07-0.25-0.08-0.49,0.01-0.73c0.29-0.09,0.53,0.07,0.79,0.13c0.25,0.1,0.53,0.12,0.72,0.31
		c0.66,0.33,1.28,0.71,1.79,1.27c0.62,0.68,0.97,1.47,1.06,2.39c0.18,1.73,0.37,3.45,0.58,5.18c0.12,1-0.41,1.86-1.37,2.15
		c-0.04,0.02-0.1,0.01-0.13,0.07C26.6,31.39,25.36,31.39,24.13,31.39z"/>
	<path class="st0" d="M21.21,30.68c0.1,0.23-0.02,0.54,0.25,0.71c-3.43,0-6.85,0-10.27,0c0.2-0.2,0.19-0.46,0.19-0.71
		c0.05-0.06,0.11-0.09,0.19-0.09c0.11,0,0.21-0.02,0.32-0.01c0.29-0.01,0.58-0.01,0.87-0.01c0.11,0.02,0.22-0.01,0.33,0
		c0.3,0,0.59-0.01,0.88,0c0.11,0.02,0.22-0.01,0.33,0c0.3,0,0.59-0.01,0.88,0c0.11,0.02,0.22-0.01,0.33,0c0.3,0,0.59-0.01,0.88,0
		c0.11,0.02,0.22-0.01,0.33,0c0.3,0,0.59-0.01,0.88,0c0.11,0.02,0.22-0.01,0.33,0c0.3,0,0.59-0.01,0.88,0
		c0.11,0.02,0.22-0.01,0.33,0c0.29,0,0.59-0.01,0.88,0c0.11,0.02,0.21,0,0.32,0c0.26,0.02,0.52-0.03,0.78,0.03
		C21.16,30.62,21.19,30.64,21.21,30.68z"/>
	<path class="st0" d="M20,16.12c0.21-0.26,0.43-0.5,0.65-0.76c0.09,0.06,0.2,0.03,0.3,0.03c0.96,0,1.92,0,2.88,0.01
		c1.16,0.01,2.06,0.89,2.08,2.05c0.01,0.96,0,1.92,0,2.88c-0.25-0.09-0.48-0.17-0.73-0.26c-0.11-0.13-0.09-0.28-0.09-0.43
		c0-0.66-0.03-1.34,0.01-2c0.05-0.84-0.55-1.47-1.45-1.43c-1.06,0.04-2.12,0.01-3.18,0.01C20.3,16.23,20.13,16.27,20,16.12z"/>
	<path class="st0" d="M11.68,15.4c0.22,0.25,0.43,0.48,0.65,0.73c-0.12,0.13-0.28,0.09-0.43,0.09c-1,0-1.98,0-2.98,0
		c-0.9,0-1.41,0.51-1.42,1.41c-0.01,0.68,0,1.35,0,2.03c0,0.14,0.02,0.29-0.09,0.41c-0.24,0.09-0.48,0.17-0.72,0.26
		c0-0.83,0.03-1.66,0-2.49c-0.04-1.22,0.49-2.24,1.87-2.45c0.13-0.07,0.26-0.09,0.41-0.09c0.77,0,1.55,0,2.32,0
		C11.43,15.31,11.57,15.32,11.68,15.4z"/>
	<g>
		<path class="st0" d="M11.47,19.77c-0.03-0.26-0.02-0.53-0.03-0.79c-0.01-0.54-0.2-0.74-0.73-0.75c-0.6-0.01-1.22-0.01-1.82,0
			c-0.53,0.01-0.72,0.21-0.73,0.75c-0.01,0.31,0,0.6-0.02,0.91c0.03,0.26,0.02,0.53,0.02,0.79c-0.02,3.31-0.01,6.62,0,9.93
			c0.03,0.29-0.07,0.61,0.27,0.79c0.91,0,1.82,0,2.74,0c0.33-0.17,0.26-0.48,0.27-0.76c0.01-0.26,0-0.5,0-0.76
			c-0.01-0.11,0.01-0.22,0-0.33c0-0.3,0.01-0.59,0-0.88c-0.02-0.11,0.01-0.22,0-0.33c0-0.3,0.01-0.6,0-0.89
			c-0.02-0.11,0.02-0.23,0-0.34c0.02-0.48,0.01-0.95,0.01-1.42C11.47,23.7,11.44,21.74,11.47,19.77z M10.63,30.23
			c0,0.51,0.09,0.43-0.46,0.44c-0.31,0.01-0.61-0.02-0.91,0c-0.25,0.02-0.28-0.08-0.28-0.3c0.01-1.85,0.01-3.7,0.01-5.55
			c0-1.81,0.01-3.62-0.01-5.44c0-0.26,0.04-0.37,0.32-0.34c0.35,0.03,0.71,0.02,1.06,0c0.22-0.01,0.26,0.07,0.26,0.27
			c-0.01,2.5-0.01,5-0.01,7.5C10.63,27.96,10.64,29.1,10.63,30.23z"/>
	</g>
	<g>
		<path class="st0" d="M24.41,28.02c0.01-2.44-0.02-4.89,0.01-7.33c-0.01-0.27-0.03-0.54,0-0.82c-0.02-0.31-0.01-0.62-0.02-0.94
			c-0.01-0.53-0.17-0.69-0.69-0.7c-0.6-0.01-1.19,0-1.79,0c-0.6,0-0.71,0.12-0.77,0.71c0.01,0.27,0.06,0.54-0.04,0.81
			c0,0.03,0.01,0.07,0.03,0.1c0.04,0.17,0.04,0.34,0.04,0.51c0,1.54,0,3.08,0,4.61c0,1.87,0.01,3.74-0.01,5.61
			c0.03,0.29-0.09,0.62,0.27,0.79c0.89,0,1.79,0,2.67,0c0.16-0.08,0.26-0.2,0.26-0.39c0-0.14,0.03-0.27,0.03-0.41
			C24.4,29.73,24.41,28.87,24.41,28.02z M23.31,30.68c-0.37-0.03-0.73-0.02-1.09,0c-0.19,0.01-0.27-0.04-0.26-0.25
			c0.02-1.33,0.03-2.65,0.03-3.97c0-1-0.02-2-0.03-3c0-1.28,0-2.54,0-3.82c0-0.12,0.02-0.25,0.02-0.37c0-0.16,0.07-0.23,0.24-0.22
			c0.37,0.01,0.75,0.03,1.12,0c0.26-0.02,0.3,0.09,0.3,0.31c-0.01,1.83-0.01,3.67-0.01,5.49c0,1.83-0.01,3.67,0.01,5.49
			C23.64,30.6,23.58,30.69,23.31,30.68z"/>
	</g>
	<g>
		<path class="st1" d="M22.06,9.68c-0.37,0.14-0.6-0.02-0.6-0.41c-0.01-0.48-0.02-0.95,0-1.43c0.03-0.77-0.2-1.45-0.54-2.12
			c-0.07-0.14-0.16-0.21-0.32-0.23c-0.77-0.11-1.53-0.09-2.3-0.02c-1.43,0.14-2.82,0.5-4.24,0.72c-1.05,0.17-2.11,0.28-3.16,0.02
			c-0.28-0.07-0.31-0.01-0.31,0.26c0.05,0.92,0.08,1.84,0.1,2.76c0.01,0.39-0.17,0.54-0.55,0.45C9.87,9.63,9.64,9.51,9.37,9.31
			c0.03,0.96,0.18,1.81,0.72,2.57c0.09,0.13,0.23,0.26,0.37,0.23c0.43-0.08,0.45,0.2,0.52,0.48c0.39,1.8,1.31,3.25,2.95,4.17
			c0.83,0.47,1.71,0.81,2.66,0.61c2.11-0.45,3.6-1.66,4.35-3.72c0.16-0.46,0.26-0.94,0.35-1.41c0.03-0.17,0.1-0.31,0.29-0.27
			c0.31,0.08,0.48-0.09,0.61-0.32c0.43-0.74,0.54-1.55,0.51-2.46C22.5,9.43,22.3,9.58,22.06,9.68z"/>
		<path class="st1" d="M22.26,3.9c-0.18-0.3-0.38-0.57-0.81-0.54c-0.19,0.02-0.28-0.14-0.34-0.3c-0.23-0.56-0.65-0.94-1.17-1.22
			c-1.16-0.64-2.41-0.7-3.68-0.57c-1.15,0.11-2.26,0.43-3.4,0.61c-1.3,0.2-2.56,0.03-3.75-0.55C8.92,1.24,8.85,1.22,8.8,1.47
			C8.63,2.51,8.73,3.49,9.31,4.39c0.1,0.15,0.13,0.3,0.06,0.48C9.03,5.84,9.06,6.82,9.31,7.8c0.1,0.39,0.26,0.76,0.65,1.04
			C9.96,8.6,9.94,8.41,9.94,8.22C9.91,7.38,9.88,6.55,9.85,5.71c-0.01-0.37,0.23-0.54,0.54-0.4c0.88,0.4,1.81,0.39,2.74,0.3
			c1.31-0.14,2.59-0.45,3.88-0.67c1.21-0.2,2.42-0.31,3.66-0.15c0.3,0.04,0.6,0.14,0.75,0.4c0.32,0.56,0.6,1.15,0.7,1.79
			c0.09,0.55,0.03,1.11,0.05,1.75c0.07-0.1,0.1-0.14,0.13-0.18c0.05-0.09,0.09-0.18,0.14-0.27c0.38-0.97,0.42-1.97,0.27-2.99
			C22.63,4.8,22.52,4.33,22.26,3.9z"/>
		<path class="st0" d="M23.08,8.61c0.54-1.34,0.54-2.7,0.2-4.08c-0.15-0.64-0.39-1.3-0.99-1.62c-0.47-0.24-0.73-0.6-1.06-0.96
			c-0.91-0.97-2.12-1.33-3.4-1.42c-1.57-0.12-3.07,0.26-4.59,0.57C11.7,1.4,10.24,1.27,8.91,0.36c-0.26-0.18-0.48-0.09-0.59,0.2
			C7.87,1.91,7.88,3.23,8.56,4.51C8.63,4.65,8.64,4.78,8.6,4.93C8.31,6.11,8.32,7.28,8.79,8.41C8.9,8.69,8.97,8.94,8.95,9.26
			c-0.08,0.86,0.13,1.68,0.51,2.47c0.16,0.32,0.38,0.6,0.7,0.78c0.07,0.08,0.14,0.12,0.25,0.09c0.26,0.1,0.16,0.37,0.25,0.54
			c0.06,0.14,0.01,0.29,0.07,0.44c0.24,0.64,0.49,1.28,0.91,1.82c0.22,0.27,0.45,0.54,0.71,0.79c0.2,0.2,0.4,0.4,0.64,0.56
			c0.1,0.07,0.2,0.15,0.2,0.29c0.01,0.35,0.04,0.71-0.04,1.05c-0.05,0.2-0.17,0.32-0.37,0.41c-0.34,0.14-0.69,0.24-1.04,0.33
			c-0.13,0.03-0.26,0.04-0.34,0.17c0.01,0.25-0.05,0.49,0.03,0.74c0.11,0.07,0.21,0.03,0.32,0c0.26-0.05,0.51-0.13,0.76-0.21
			c0.22-0.08,0.4-0.04,0.6,0.09c1.62,1.09,3.35,1.22,5.18,0.65c0.2-0.09,0.39-0.16,0.59-0.26c0.2-0.09,0.39-0.2,0.56-0.34
			c0.24-0.2,0.48-0.26,0.77-0.12c0.13,0.03,0.26,0.06,0.39,0.11c0.2,0.04,0.38,0.16,0.6,0.08c0.18-0.23,0.1-0.48,0.04-0.73
			c-0.07-0.14-0.21-0.14-0.33-0.17c-0.35-0.09-0.7-0.2-1.04-0.32c-0.2-0.08-0.34-0.2-0.37-0.41c-0.07-0.67-0.31-1.4,0.48-1.85
			c0.02-0.01,0.03-0.03,0.04-0.04c0.24-0.27,0.54-0.48,0.65-0.85c0.39-0.53,0.62-1.12,0.85-1.73c0.15-0.14,0.13-0.31,0.14-0.48
			c0.03-0.34,0.02-0.71,0.49-0.77c0.07-0.01,0.14-0.08,0.2-0.13c0.26-0.21,0.43-0.48,0.52-0.8c0.28-0.87,0.58-1.74,0.2-2.65
			C23.02,8.72,23.05,8.67,23.08,8.61z M19.05,18.97c-0.86,0.59-1.82,0.85-2.86,0.83c-0.96-0.02-1.85-0.28-2.65-0.82
			c-0.14-0.09-0.2-0.14-0.08-0.31c0.19-0.25,0.26-0.54,0.26-0.86c0-0.19,0-0.38,0-0.63c1.74,1,3.42,0.92,5.12-0.19
			c0,0.25,0,0.44,0,0.63c-0.01,0.39,0.05,0.77,0.3,1.09C19.27,18.87,19.14,18.91,19.05,18.97z M22.22,11.65
			c-0.13,0.22-0.3,0.4-0.61,0.32c-0.19-0.04-0.26,0.1-0.29,0.27c-0.09,0.48-0.18,0.95-0.35,1.41c-0.74,2.06-2.24,3.27-4.35,3.72
			c-0.95,0.2-1.84-0.14-2.66-0.61c-1.64-0.93-2.56-2.36-2.95-4.17c-0.07-0.29-0.09-0.56-0.52-0.48c-0.14,0.03-0.28-0.11-0.37-0.23
			c-0.54-0.75-0.69-1.61-0.72-2.57c0.26,0.2,0.49,0.31,0.75,0.37c0.38,0.09,0.56-0.06,0.55-0.45c-0.03-0.92-0.06-1.84-0.1-2.76
			c-0.02-0.26,0.03-0.32,0.31-0.26c1.05,0.26,2.11,0.14,3.16-0.02c1.42-0.22,2.82-0.58,4.24-0.72c0.77-0.08,1.53-0.09,2.3,0.02
			c0.16,0.03,0.25,0.09,0.32,0.23c0.34,0.66,0.58,1.35,0.54,2.12c-0.03,0.48-0.01,0.95,0,1.43c0.01,0.39,0.23,0.54,0.6,0.41
			c0.24-0.09,0.44-0.25,0.67-0.48C22.76,10.1,22.65,10.91,22.22,11.65z M22.44,8.27c-0.03,0.09-0.09,0.18-0.14,0.27
			c-0.03,0.04-0.05,0.08-0.13,0.18c-0.03-0.64,0.03-1.2-0.05-1.75c-0.1-0.65-0.37-1.23-0.7-1.79c-0.15-0.26-0.45-0.36-0.75-0.4
			c-1.22-0.17-2.44-0.05-3.66,0.15c-1.29,0.22-2.58,0.54-3.88,0.67c-0.93,0.09-1.85,0.11-2.74-0.3c-0.32-0.14-0.56,0.03-0.54,0.4
			c0.03,0.84,0.06,1.68,0.09,2.52C9.96,8.4,9.97,8.59,9.98,8.83C9.59,8.55,9.43,8.18,9.32,7.79C9.07,6.81,9.04,5.83,9.38,4.86
			c0.06-0.19,0.03-0.32-0.07-0.48C8.74,3.48,8.63,2.5,8.8,1.46c0.04-0.25,0.12-0.23,0.31-0.14c1.19,0.59,2.44,0.75,3.75,0.55
			c1.14-0.17,2.25-0.49,3.4-0.61c1.28-0.13,2.53-0.07,3.68,0.57c0.52,0.29,0.94,0.66,1.17,1.22c0.06,0.15,0.15,0.31,0.34,0.3
			c0.42-0.03,0.62,0.24,0.81,0.54c0.26,0.42,0.37,0.89,0.44,1.38C22.86,6.29,22.82,7.3,22.44,8.27z"/>
	</g>
</g>
</svg>
