<?xml version="1.0" encoding="utf-8"?>
<!-- Generator: Adobe Illustrator 24.1.0, SVG Export Plug-In . SVG Version: 6.00 Build 0)  -->
<svg version="1.1" id="Layer_9" xmlns="http://www.w3.org/2000/svg" xmlns:xlink="http://www.w3.org/1999/xlink" x="0px" y="0px"
	 viewBox="0 0 22.15 22.89" style="enable-background:new 0 0 22.15 22.89;" xml:space="preserve">
<style type="text/css">
	.st0{fill:#202020;}
	.st1{fill:none;}
</style>
<g>
	<path class="st0" d="M5.39,14.31c0.06,0.18,0.02,0.35,0.02,0.53c-0.07,0.1-0.18,0.11-0.29,0.13c-0.57,0.14-1.08,0.38-1.51,0.77
		c-0.43,0.38-0.7,0.84-0.77,1.41c-0.15,1.3-0.29,2.6-0.44,3.9c-0.06,0.52,0.29,0.89,0.81,0.9c0.64,0.01,1.27,0,1.91,0
		c0.1,0,0.21-0.02,0.29,0.07c0,0.18-0.01,0.37,0.13,0.52c-0.88,0-1.77,0-2.65,0c-0.26-0.11-0.52-0.21-0.71-0.43
		c-0.29-0.32-0.41-0.69-0.36-1.12c0.13-1.11,0.3-2.21,0.36-3.32c0.08-1.43,0.75-2.41,2.03-3c0.02-0.01,0.05-0.03,0.07-0.04
		c0.15-0.14,0.35-0.15,0.52-0.22C5.01,14.36,5.19,14.25,5.39,14.31z"/>
	<path class="st0" d="M16.76,22.53c0.19-0.13,0.11-0.35,0.18-0.51c0.08-0.09,0.18-0.07,0.29-0.07c0.62,0,1.24,0,1.87,0
		c0.54,0,0.89-0.39,0.82-0.94c-0.15-1.23-0.29-2.47-0.41-3.7c-0.09-0.8-0.48-1.39-1.13-1.83c-0.35-0.24-0.74-0.4-1.14-0.5
		c-0.1-0.02-0.22-0.03-0.28-0.14c-0.05-0.18-0.05-0.35,0.01-0.52c0.21-0.07,0.38,0.05,0.57,0.09c0.18,0.07,0.38,0.09,0.52,0.22
		c0.47,0.24,0.92,0.51,1.28,0.91c0.44,0.49,0.69,1.05,0.76,1.71c0.13,1.23,0.26,2.47,0.41,3.7c0.09,0.71-0.29,1.33-0.98,1.54
		c-0.03,0.01-0.07,0.01-0.09,0.05C18.52,22.53,17.64,22.53,16.76,22.53z"/>
	<path class="st0" d="M14.67,22.02c0.07,0.16-0.01,0.39,0.18,0.51c-2.45,0-4.89,0-7.34,0c0.14-0.15,0.13-0.33,0.13-0.51
		c0.04-0.04,0.08-0.06,0.13-0.07c0.08,0,0.15-0.01,0.23-0.01c0.21-0.01,0.41-0.01,0.62-0.01c0.08,0.01,0.16-0.01,0.24,0
		c0.21,0,0.42-0.01,0.63,0c0.08,0.01,0.16-0.01,0.24,0c0.21,0,0.42-0.01,0.63,0c0.08,0.01,0.16-0.01,0.24,0c0.21,0,0.42-0.01,0.63,0
		c0.08,0.01,0.16-0.01,0.24,0c0.21,0,0.42-0.01,0.63,0c0.08,0.01,0.16-0.01,0.24,0c0.21,0,0.42-0.01,0.63,0
		c0.08,0.01,0.16-0.01,0.24,0c0.21,0,0.42-0.01,0.63,0c0.08,0.01,0.15,0,0.23,0c0.19,0.01,0.37-0.02,0.56,0.02
		C14.64,21.98,14.65,21.99,14.67,22.02z"/>
	<path class="st0" d="M13.8,11.62c0.15-0.18,0.31-0.36,0.46-0.54c0.07,0.04,0.14,0.02,0.21,0.02c0.69,0,1.37,0,2.06,0.01
		c0.83,0.01,1.47,0.64,1.48,1.46c0.01,0.69,0,1.37,0,2.06c-0.18-0.06-0.35-0.12-0.52-0.18c-0.08-0.09-0.07-0.2-0.07-0.31
		c0-0.47-0.02-0.95,0.01-1.43c0.04-0.6-0.39-1.05-1.03-1.02c-0.76,0.03-1.51,0.01-2.27,0.01C14.02,11.69,13.89,11.72,13.8,11.62z"/>
	<path class="st0" d="M7.86,11.1c0.16,0.18,0.31,0.35,0.47,0.52c-0.09,0.09-0.2,0.07-0.31,0.07c-0.71,0-1.42,0-2.13,0
		c-0.64,0-1.01,0.36-1.01,1.01c-0.01,0.49,0,0.97,0,1.45c0,0.1,0.01,0.21-0.06,0.29c-0.17,0.06-0.35,0.12-0.52,0.18
		c0-0.6,0.02-1.18,0-1.78c-0.03-0.88,0.35-1.6,1.34-1.75c0.09-0.05,0.19-0.06,0.29-0.06c0.55,0,1.11,0,1.66,0
		C7.68,11.04,7.78,11.04,7.86,11.1z"/>
	<g>
		<path class="st0" d="M7.71,14.22C7.7,14.03,7.7,13.85,7.7,13.66c-0.01-0.38-0.14-0.53-0.52-0.53c-0.43-0.01-0.87-0.01-1.3,0
			c-0.38,0.01-0.52,0.15-0.52,0.53c-0.01,0.22,0,0.43-0.01,0.65c0.02,0.19,0.01,0.38,0.01,0.57c-0.01,2.36-0.01,4.73,0,7.09
			c0.02,0.21-0.05,0.44,0.19,0.57c0.65,0,1.3,0,1.96,0c0.24-0.12,0.18-0.34,0.19-0.54c0.01-0.18,0-0.36,0-0.54
			c-0.01-0.08,0.01-0.16,0-0.24c0-0.21,0.01-0.42,0-0.63c-0.01-0.08,0.01-0.16,0-0.24c0-0.21,0.01-0.43,0-0.64
			c-0.01-0.08,0.01-0.16,0-0.24c0.01-0.34,0.01-0.68,0.01-1.01C7.71,17.04,7.69,15.63,7.71,14.22z M7.11,21.7
			c0,0.36,0.06,0.31-0.33,0.32c-0.22,0.01-0.44-0.01-0.65,0c-0.18,0.01-0.2-0.05-0.2-0.21c0.01-1.32,0.01-2.64,0.01-3.97
			c0-1.29,0.01-2.59-0.01-3.88c0-0.18,0.03-0.26,0.23-0.24c0.25,0.02,0.5,0.01,0.76,0c0.16-0.01,0.19,0.05,0.19,0.19
			c-0.01,1.79-0.01,3.57-0.01,5.36C7.11,20.08,7.12,20.89,7.11,21.7z"/>
	</g>
	<g>
		<path class="st0" d="M16.96,20.12c0.01-1.74-0.01-3.49,0.01-5.24c-0.01-0.19-0.02-0.39,0-0.58c-0.01-0.22-0.01-0.44-0.01-0.67
			c-0.01-0.38-0.12-0.49-0.49-0.5c-0.43-0.01-0.85,0-1.28,0c-0.43,0-0.51,0.09-0.55,0.51c0.01,0.19,0.04,0.39-0.03,0.58
			c0,0.02,0.01,0.05,0.02,0.07c0.03,0.12,0.03,0.24,0.03,0.36c0,1.1,0,2.2,0,3.29c0,1.34,0.01,2.67-0.01,4.01
			c0.02,0.21-0.06,0.44,0.19,0.57c0.64,0,1.28,0,1.91,0c0.12-0.05,0.19-0.14,0.19-0.28c0-0.1,0.02-0.19,0.02-0.29
			C16.95,21.34,16.96,20.73,16.96,20.12z M16.17,22.02c-0.26-0.02-0.52-0.01-0.78,0c-0.13,0.01-0.19-0.03-0.19-0.18
			c0.01-0.95,0.02-1.89,0.02-2.84c0-0.72-0.01-1.43-0.02-2.14c0-0.91,0-1.82,0-2.73c0-0.09,0.01-0.18,0.01-0.26
			c0-0.12,0.05-0.16,0.17-0.16c0.27,0.01,0.53,0.02,0.8,0c0.18-0.01,0.21,0.06,0.21,0.22c-0.01,1.31-0.01,2.62-0.01,3.93
			c0,1.31-0.01,2.62,0.01,3.93C16.4,21.96,16.36,22.03,16.17,22.02z"/>
	</g>
	<g>
		<path class="st1" d="M15.27,7.02c-0.27,0.1-0.43-0.01-0.43-0.29c-0.01-0.34-0.01-0.68,0-1.02c0.02-0.55-0.14-1.04-0.39-1.51
			c-0.05-0.1-0.12-0.15-0.23-0.16c-0.55-0.08-1.09-0.07-1.64-0.01c-1.02,0.1-2.02,0.36-3.03,0.52C8.8,4.65,8.04,4.73,7.29,4.54
			c-0.2-0.05-0.22-0.01-0.22,0.18C7.11,5.38,7.12,6.04,7.14,6.7c0.01,0.28-0.12,0.38-0.39,0.32C6.57,6.98,6.4,6.89,6.21,6.75
			c0.02,0.69,0.13,1.29,0.52,1.84C6.8,8.68,6.89,8.78,7,8.75C7.3,8.7,7.32,8.89,7.37,9.1c0.28,1.29,0.94,2.32,2.11,2.98
			c0.59,0.33,1.22,0.58,1.9,0.44c1.51-0.32,2.57-1.18,3.11-2.66c0.12-0.33,0.18-0.67,0.25-1.01c0.02-0.12,0.07-0.22,0.21-0.19
			c0.22,0.05,0.35-0.07,0.44-0.23c0.3-0.53,0.38-1.11,0.36-1.76C15.59,6.84,15.45,6.95,15.27,7.02z"/>
		<path class="st1" d="M15.42,2.89c-0.13-0.21-0.27-0.41-0.58-0.38c-0.13,0.01-0.2-0.1-0.24-0.21c-0.16-0.4-0.46-0.67-0.83-0.88
			c-0.83-0.46-1.72-0.5-2.63-0.41C10.31,1.09,9.52,1.32,8.7,1.45C7.77,1.59,6.88,1.47,6.02,1.05c-0.13-0.07-0.19-0.08-0.22,0.1
			C5.68,1.89,5.75,2.59,6.17,3.24c0.07,0.11,0.09,0.21,0.04,0.35C5.97,4.27,5.99,4.97,6.17,5.67c0.07,0.28,0.19,0.54,0.47,0.74
			c-0.01-0.17-0.02-0.3-0.02-0.44c-0.02-0.6-0.05-1.2-0.07-1.8C6.55,3.92,6.72,3.79,6.94,3.89C7.57,4.18,8.24,4.17,8.9,4.1
			c0.94-0.1,1.85-0.32,2.77-0.48c0.86-0.15,1.73-0.22,2.61-0.11c0.21,0.03,0.43,0.1,0.53,0.29c0.23,0.4,0.43,0.82,0.5,1.28
			c0.06,0.39,0.02,0.8,0.04,1.25c0.05-0.07,0.07-0.1,0.09-0.13c0.04-0.06,0.07-0.13,0.1-0.19c0.27-0.69,0.3-1.41,0.19-2.13
			C15.69,3.53,15.61,3.19,15.42,2.89z"/>
		<path class="st0" d="M16,6.25c0.38-0.95,0.39-1.93,0.15-2.92c-0.11-0.46-0.28-0.93-0.7-1.15c-0.33-0.17-0.52-0.43-0.76-0.69
			c-0.65-0.69-1.51-0.95-2.43-1.01c-1.12-0.09-2.19,0.19-3.28,0.41C7.88,1.1,6.83,1.01,5.88,0.36C5.7,0.23,5.53,0.29,5.46,0.51
			c-0.32,0.96-0.32,1.9,0.17,2.81c0.05,0.1,0.06,0.19,0.03,0.3C5.45,4.46,5.46,5.3,5.79,6.11c0.08,0.2,0.13,0.38,0.12,0.61
			C5.85,7.33,6,7.92,6.27,8.48c0.12,0.23,0.27,0.43,0.5,0.56c0.05,0.05,0.1,0.09,0.18,0.07c0.19,0.07,0.12,0.26,0.18,0.39
			c0.04,0.1,0.01,0.21,0.05,0.32c0.17,0.46,0.35,0.91,0.65,1.3c0.16,0.19,0.32,0.39,0.5,0.57c0.14,0.15,0.29,0.29,0.46,0.4
			c0.07,0.05,0.14,0.11,0.15,0.21c0.01,0.25,0.03,0.5-0.03,0.75c-0.04,0.15-0.12,0.23-0.26,0.29c-0.24,0.1-0.49,0.17-0.74,0.24
			c-0.09,0.02-0.19,0.03-0.24,0.12c0.01,0.18-0.04,0.35,0.02,0.53c0.08,0.05,0.15,0.02,0.23,0c0.18-0.04,0.36-0.09,0.54-0.15
			c0.16-0.05,0.29-0.03,0.43,0.06c1.15,0.78,2.39,0.88,3.7,0.46c0.14-0.07,0.28-0.12,0.42-0.18c0.14-0.07,0.28-0.15,0.4-0.24
			c0.17-0.14,0.35-0.18,0.55-0.09c0.09,0.02,0.19,0.04,0.28,0.08c0.14,0.03,0.27,0.12,0.43,0.05c0.13-0.16,0.07-0.35,0.03-0.52
			c-0.05-0.1-0.15-0.1-0.24-0.12c-0.25-0.07-0.5-0.14-0.74-0.23c-0.14-0.05-0.24-0.15-0.26-0.29c-0.05-0.48-0.22-1,0.35-1.32
			c0.01-0.01,0.02-0.02,0.03-0.03c0.17-0.19,0.38-0.35,0.46-0.61c0.28-0.38,0.44-0.8,0.61-1.23c0.11-0.1,0.09-0.22,0.1-0.35
			c0.02-0.24,0.01-0.51,0.35-0.55c0.05-0.01,0.1-0.05,0.14-0.09c0.18-0.15,0.3-0.35,0.37-0.57c0.2-0.62,0.41-1.24,0.14-1.89
			C15.96,6.33,15.98,6.3,16,6.25z M13.13,13.65c-0.61,0.42-1.3,0.61-2.04,0.6c-0.69-0.01-1.32-0.2-1.9-0.58
			c-0.1-0.07-0.15-0.1-0.05-0.22c0.13-0.18,0.18-0.39,0.19-0.61c0-0.13,0-0.27,0-0.45c1.25,0.72,2.44,0.66,3.66-0.13
			c0,0.18,0,0.32,0,0.45c-0.01,0.28,0.04,0.55,0.21,0.78C13.28,13.58,13.19,13.61,13.13,13.65z M15.39,8.43
			c-0.09,0.16-0.21,0.29-0.44,0.23c-0.13-0.03-0.18,0.07-0.21,0.19c-0.07,0.34-0.13,0.68-0.25,1.01c-0.53,1.47-1.6,2.33-3.11,2.66
			c-0.68,0.15-1.31-0.1-1.9-0.44c-1.17-0.66-1.83-1.69-2.11-2.98C7.33,8.89,7.31,8.7,7.01,8.75c-0.1,0.02-0.2-0.08-0.27-0.16
			C6.35,8.05,6.25,7.44,6.23,6.75c0.19,0.14,0.35,0.22,0.53,0.27c0.27,0.06,0.4-0.04,0.39-0.32C7.14,6.04,7.11,5.39,7.08,4.72
			C7.07,4.54,7.1,4.49,7.3,4.54c0.75,0.19,1.51,0.1,2.26-0.01c1.01-0.16,2.01-0.41,3.03-0.52c0.55-0.05,1.09-0.07,1.64,0.01
			c0.12,0.02,0.18,0.07,0.23,0.16c0.24,0.47,0.41,0.97,0.39,1.51c-0.02,0.34-0.01,0.68,0,1.02c0.01,0.28,0.16,0.39,0.43,0.29
			c0.17-0.06,0.32-0.18,0.48-0.35C15.78,7.32,15.7,7.9,15.39,8.43z M15.55,6.01c-0.02,0.07-0.06,0.13-0.1,0.19
			c-0.02,0.03-0.04,0.05-0.09,0.13c-0.02-0.46,0.02-0.86-0.04-1.25c-0.07-0.46-0.27-0.88-0.5-1.28c-0.11-0.19-0.32-0.26-0.53-0.29
			c-0.88-0.12-1.74-0.04-2.61,0.11C10.75,3.78,9.83,4,8.91,4.1C8.24,4.17,7.58,4.18,6.95,3.89c-0.23-0.1-0.4,0.02-0.39,0.29
			c0.02,0.6,0.04,1.2,0.07,1.8C6.63,6.1,6.64,6.24,6.64,6.41c-0.28-0.2-0.39-0.46-0.47-0.74c-0.18-0.7-0.2-1.4,0.04-2.09
			c0.04-0.13,0.02-0.23-0.05-0.35C5.76,2.59,5.68,1.89,5.81,1.15c0.03-0.18,0.09-0.16,0.22-0.1C6.88,1.47,7.77,1.58,8.7,1.44
			c0.81-0.12,1.61-0.35,2.43-0.44c0.91-0.09,1.8-0.05,2.63,0.41c0.37,0.21,0.67,0.47,0.83,0.88c0.04,0.11,0.11,0.22,0.24,0.21
			c0.3-0.02,0.44,0.17,0.58,0.38c0.18,0.3,0.27,0.64,0.32,0.98C15.84,4.6,15.82,5.31,15.55,6.01z"/>
	</g>
</g>
</svg>
