<?xml version="1.0" encoding="utf-8"?>
<!-- Generator: Adobe Illustrator 24.1.0, SVG Export Plug-In . SVG Version: 6.00 Build 0)  -->
<svg version="1.1" id="Layer_1" xmlns="http://www.w3.org/2000/svg" xmlns:xlink="http://www.w3.org/1999/xlink" x="0px" y="0px"
	 viewBox="0 0 36.35 32.94" style="enable-background:new 0 0 36.35 32.94;" xml:space="preserve">
<style type="text/css">
	.st0{fill:url(#SVGID_1_);}
	.st1{fill:url(#SVGID_2_);}
	.st2{fill:url(#SVGID_3_);}
</style>
<g>
	<linearGradient id="SVGID_1_" gradientUnits="userSpaceOnUse" x1="4.4924" y1="16.4708" x2="30.8871" y2="16.4708">
		<stop  offset="0" style="stop-color:#E0081B"/>
		<stop  offset="0.9995" style="stop-color:#92172D"/>
	</linearGradient>
	<path class="st0" d="M30.89,5.01c-0.05,0.16-0.11,0.33-0.17,0.49c-0.13,0.35-0.35,0.62-0.69,0.79c-0.24,0.12-0.29,0.67-0.07,0.83
		c0.39,0.28,0.52,0.68,0.56,1.12c0.08,0.79-0.1,1.55-0.28,2.32c-1.11,4.85-2.22,9.71-3.33,14.56c-0.04,0.16-0.03,0.3,0.04,0.45
		c0.28,0.62,0.31,1.25,0.1,1.89c-0.48,1.47-0.95,2.94-1.42,4.41c-0.11,0.36-0.26,0.46-0.63,0.46c-6.09,0-12.17,0-18.26,0
		c-0.29,0-0.51-0.08-0.61-0.37c-0.49-1.46-0.98-2.92-1.45-4.39c-0.17-0.54-0.23-1.12-0.13-1.68c0.19-1.1,1.02-1.8,2.16-1.92
		c0.95-0.1,1.87,0.07,2.79,0.22c2.82,0.44,5.61,1,8.4,1.58c1.03,0.21,2.05,0.43,3.08,0.65c0.04,0.01,0.08,0.01,0.15,0.02
		c-0.24-0.6-0.45-1.18-0.58-1.78c-0.26-1.25-0.25-2.5-0.03-3.75c0.47-2.71,1.69-5.11,3.12-7.41c0.45-0.73,0.93-1.44,1.41-2.15
		c0.44-0.66,0.88-1.32,1.24-2.03c0.33-0.67,0.75-1.28,1.34-1.76c0.28-0.22,0.57-0.42,0.92-0.49c0.27-0.06,0.23-0.23,0.24-0.41
		c0.01-0.18-0.03-0.26-0.23-0.31c-0.94-0.25-1.43-1.01-1.36-2.15c0.05-0.87,0.3-1.7,0.77-2.45c0.35-0.56,0.84-0.91,1.45-1.13
		c0.23,0,0.45,0,0.68,0c0.42,0.3,0.59,0.74,0.68,1.23c0.05,0.27,0.09,0.54,0.13,0.82C30.89,3.44,30.89,4.23,30.89,5.01z
		 M25.97,24.32c0.03-0.1,0.06-0.19,0.08-0.28c1.11-4.84,2.22-9.69,3.33-14.53c0.08-0.35,0.15-0.71,0.15-1.07
		c0-0.27-0.1-0.42-0.41-0.4c-0.39,0.03-0.71,0.18-0.99,0.45c-0.42,0.4-0.7,0.89-0.95,1.4c-0.27,0.57-0.61,1.1-0.96,1.62
		c-0.63,0.93-1.26,1.86-1.84,2.82c-1.47,2.44-2.73,4.97-2.94,7.88c-0.08,1.15,0.08,2.25,0.49,3.34
		C22.86,23.87,24.69,23.42,25.97,24.32z M7.22,25.02c-0.2,0-0.39-0.02-0.59,0c-0.61,0.06-0.92,0.37-1.02,0.97
		c-0.12,0.7,0.09,1.34,0.29,2c0.03,0.11,0.1,0.13,0.2,0.14c0.54,0.05,1.08,0.12,1.62,0.17c0.93,0.09,1.86,0.17,2.79,0.27
		c1.12,0.11,2.25,0.24,3.37,0.35c0.93,0.09,1.86,0.17,2.79,0.26c1.32,0.13,2.63,0.28,3.95,0.42c0.16,0.02,0.25-0.01,0.3-0.21
		c0.12-0.52,0.27-1.03,0.41-1.54c0.05-0.18,0.02-0.29-0.2-0.3c-0.18-0.01-0.36-0.08-0.54-0.11c-3.15-0.68-6.3-1.33-9.47-1.89
		C9.84,25.31,8.54,25.07,7.22,25.02z M23.14,31.27c0.43,0,0.87-0.01,1.3,0c0.18,0,0.27-0.04,0.33-0.23
		c0.42-1.34,0.86-2.68,1.28-4.02c0.16-0.5,0.1-0.95-0.25-1.39c-0.45-0.57-1.02-0.8-1.71-0.67c-0.64,0.13-1.02,0.59-1.19,1.21
		c-0.43,1.62-0.85,3.24-1.28,4.86c-0.05,0.19,0,0.23,0.18,0.23C22.25,31.26,22.69,31.27,23.14,31.27z M6.35,29.28
		c0.19,0.58,0.39,1.13,0.56,1.69c0.07,0.22,0.16,0.3,0.4,0.3c4.27-0.01,8.54,0,12.81,0c0.07,0,0.15,0.02,0.22-0.01
		c0.25-0.09,0.2-0.33,0.23-0.52c0.02-0.17-0.15-0.08-0.23-0.09c-0.72-0.08-1.43-0.14-2.15-0.21c-0.94-0.09-1.88-0.19-2.82-0.29
		c-0.71-0.07-1.41-0.14-2.12-0.21c-0.94-0.09-1.88-0.19-2.82-0.29c-0.74-0.08-1.47-0.16-2.21-0.22C7.61,29.39,7,29.28,6.35,29.28z
		 M29.83,3.49C29.8,3,29.75,2.43,29.72,1.87c-0.01-0.18-0.08-0.18-0.21-0.14c-0.33,0.11-0.56,0.34-0.73,0.63
		c-0.46,0.76-0.57,1.6-0.49,2.46c0.02,0.27,0.19,0.43,0.44,0.49c0.17,0.03,0.35,0.03,0.52,0.04c0.32,0.01,0.48-0.15,0.54-0.47
		C29.86,4.45,29.81,4,29.83,3.49z"/>
</g>
<g>
	<g>
		<linearGradient id="SVGID_2_" gradientUnits="userSpaceOnUse" x1="4.4924" y1="16.4708" x2="30.8871" y2="16.4708">
			<stop  offset="0" style="stop-color:#E0081B"/>
			<stop  offset="0.9995" style="stop-color:#92172D"/>
		</linearGradient>
		<path class="st1" d="M30.89,5.01c-0.05,0.16-0.11,0.33-0.17,0.49c-0.13,0.35-0.35,0.62-0.69,0.79c-0.24,0.12-0.29,0.67-0.07,0.83
			c0.39,0.28,0.52,0.68,0.56,1.12c0.08,0.79-0.1,1.55-0.28,2.32c-1.11,4.85-2.22,9.71-3.33,14.56c-0.04,0.16-0.03,0.3,0.04,0.45
			c0.28,0.62,0.31,1.25,0.1,1.89c-0.48,1.47-0.95,2.94-1.42,4.41c-0.11,0.36-0.26,0.46-0.63,0.46c-6.09,0-12.17,0-18.26,0
			c-0.29,0-0.51-0.08-0.61-0.37c-0.49-1.46-0.98-2.92-1.45-4.39c-0.17-0.54-0.23-1.12-0.13-1.68c0.19-1.1,1.02-1.8,2.16-1.92
			c0.95-0.1,1.87,0.07,2.79,0.22c2.82,0.44,5.61,1,8.4,1.58c1.03,0.21,2.05,0.43,3.08,0.65c0.04,0.01,0.08,0.01,0.15,0.02
			c-0.24-0.6-0.45-1.18-0.58-1.78c-0.26-1.25-0.25-2.5-0.03-3.75c0.47-2.71,1.69-5.11,3.12-7.41c0.45-0.73,0.93-1.44,1.41-2.15
			c0.44-0.66,0.88-1.32,1.24-2.03c0.33-0.67,0.75-1.28,1.34-1.76c0.28-0.22,0.57-0.42,0.92-0.49c0.27-0.06,0.23-0.23,0.24-0.41
			c0.01-0.18-0.03-0.26-0.23-0.31c-0.94-0.25-1.43-1.01-1.36-2.15c0.05-0.87,0.3-1.7,0.77-2.45c0.35-0.56,0.84-0.91,1.45-1.13
			c0.23,0,0.45,0,0.68,0c0.42,0.3,0.59,0.74,0.68,1.23c0.05,0.27,0.09,0.54,0.13,0.82C30.89,3.44,30.89,4.23,30.89,5.01z
			 M25.97,24.32c0.03-0.1,0.06-0.19,0.08-0.28c1.11-4.84,2.22-9.69,3.33-14.53c0.08-0.35,0.15-0.71,0.15-1.07
			c0-0.27-0.1-0.42-0.41-0.4c-0.39,0.03-0.71,0.18-0.99,0.45c-0.42,0.4-0.7,0.89-0.95,1.4c-0.27,0.57-0.61,1.1-0.96,1.62
			c-0.63,0.93-1.26,1.86-1.84,2.82c-1.47,2.44-2.73,4.97-2.94,7.88c-0.08,1.15,0.08,2.25,0.49,3.34
			C22.86,23.87,24.69,23.42,25.97,24.32z M7.22,25.02c-0.2,0-0.39-0.02-0.59,0c-0.61,0.06-0.92,0.37-1.02,0.97
			c-0.12,0.7,0.09,1.34,0.29,2c0.03,0.11,0.1,0.13,0.2,0.14c0.54,0.05,1.08,0.12,1.62,0.17c0.93,0.09,1.86,0.17,2.79,0.27
			c1.12,0.11,2.25,0.24,3.37,0.35c0.93,0.09,1.86,0.17,2.79,0.26c1.32,0.13,2.63,0.28,3.95,0.42c0.16,0.02,0.25-0.01,0.3-0.21
			c0.12-0.52,0.27-1.03,0.41-1.54c0.05-0.18,0.02-0.29-0.2-0.3c-0.18-0.01-0.36-0.08-0.54-0.11c-3.15-0.68-6.3-1.33-9.47-1.89
			C9.84,25.31,8.54,25.07,7.22,25.02z M23.14,31.27c0.43,0,0.87-0.01,1.3,0c0.18,0,0.27-0.04,0.33-0.23
			c0.42-1.34,0.86-2.68,1.28-4.02c0.16-0.5,0.1-0.95-0.25-1.39c-0.45-0.57-1.02-0.8-1.71-0.67c-0.64,0.13-1.02,0.59-1.19,1.21
			c-0.43,1.62-0.85,3.24-1.28,4.86c-0.05,0.19,0,0.23,0.18,0.23C22.25,31.26,22.69,31.27,23.14,31.27z M6.35,29.28
			c0.19,0.58,0.39,1.13,0.56,1.69c0.07,0.22,0.16,0.3,0.4,0.3c4.27-0.01,8.54,0,12.81,0c0.07,0,0.15,0.02,0.22-0.01
			c0.25-0.09,0.2-0.33,0.23-0.52c0.02-0.17-0.15-0.08-0.23-0.09c-0.72-0.08-1.43-0.14-2.15-0.21c-0.94-0.09-1.88-0.19-2.82-0.29
			c-0.71-0.07-1.41-0.14-2.12-0.21c-0.94-0.09-1.88-0.19-2.82-0.29c-0.74-0.08-1.47-0.16-2.21-0.22C7.61,29.39,7,29.28,6.35,29.28z
			 M29.83,3.49C29.8,3,29.75,2.43,29.72,1.87c-0.01-0.18-0.08-0.18-0.21-0.14c-0.33,0.11-0.56,0.34-0.73,0.63
			c-0.46,0.76-0.57,1.6-0.49,2.46c0.02,0.27,0.19,0.43,0.44,0.49c0.17,0.03,0.35,0.03,0.52,0.04c0.32,0.01,0.48-0.15,0.54-0.47
			C29.86,4.45,29.81,4,29.83,3.49z"/>
	</g>
	<linearGradient id="SVGID_3_" gradientUnits="userSpaceOnUse" x1="11.5742" y1="19.4397" x2="27.9965" y2="19.4397">
		<stop  offset="0" style="stop-color:#E0081B"/>
		<stop  offset="0.9995" style="stop-color:#92172D"/>
	</linearGradient>
	<path class="st2" d="M28,19.43l-0.87-0.39l-12.3-2.25c0,0-1.84-0.33-2.67,0.49c-0.82,0.82-0.54,2.15-0.54,2.15s0.22,1.82,2.45,1.82
		s12.38,0.78,12.38,0.78l0.99,0.12L28,19.43z"/>
</g>
</svg>
