<?xml version="1.0" encoding="utf-8"?>
<!-- Generator: Adobe Illustrator 24.1.0, SVG Export Plug-In . SVG Version: 6.00 Build 0)  -->
<svg version="1.1" id="Layer_1" xmlns="http://www.w3.org/2000/svg" xmlns:xlink="http://www.w3.org/1999/xlink" x="0px" y="0px"
	 viewBox="0 0 36.35 32.94" style="enable-background:new 0 0 36.35 32.94;" xml:space="preserve">
<style type="text/css">
	.st0{fill:url(#SVGID_1_);}
	.st1{fill:url(#SVGID_2_);}
	.st2{fill:url(#SVGID_3_);}
	.st3{fill:url(#SVGID_4_);}
</style>
<g>
	<linearGradient id="SVGID_1_" gradientUnits="userSpaceOnUse" x1="0.6603" y1="16.47" x2="15.4163" y2="16.47">
		<stop  offset="0" style="stop-color:#E0081B"/>
		<stop  offset="0.9995" style="stop-color:#92172D"/>
	</linearGradient>
	<path class="st0" d="M0.66,12.33c0.21-0.31,0.51-0.4,0.88-0.39c0.75,0.02,1.51,0,2.26,0.01c0.22,0,0.29-0.07,0.28-0.28
		c-0.02-0.28-0.01-0.55,0-0.83c0.03-0.7,0.49-1.15,1.2-1.15c0.74-0.01,1.49,0,2.23,0c0.5,0,0.93,0.17,1.29,0.52
		c0.51,0.51,1.02,1.01,1.53,1.53c0.15,0.15,0.31,0.22,0.52,0.22c0.92-0.01,1.84-0.01,2.76,0c1.09,0,1.81,0.73,1.81,1.82
		c0,1.79-0.01,3.59,0,5.38c0.01,1.12-0.82,1.87-1.83,1.83c-0.91-0.04-1.82,0-2.73-0.01c-0.21,0-0.38,0.06-0.53,0.22
		c-0.5,0.52-1.02,1.02-1.53,1.53c-0.34,0.34-0.74,0.52-1.22,0.52c-0.79,0-1.57,0.01-2.36,0c-0.71-0.01-1.14-0.47-1.15-1.19
		c0-0.24-0.02-0.49,0-0.73c0.02-0.26-0.07-0.35-0.34-0.35c-0.76,0.01-1.53-0.01-2.29,0.01C1.1,21,0.83,20.9,0.66,20.58
		c0-0.09,0-0.18,0-0.27c0.16-0.33,0.43-0.42,0.79-0.41c1.52,0.01,3.04,0,4.55,0.01c0.23,0,0.37-0.03,0.37-0.32
		c-0.01-2.07-0.01-4.14,0-6.21c0-0.26-0.08-0.33-0.34-0.33c-1.51,0.01-3.01-0.01-4.52,0.01c-0.37,0-0.65-0.08-0.84-0.39
		C0.66,12.56,0.66,12.44,0.66,12.33z M7.44,16.48C7.44,16.48,7.45,16.48,7.44,16.48c0,1.3,0,2.59,0,3.89c0,0.43-0.18,0.6-0.61,0.61
		c-0.27,0.01-0.53,0-0.8,0c-0.88,0-0.87,0-0.87,0.88c0,0.26,0.1,0.32,0.33,0.31c0.63-0.01,1.26-0.01,1.9,0
		c0.29,0,0.51-0.09,0.71-0.3c0.55-0.56,1.12-1.11,1.66-1.67c0.22-0.23,0.46-0.31,0.77-0.31c1,0.01,1.99,0.01,2.99,0.01
		c0.58,0,0.79-0.21,0.79-0.78c0-1.77,0-3.54,0-5.32c0-0.55-0.22-0.76-0.77-0.76c-1.02,0-2.04,0-3.06,0.01
		c-0.27,0-0.49-0.08-0.68-0.28c-0.55-0.56-1.12-1.11-1.66-1.67c-0.21-0.22-0.44-0.34-0.76-0.32c-0.45,0.02-0.91,0.01-1.36,0
		c-0.88,0-0.87-0.01-0.85,0.88c0.01,0.24,0.09,0.3,0.31,0.29c0.43-0.01,0.86-0.01,1.3,0c0.47,0.01,0.66,0.19,0.66,0.67
		C7.45,13.91,7.44,15.19,7.44,16.48z"/>
	<linearGradient id="SVGID_2_" gradientUnits="userSpaceOnUse" x1="17.7147" y1="16.4712" x2="34.7192" y2="16.4712">
		<stop  offset="0" style="stop-color:#E0081B"/>
		<stop  offset="0.9995" style="stop-color:#92172D"/>
	</linearGradient>
	<path class="st1" d="M17.72,16.47c0-1.66,0-3.32,0-4.99c0-1.07,0.72-1.79,1.79-1.79c2.94,0,5.88,0,8.82,0
		c1.14,0,1.83,0.67,1.85,1.8c0.01,0.49-0.08,0.46,0.47,0.46c1.14,0,2.28,0,3.43,0c0.25,0,0.46,0.08,0.58,0.31
		c0.1,0.18,0.08,0.37-0.02,0.54c-0.13,0.21-0.34,0.26-0.58,0.26c-1.18,0-2.35,0.01-3.53-0.01c-0.28,0-0.35,0.08-0.35,0.35
		c0.01,2.05,0.01,4.1,0,6.15c0,0.28,0.09,0.36,0.36,0.36c1.19-0.01,2.37,0,3.56,0c0.25,0,0.45,0.07,0.57,0.32
		c0.09,0.19,0.06,0.37-0.05,0.53c-0.13,0.2-0.34,0.23-0.56,0.23c-1.18,0-2.35,0.01-3.53,0c-0.28,0-0.36,0.08-0.36,0.35
		c0.01,0.98-0.41,1.6-1.2,1.85c-0.22,0.07-0.44,0.07-0.66,0.07c-2.89,0-5.79,0-8.68,0c-1.27,0-1.92-0.65-1.92-1.92
		C17.72,19.71,17.72,18.09,17.72,16.47z M18.82,16.43C18.82,16.43,18.82,16.43,18.82,16.43c0,1.66,0,3.32,0,4.99
		c0,0.53,0.21,0.75,0.74,0.75c2.94,0,5.88,0,8.81,0c0.48,0,0.71-0.24,0.71-0.72c0-3.31,0-6.62,0-9.94c0-0.51-0.22-0.73-0.73-0.73
		c-2.94,0-5.88,0-8.81,0c-0.53,0-0.72,0.2-0.72,0.72C18.82,13.16,18.82,14.79,18.82,16.43z"/>
	<linearGradient id="SVGID_3_" gradientUnits="userSpaceOnUse" x1="9.7763" y1="16.4665" x2="13.1422" y2="16.4665">
		<stop  offset="0" style="stop-color:#E0081B"/>
		<stop  offset="0.9995" style="stop-color:#92172D"/>
	</linearGradient>
	<path class="st2" d="M9.78,16.47c0-0.54-0.01-1.09,0-1.63c0.01-0.41,0.2-0.61,0.61-0.62c0.71-0.01,1.42-0.01,2.13,0
		c0.41,0.01,0.61,0.21,0.62,0.62c0.01,1.09,0.01,2.17,0,3.26c0,0.43-0.2,0.6-0.62,0.61c-0.71,0-1.42,0-2.13,0
		c-0.41,0-0.6-0.18-0.6-0.58C9.77,17.58,9.78,17.03,9.78,16.47z M10.86,16.48C10.86,16.48,10.86,16.48,10.86,16.48
		c0,0.14,0,0.29,0,0.43c-0.01,0.71-0.01,0.71,0.71,0.72c0.08,0,0.15,0,0.23,0c0.18,0.01,0.25-0.07,0.25-0.26
		c-0.01-0.61-0.01-1.21,0-1.82c0-0.19-0.08-0.25-0.26-0.24c-0.22,0.01-0.44,0.01-0.66,0c-0.21-0.01-0.27,0.09-0.27,0.28
		C10.86,15.89,10.86,16.19,10.86,16.48z"/>
	<linearGradient id="SVGID_4_" gradientUnits="userSpaceOnUse" x1="21.1184" y1="16.4677" x2="26.7557" y2="16.4677">
		<stop  offset="0" style="stop-color:#E0081B"/>
		<stop  offset="0.9995" style="stop-color:#92172D"/>
	</linearGradient>
	<path class="st3" d="M26.75,16.5c0,0.9,0,1.79,0,2.69c0,0.49-0.17,0.65-0.66,0.66c-1.42,0-2.84,0-4.26,0
		c-0.54,0-0.71-0.18-0.72-0.72c0-1.77,0-3.55,0-5.32c0-0.53,0.2-0.72,0.73-0.72c1.4,0,2.79,0,4.19,0c0.54,0,0.71,0.17,0.72,0.72
		C26.76,14.7,26.75,15.6,26.75,16.5z M25.68,16.49c0-0.67,0-1.35,0-2.02c0-0.21-0.07-0.29-0.29-0.29c-0.96,0.01-1.93,0.01-2.89,0
		c-0.21,0-0.29,0.06-0.29,0.28c0.01,1.33,0.01,2.65,0,3.98c0,0.24,0.08,0.33,0.32,0.33c0.94-0.01,1.88-0.01,2.82,0
		c0.24,0,0.33-0.07,0.33-0.32C25.67,17.8,25.68,17.14,25.68,16.49z"/>
</g>
</svg>
