<?xml version="1.0" encoding="utf-8"?>
<!-- Generator: Adobe Illustrator 24.1.0, SVG Export Plug-In . SVG Version: 6.00 Build 0)  -->
<svg version="1.1" id="Layer_1" xmlns="http://www.w3.org/2000/svg" xmlns:xlink="http://www.w3.org/1999/xlink" x="0px" y="0px"
	 viewBox="0 0 36.35 32.94" style="enable-background:new 0 0 36.35 32.94;" xml:space="preserve">
<style type="text/css">
	.st0{fill:url(#SVGID_1_);}
	.st1{fill:url(#SVGID_2_);}
	.st2{fill:url(#SVGID_3_);}
	.st3{fill:url(#SVGID_4_);}
</style>
<g>
	<g>
		<linearGradient id="SVGID_1_" gradientUnits="userSpaceOnUse" x1="4.4771" y1="16.4708" x2="30.9024" y2="16.4708">
			<stop  offset="0" style="stop-color:#E0081B"/>
			<stop  offset="0.9995" style="stop-color:#92172D"/>
		</linearGradient>
		<path class="st0" d="M30.9,5c-0.05,0.16-0.11,0.33-0.17,0.49c-0.13,0.35-0.35,0.63-0.7,0.79c-0.24,0.12-0.29,0.67-0.07,0.83
			c0.39,0.28,0.52,0.68,0.56,1.12c0.08,0.79-0.1,1.56-0.28,2.32c-1.12,4.86-2.22,9.72-3.34,14.58c-0.04,0.16-0.03,0.3,0.04,0.45
			c0.28,0.62,0.31,1.25,0.1,1.9c-0.48,1.47-0.95,2.94-1.42,4.41c-0.12,0.36-0.26,0.46-0.63,0.46c-6.09,0-12.19,0-18.28,0
			c-0.29,0-0.51-0.08-0.61-0.37c-0.49-1.46-0.98-2.93-1.45-4.4c-0.17-0.54-0.23-1.12-0.13-1.69c0.19-1.1,1.02-1.8,2.16-1.93
			c0.95-0.1,1.87,0.08,2.8,0.22c2.82,0.44,5.62,1.01,8.41,1.58c1.03,0.21,2.06,0.43,3.08,0.65c0.04,0.01,0.08,0.01,0.15,0.02
			c-0.24-0.6-0.45-1.18-0.58-1.78c-0.26-1.25-0.25-2.5-0.03-3.75c0.47-2.71,1.69-5.11,3.12-7.42c0.45-0.73,0.93-1.44,1.41-2.15
			c0.44-0.66,0.88-1.32,1.24-2.03c0.34-0.67,0.75-1.28,1.35-1.76c0.28-0.22,0.57-0.42,0.92-0.49c0.27-0.06,0.23-0.23,0.24-0.41
			c0.01-0.18-0.03-0.26-0.23-0.31c-0.94-0.25-1.43-1.01-1.36-2.15c0.05-0.88,0.3-1.7,0.77-2.45c0.35-0.56,0.84-0.92,1.45-1.13
			c0.23,0,0.45,0,0.68,0c0.42,0.3,0.59,0.74,0.68,1.23c0.05,0.27,0.09,0.54,0.13,0.82C30.9,3.43,30.9,4.21,30.9,5z M25.98,24.32
			c0.03-0.11,0.06-0.19,0.08-0.28c1.11-4.85,2.22-9.7,3.33-14.55c0.08-0.35,0.15-0.71,0.15-1.07c0-0.27-0.1-0.42-0.41-0.4
			c-0.39,0.03-0.71,0.18-0.99,0.45c-0.42,0.4-0.7,0.89-0.95,1.4c-0.27,0.57-0.61,1.1-0.96,1.62c-0.63,0.93-1.26,1.86-1.84,2.83
			c-1.47,2.45-2.73,4.97-2.94,7.89c-0.08,1.15,0.08,2.26,0.49,3.35C22.86,23.87,24.7,23.42,25.98,24.32z M7.21,25.03
			c-0.2,0-0.39-0.02-0.59,0C6.01,25.09,5.7,25.4,5.6,26c-0.12,0.7,0.09,1.35,0.29,2c0.03,0.11,0.1,0.13,0.2,0.14
			c0.54,0.05,1.08,0.12,1.62,0.17c0.93,0.09,1.86,0.17,2.8,0.27c1.12,0.11,2.25,0.24,3.37,0.35c0.93,0.09,1.86,0.17,2.8,0.26
			c1.32,0.13,2.64,0.28,3.96,0.42c0.16,0.02,0.26-0.01,0.3-0.21c0.12-0.52,0.27-1.03,0.41-1.54c0.05-0.18,0.02-0.29-0.2-0.3
			c-0.18-0.01-0.36-0.08-0.54-0.11c-3.15-0.68-6.3-1.33-9.48-1.89C9.83,25.32,8.53,25.08,7.21,25.03z M23.14,31.29
			c0.43,0,0.87-0.01,1.3,0c0.18,0,0.27-0.04,0.33-0.23c0.42-1.34,0.86-2.68,1.29-4.03c0.16-0.5,0.1-0.96-0.25-1.39
			c-0.45-0.57-1.03-0.81-1.71-0.67c-0.64,0.13-1.03,0.59-1.19,1.21c-0.43,1.62-0.85,3.25-1.28,4.87c-0.05,0.19,0,0.23,0.18,0.23
			C22.25,31.28,22.7,31.29,23.14,31.29z M6.34,29.3c0.19,0.58,0.39,1.13,0.56,1.69c0.07,0.23,0.16,0.3,0.4,0.3
			c4.27-0.01,8.55,0,12.82,0c0.07,0,0.15,0.02,0.22-0.01c0.25-0.09,0.2-0.33,0.23-0.52c0.02-0.17-0.15-0.08-0.23-0.09
			c-0.72-0.08-1.43-0.14-2.15-0.21c-0.94-0.09-1.88-0.19-2.82-0.29c-0.71-0.07-1.41-0.14-2.12-0.21c-0.94-0.09-1.88-0.19-2.82-0.29
			c-0.74-0.08-1.47-0.17-2.21-0.22C7.59,29.4,6.99,29.29,6.34,29.3z M29.85,3.47c-0.04-0.49-0.09-1.06-0.11-1.62
			c-0.01-0.18-0.08-0.18-0.21-0.14c-0.33,0.11-0.56,0.34-0.73,0.63c-0.46,0.76-0.57,1.6-0.49,2.47c0.02,0.27,0.19,0.44,0.44,0.49
			c0.17,0.03,0.35,0.03,0.52,0.04c0.32,0.01,0.48-0.15,0.54-0.47C29.88,4.43,29.82,3.99,29.85,3.47z"/>
	</g>
	<linearGradient id="SVGID_2_" gradientUnits="userSpaceOnUse" x1="7.2126" y1="10.2529" x2="18.8731" y2="10.2529">
		<stop  offset="0" style="stop-color:#E0081B"/>
		<stop  offset="0.9995" style="stop-color:#92172D"/>
	</linearGradient>
	<path class="st1" d="M8.99,14.6c0.44-4.37,4.02-7.95,8.4-8.4c-0.26-0.35-0.49-0.68-0.75-1c-0.14-0.17-0.17-0.28,0.05-0.41
		c0.2-0.12,0.41-0.39,0.58-0.37c0.17,0.02,0.3,0.33,0.45,0.52c0.34,0.44,0.67,0.89,1,1.34c0.19,0.25,0.2,0.48,0.01,0.73
		c-0.44,0.58-0.89,1.17-1.32,1.76c-0.11,0.15-0.19,0.13-0.32,0.04c-0.64-0.45-0.64-0.45-0.17-1.07c0.11-0.15,0.21-0.29,0.34-0.46
		c-3.62,0.32-6.88,3.62-7.19,7.19c0.31-0.23,0.6-0.44,0.88-0.66c0.14-0.11,0.21-0.09,0.32,0.05c0.48,0.62,0.48,0.62-0.15,1.09
		c-0.43,0.32-0.86,0.64-1.29,0.97c-0.26,0.2-0.5,0.21-0.76,0.01c-0.58-0.44-1.15-0.87-1.74-1.3c-0.16-0.11-0.16-0.19-0.05-0.34
		c0.46-0.62,0.45-0.62,1.07-0.16C8.56,14.29,8.76,14.43,8.99,14.6z"/>
	<linearGradient id="SVGID_3_" gradientUnits="userSpaceOnUse" x1="13.3475" y1="13.156" x2="21.3678" y2="13.156">
		<stop  offset="0" style="stop-color:#E0081B"/>
		<stop  offset="0.9995" style="stop-color:#92172D"/>
	</linearGradient>
	<path class="st2" d="M21.35,10.65c0,0.45,0,0.45-0.44,0.49c-2.95,0.26-5.07,1.73-6.35,4.4c-0.03,0.06-0.05,0.13-0.09,0.2
		c-0.08,0.15-0.07,0.46-0.24,0.45c-0.28-0.01-0.55-0.14-0.82-0.25c-0.12-0.05-0.02-0.17,0.01-0.24c0.77-2.11,2.17-3.68,4.17-4.69
		c1.06-0.54,2.19-0.82,3.38-0.88c0.3-0.02,0.45,0.05,0.39,0.37C21.34,10.55,21.35,10.6,21.35,10.65z"/>
	<linearGradient id="SVGID_4_" gradientUnits="userSpaceOnUse" x1="12.9096" y1="20.0968" x2="14.4191" y2="20.0968">
		<stop  offset="0" style="stop-color:#E0081B"/>
		<stop  offset="0.9995" style="stop-color:#92172D"/>
	</linearGradient>
	<path class="st3" d="M13.41,18.56c0.47,0,0.48,0,0.52,0.46c0.07,0.73,0.19,1.45,0.46,2.13c0.07,0.16,0.02,0.22-0.14,0.29
		c-0.76,0.32-0.75,0.33-0.99-0.46c-0.2-0.67-0.31-1.36-0.35-2.06c-0.02-0.31,0.08-0.41,0.37-0.36
		C13.32,18.57,13.36,18.56,13.41,18.56z"/>
</g>
</svg>
