<?xml version="1.0" encoding="utf-8"?>
<!-- Generator: Adobe Illustrator 24.1.0, SVG Export Plug-In . SVG Version: 6.00 Build 0)  -->
<svg version="1.1" id="Layer_1" xmlns="http://www.w3.org/2000/svg" xmlns:xlink="http://www.w3.org/1999/xlink" x="0px" y="0px"
	 viewBox="0 0 33.64 33.47" style="enable-background:new 0 0 33.64 33.47;" xml:space="preserve">
<style type="text/css">
	.st0{fill:url(#SVGID_1_);}
</style>
<g>
	<linearGradient id="SVGID_1_" gradientUnits="userSpaceOnUse" x1="0.7682" y1="16.6697" x2="33.0482" y2="16.6697">
		<stop  offset="0" style="stop-color:#E0081B"/>
		<stop  offset="0.9995" style="stop-color:#92172D"/>
	</linearGradient>
	<path class="st0" d="M33.05,16.68C33.1,25.53,25.77,33,16.56,32.81C7.81,32.63,0.73,25.42,0.77,16.65
		C0.81,7.64,8.03,0.48,17.05,0.53C25.9,0.57,33.08,7.82,33.05,16.68z M32.04,16.95c-0.03-2.2-0.37-4.09-1.09-5.9
		c-0.08-0.21-0.18-0.35-0.4-0.44c-1.55-0.6-3.09-1.21-4.64-1.82c-0.21-0.08-0.34-0.07-0.51,0.1c-1.36,1.37-2.73,2.74-4.1,4.1
		c-0.14,0.14-0.19,0.26-0.16,0.48c0.31,1.86,0.6,3.72,0.88,5.59c0.03,0.21,0.14,0.31,0.31,0.4c1.59,0.84,3.19,1.68,4.77,2.54
		c0.21,0.11,0.34,0.08,0.52-0.05c1.34-0.99,2.67-1.98,4.02-2.97c0.15-0.11,0.24-0.22,0.25-0.4C31.95,17.95,32.01,17.33,32.04,16.95z
		 M13.28,8.71C13.24,8.71,13.32,8.71,13.28,8.71c0-0.98-0.01-1.96,0.01-2.94c0.01-0.3-0.1-0.42-0.39-0.46
		c-1.58-0.22-3.15-0.45-4.73-0.7c-0.26-0.04-0.42,0.02-0.6,0.17c-2.01,1.6-3.54,3.57-4.56,5.93c-0.1,0.22-0.1,0.4,0,0.63
		c0.67,1.52,1.34,3.04,1.99,4.57c0.1,0.24,0.25,0.33,0.49,0.38c1.6,0.32,3.2,0.65,4.8,1c0.27,0.06,0.37-0.01,0.48-0.23
		c0.83-1.65,1.67-3.29,2.51-4.93c0.08-0.17,0.13-0.33,0.13-0.52C13.4,10.65,13.28,9.68,13.28,8.71z M26.85,23.29
		c0.06-0.19-0.07-0.31-0.3-0.44c-1.56-0.82-3.11-1.65-4.66-2.49c-0.21-0.11-0.38-0.1-0.59,0.01c-1.65,0.85-3.31,1.69-4.97,2.54
		c-0.18,0.09-0.3,0.2-0.37,0.42c-0.49,1.53-0.99,3.05-1.5,4.58c-0.08,0.24-0.03,0.37,0.16,0.53c1.25,0.99,2.51,1.98,3.74,2.99
		c0.24,0.2,0.47,0.26,0.77,0.22c2.53-0.4,4.83-1.35,6.89-2.89c0.14-0.11,0.23-0.22,0.25-0.41C26.45,26.68,26.65,25.02,26.85,23.29z
		 M7.92,28.76c0.04-0.01,0.05-0.01,0.07-0.01c1.71-0.26,3.42-0.53,5.14-0.78c0.22-0.03,0.29-0.15,0.35-0.34
		c0.48-1.49,0.96-2.97,1.46-4.46c0.08-0.25,0.05-0.4-0.13-0.58c-1.32-1.31-2.64-2.63-3.95-3.95c-0.13-0.13-0.27-0.24-0.46-0.28
		c-1.67-0.34-3.34-0.68-5-1.04c-0.27-0.06-0.36,0.02-0.46,0.24c-0.65,1.5-1.3,3-1.96,4.49c-0.08,0.19-0.06,0.34,0.01,0.51
		c1.04,2.4,2.58,4.41,4.64,6.02C7.71,28.67,7.8,28.77,7.92,28.76z M14.43,8.28C14.47,8.28,14.38,8.28,14.43,8.28
		c0,0.97,0,1.93,0,2.9c0,0.25,0.08,0.36,0.35,0.4c1.81,0.27,3.61,0.56,5.42,0.86c0.19,0.03,0.28-0.06,0.39-0.17
		c1.37-1.37,2.73-2.74,4.1-4.09c0.17-0.17,0.18-0.3,0.1-0.51c-0.61-1.53-1.22-3.06-1.81-4.6c-0.09-0.23-0.22-0.36-0.45-0.45
		c-1.07-0.42-2.17-0.71-3.31-0.9c-0.33-0.06-0.6-0.01-0.89,0.22c-1.24,1.02-2.51,2.02-3.77,3.01c-0.2,0.15-0.28,0.31-0.27,0.56
		C14.31,6.44,14.43,7.36,14.43,8.28z M21.03,19.16C21.02,19.11,21,19.05,20.99,19c-0.27-1.71-0.54-3.42-0.8-5.13
		c-0.04-0.29-0.15-0.43-0.45-0.48c-1.74-0.26-3.48-0.54-5.21-0.82c-0.21-0.03-0.33,0-0.44,0.2c-0.82,1.62-1.64,3.24-2.47,4.85
		c-0.08,0.16-0.08,0.26,0.05,0.4c1.29,1.28,2.58,2.57,3.86,3.86c0.14,0.14,0.25,0.17,0.43,0.08c1.61-0.83,3.23-1.65,4.85-2.48
		C20.95,19.41,21.07,19.34,21.03,19.16z M24.3,3.47c0.01,0.1,0,0.15,0.01,0.18c0.5,1.27,1,2.54,1.49,3.82
		c0.08,0.2,0.22,0.27,0.39,0.34c1.06,0.42,2.13,0.84,3.19,1.25c0.21,0.08,0.42,0.22,0.71,0.22C28.69,6.8,26.78,4.89,24.3,3.47z
		 M17.17,31.76c-1.18-0.94-2.29-1.83-3.4-2.72c-0.12-0.1-0.24-0.1-0.39-0.08c-0.48,0.08-0.97,0.15-1.45,0.22
		c-0.9,0.14-1.8,0.28-2.75,0.42C10.91,30.89,14.83,31.95,17.17,31.76z M2.38,12.48c-0.77,2.83-0.79,5.55,0,8.37
		C3,19.43,3.57,18.12,4.15,16.8c0.04-0.1,0.04-0.18,0-0.28C3.57,15.21,3,13.9,2.38,12.48z M31.48,20.38
		c-0.94,0.7-1.87,1.42-2.84,2.08c-0.54,0.37-0.88,0.77-0.84,1.45c0.02,0.32-0.07,0.64-0.11,0.96c-0.1,0.86-0.19,1.71-0.3,2.69
		C29.48,25.49,30.84,23.16,31.48,20.38z M9.15,3.69c0.18,0.04,0.29,0.08,0.39,0.1c1.19,0.18,2.38,0.33,3.56,0.54
		c0.41,0.07,0.69-0.03,0.97-0.29c0.32-0.29,0.68-0.54,1.01-0.81c0.67-0.54,1.34-1.07,2.11-1.69C14.27,1.55,11.65,2.22,9.15,3.69z"/>
</g>
</svg>
