<?xml version="1.0" encoding="utf-8"?>
<!-- Generator: Adobe Illustrator 24.1.2, SVG Export Plug-In . SVG Version: 6.00 Build 0)  -->
<svg version="1.1" id="Layer_1" xmlns="http://www.w3.org/2000/svg" xmlns:xlink="http://www.w3.org/1999/xlink" x="0px" y="0px"
	 viewBox="0 0 66.4 57.4" style="enable-background:new 0 0 66.4 57.4;" xml:space="preserve">
<style type="text/css">
	.st0{fill:url(#SVGID_1_);}
	.st1{fill:url(#SVGID_2_);}
	.st2{fill:url(#SVGID_3_);}
	.st3{fill:url(#SVGID_4_);}
</style>
<g>
	<linearGradient id="SVGID_1_" gradientUnits="userSpaceOnUse" x1="6.9606" y1="28.2457" x2="59.1008" y2="28.2457">
		<stop  offset="0" style="stop-color:#E0081D"/>
		<stop  offset="0.9995" style="stop-color:#921730"/>
	</linearGradient>
	<path class="st0" d="M7,28.3C6.9,15.6,16,4.7,28.4,2.6c13-2.3,25.5,5.3,29.5,17.9c0.8,2.4,1.1,4.9,1.2,7.4c0,0.9-0.4,1.4-1,1.4
		c-0.7,0-1.1-0.4-1.1-1.3c0-3.8-0.9-7.4-2.7-10.7c-3.9-7.2-9.9-11.5-18-12.8c-0.7-0.1-1.4-0.1-2.1-0.2c-0.5-0.1-0.7,0-0.7,0.6
		c0.1,0.5,0,0.9,0,1.4c0,0.4-0.1,0.6-0.5,0.6c-0.3,0-0.5-0.3-0.5-0.6c0-0.5,0-1,0-1.5c0-0.5-0.3-0.5-0.6-0.5
		c-3.6,0.2-7.1,1.1-10.3,2.9c-6.4,3.6-10.4,8.9-12,16.1c-0.3,1.3-0.5,2.6-0.5,3.9c0,0.4,0.1,0.6,0.5,0.6c0.5,0,0.9,0,1.4,0
		c0.3,0,0.5,0.2,0.5,0.5c0,0.3-0.2,0.5-0.6,0.5c-0.4,0-0.9,0-1.3,0c-0.5,0-0.6,0.2-0.6,0.6c0.2,3.3,0.9,6.5,2.5,9.5
		c3.8,7.3,9.7,11.7,17.8,13.1c1.1,0.2,2.3,0.2,3.5,0.3c0.8,0,1.2,0.4,1.2,1c0,0.7-0.5,1.1-1.3,1.1c-5.8-0.1-11.1-1.9-15.7-5.4
		c-5.6-4.4-8.9-10.1-10-17.1c-0.1-0.5-0.1-1-0.2-1.5C6.9,29.7,7,29,7,28.3z"/>
	<linearGradient id="SVGID_2_" gradientUnits="userSpaceOnUse" x1="34.8517" y1="41.8434" x2="46.5374" y2="41.8434">
		<stop  offset="0" style="stop-color:#E0081D"/>
		<stop  offset="0.9995" style="stop-color:#921730"/>
	</linearGradient>
	<path class="st1" d="M40.7,49.2c-1.7,0-3.5,0-5.2,0c-0.5,0-0.6-0.1-0.6-0.6c0-0.9,0-1.8,0-2.7c-0.2-3.2,1.9-4.3,4-4.7
		c0.6-0.1,1.1-0.1,1.7-0.2c0.4,0,0.9,0,1.3-0.1c1.2-0.2,1.9-0.7,2-1.6c0.1-1-0.6-1.8-1.7-2.2c-1.1-0.3-2.2-0.4-3.3,0.2
		c-0.5,0.3-1,0.6-1.1,1.2c-0.1,0.4-0.3,0.5-0.6,0.5c-0.6,0-1.1,0-1.7,0c-0.4,0-0.5-0.2-0.5-0.5c0.2-1.3,0.8-2.3,1.9-2.9
		c2.6-1.4,5.2-1.3,7.7,0.1c1.7,1,2,2.6,1.8,4.4c-0.2,1.8-1.4,2.7-3,3.2c-0.9,0.2-1.8,0.2-2.6,0.3c-0.5,0-1,0.1-1.5,0.2
		c-1.4,0.3-1.9,1.1-1.7,2.6c0.1,0.5,0.4,0.3,0.6,0.3c2.4,0,4.8,0,7.2,0c1.1,0,1.1,0,1.1,1.2c0,1.4,0,1.4-1.4,1.4
		C43.6,49.2,42.2,49.2,40.7,49.2z"/>
	<linearGradient id="SVGID_3_" gradientUnits="userSpaceOnUse" x1="47.6272" y1="41.9718" x2="59.8566" y2="41.9718">
		<stop  offset="0" style="stop-color:#E0081D"/>
		<stop  offset="0.9995" style="stop-color:#921730"/>
	</linearGradient>
	<path class="st2" d="M58.2,39.3c0,1.3,0,2.6,0,3.9c0,0.4,0,0.6,0.5,0.6c1.2,0,1.2,0,1.2,1.2c0,0,0,0.1,0,0.1c0,1.2,0,1.2-1.2,1.3
		c-0.4,0-0.5,0.2-0.5,0.5c0,0.6,0,1.2,0,1.7c0,0.3-0.1,0.5-0.5,0.5c-0.6,0-1.2,0-1.7,0c-0.4,0-0.5-0.1-0.5-0.5c0-0.6,0-1.2,0-1.7
		c0-0.4-0.1-0.5-0.6-0.5c-2.2,0-4.3,0-6.5,0c-0.6,0-0.7-0.2-0.7-0.7c-0.3-1.4,0.1-2.5,1-3.7c1.8-2.2,3.3-4.5,5-6.8
		c0.2-0.3,0.5-0.5,0.9-0.4c1,0,2,0,3,0c0.5,0,0.6,0.1,0.6,0.6C58.2,36.7,58.2,38,58.2,39.3z M50.7,43.7c1.6,0,3,0,4.4,0
		c0.3,0,0.4,0,0.4-0.4c0-2,0-4,0-6.2C53.8,39.4,52.3,41.5,50.7,43.7z"/>
	<linearGradient id="SVGID_4_" gradientUnits="userSpaceOnUse" x1="23.7458" y1="23.27" x2="47.3128" y2="23.27">
		<stop  offset="0" style="stop-color:#E0081D"/>
		<stop  offset="0.9995" style="stop-color:#921730"/>
	</linearGradient>
	<path class="st3" d="M29.3,28.2c0-0.5,0-1,0.3-1.4c0.2-0.4,0.1-0.7-0.2-1c-1.7-1.7-3.4-3.4-5.1-5.1c-0.6-0.6-0.6-1.2-0.1-1.7
		c0.5-0.4,1-0.3,1.5,0.2c1.7,1.7,3.4,3.4,5.1,5.1c0.3,0.3,0.6,0.5,1.1,0.3c1-0.4,1.9-0.3,2.8,0.3c0.4,0.2,0.6,0.1,0.9-0.2
		c3.2-3.2,6.3-6.4,9.5-9.5c0.2-0.2,0.3-0.3,0.5-0.5c0.5-0.3,1-0.3,1.4,0.1c0.4,0.4,0.4,0.9,0.1,1.4c-0.1,0.2-0.3,0.3-0.4,0.5
		c-3.2,3.2-6.4,6.4-9.7,9.7c-0.3,0.3-0.4,0.6-0.3,1c0.3,1.5-0.1,2.8-1.4,3.8c-1.2,0.9-2.5,1.1-3.9,0.4C30,30.9,29.3,29.8,29.3,28.2z
		 M34.6,28.2c0-0.9-0.8-1.7-1.6-1.6c-0.8,0-1.6,0.8-1.6,1.7c0,0.9,0.8,1.6,1.6,1.6C33.9,29.9,34.6,29.1,34.6,28.2z"/>
</g>
</svg>
