<?xml version="1.0" encoding="utf-8"?>
<!-- Generator: Adobe Illustrator 24.1.0, SVG Export Plug-In . SVG Version: 6.00 Build 0)  -->
<svg version="1.1" id="Layer_9" xmlns="http://www.w3.org/2000/svg" xmlns:xlink="http://www.w3.org/1999/xlink" x="0px" y="0px"
	 viewBox="0 0 32 32" style="enable-background:new 0 0 32 32;" xml:space="preserve">
<style type="text/css">
	.st0{fill:#202020;}
</style>
<g>
	<path class="st0" d="M16,1.5C7.99,1.5,1.5,7.99,1.5,16S7.99,30.5,16,30.5S30.5,24.01,30.5,16C30.49,8,24,1.51,16,1.5z M16,29.5
		C8.54,29.5,2.5,23.46,2.5,16S8.54,2.5,16,2.5S29.5,8.54,29.5,16C29.49,23.45,23.45,29.49,16,29.5z"/>
	<ellipse class="st0" cx="4.06" cy="16" rx="0.94" ry="0.93"/>
	<ellipse class="st0" cx="16" cy="4.07" rx="0.94" ry="0.93"/>
	<ellipse class="st0" cx="27.94" cy="16" rx="0.94" ry="0.93"/>
	<ellipse class="st0" cx="16" cy="27.93" rx="0.94" ry="0.93"/>
	<path class="st0" d="M16.5,15.77V6.86c0-0.28-0.22-0.5-0.5-0.5s-0.5,0.22-0.5,0.5V16c0,0.15,0.07,0.29,0.18,0.38l5,4.21
		c0.21,0.18,0.53,0.15,0.7-0.07s0.15-0.53-0.07-0.7L16.5,15.77z"/>
</g>
</svg>
