<?xml version="1.0" encoding="utf-8"?>
<!-- Generator: Adobe Illustrator 24.1.0, SVG Export Plug-In . SVG Version: 6.00 Build 0)  -->
<svg version="1.1" id="Layer_1" xmlns="http://www.w3.org/2000/svg" xmlns:xlink="http://www.w3.org/1999/xlink" x="0px" y="0px"
	 viewBox="0 0 23.7 23.8" style="enable-background:new 0 0 23.7 23.8;" xml:space="preserve">
<style type="text/css">
	.st0{fill:url(#Fill-131_1_);}
	.st1{fill:url(#Fill-132_1_);}
</style>
<g>
	<g id="Icon-Clock" transform="translate(378.000000, 428.000000)">
		<linearGradient id="Fill-131_1_" gradientUnits="userSpaceOnUse" x1="-377.6705" y1="-416.0158" x2="-355.0255" y2="-416.0158">
			<stop  offset="0" style="stop-color:#E0081C"/>
			<stop  offset="0.9995" style="stop-color:#92172F"/>
		</linearGradient>
		<path id="Fill-131" class="st0" d="M-366.3-404.7c-6.2,0-11.3-5.1-11.3-11.3s5.1-11.3,11.3-11.3s11.3,5.1,11.3,11.3
			C-355-409.8-360.1-404.7-366.3-404.7L-366.3-404.7z M-366.3-426.2c-5.6,0-10.1,4.5-10.1,10.1s4.5,10.1,10.1,10.1
			s10.1-4.5,10.1-10.1S-360.8-426.2-366.3-426.2L-366.3-426.2z"/>
		<linearGradient id="Fill-132_1_" gradientUnits="userSpaceOnUse" x1="-366.9909" y1="-416.1641" x2="-361.8489" y2="-416.1641">
			<stop  offset="0" style="stop-color:#E0081C"/>
			<stop  offset="0.9995" style="stop-color:#92172F"/>
		</linearGradient>
		<polyline id="Fill-132" class="st1" points="-362.8,-410.2 -367,-414.4 -367,-422.1 -365.7,-422.1 -365.7,-415 -361.8,-411.2 
			-362.8,-410.2 		"/>
	</g>
</g>
</svg>
