<?xml version="1.0" encoding="utf-8"?>
<!-- Generator: Adobe Illustrator 24.1.2, SVG Export Plug-In . SVG Version: 6.00 Build 0)  -->
<svg version="1.1" id="Layer_1" xmlns="http://www.w3.org/2000/svg" xmlns:xlink="http://www.w3.org/1999/xlink" x="0px" y="0px"
	 viewBox="0 0 66.4 57.4" style="enable-background:new 0 0 66.4 57.4;" xml:space="preserve">
<style type="text/css">
	.st0{fill:url(#SVGID_1_);}
	.st1{fill:url(#SVGID_2_);}
</style>
<g>
	<linearGradient id="SVGID_1_" gradientUnits="userSpaceOnUse" x1="2.3432" y1="36.1857" x2="64.474" y2="36.1857">
		<stop  offset="0" style="stop-color:#E0081D"/>
		<stop  offset="0.9995" style="stop-color:#921730"/>
	</linearGradient>
	<path class="st0" d="M2.3,35.9c0.3-0.7,0.5-1.4,0.9-2c1.1-1.6,2.7-2.3,4.6-2.5c2.7-0.3,5.4-0.5,8-1.2c2.9-0.8,5.4-2.4,7.4-4.6
		c1.1-1.2,2.2-2.5,3.4-3.6c0.6-0.5,1.3-1,2.1-1.3c0.6-0.2,1.2,0,1.5,0.5c0.2,0.6,0,1.1-0.7,1.4c-1,0.4-1.8,1.1-2.5,1.9
		c-1.3,1.3-2.4,2.8-3.8,3.9c-3,2.5-6.3,3.9-10.2,4.4C11,33.2,9,33.4,6.9,33.7c-1.5,0.2-2.3,1.1-2.4,2.5c-0.2,1.9-0.2,3.8,0,5.7
		c0.2,1.5,1.3,2.5,2.9,2.5c1.3,0,2.6,0,3.9,0c0.3,0,0.5-0.1,0.6-0.4c0.8-2.9,3.4-4.8,6.1-4.8c2.7,0,5.2,2,5.9,4.7
		c0.1,0.4,0.2,0.5,0.6,0.5c6.6,0,13.3,0,19.9,0c0.3,0,0.5-0.1,0.6-0.4c0.7-2.7,3.1-4.6,5.8-4.7c2.7-0.1,5.3,1.7,6.2,4.7
		c0.1,0.4,0.3,0.6,0.7,0.5c0.5,0,1,0,1.5,0c1.9,0,3.1-1.1,3.2-3c0.1-2.5,0-4.9,0-7.4c0-1.8-1.1-2.8-2.8-3c-2.8-0.3-5.2-1.3-7.1-3.4
		c-0.5-0.5-0.8-1.2-1.2-1.7c-1.2-1.8-2.9-2.9-5.1-3.1c-0.3,0-0.7,0-0.9-0.2c-0.4-0.3-0.5-0.7-0.4-1.2c0.2-0.5,0.6-0.8,1.1-0.7
		c2,0.2,3.8,0.9,5.3,2.2c0.9,0.7,1.6,1.5,2.1,2.5c1.3,2.3,3.4,3.4,6,3.6c2.8,0.2,5.1,2.5,5.1,5.3c0,2.3,0,4.6,0,6.9
		c0,3-2.3,5.3-5.2,5.4c-0.5,0-1.1,0-1.6,0c-0.3,0-0.5,0.1-0.6,0.5c-0.7,2.4-2.3,4-4.7,4.6c-3,0.7-6.2-1.2-7.2-4.2
		c-0.2-0.6-0.4-0.8-1.1-0.8c-6.5,0-12.9,0-19.4,0c-0.5,0-0.6,0.1-0.8,0.6c-0.8,2.7-3.3,4.6-6,4.6c-2.7,0-5.2-1.9-6-4.6
		c-0.1-0.5-0.4-0.6-0.8-0.6c-1.3,0-2.6,0.1-3.9,0c-2.2-0.2-4.1-1.9-4.7-4c0-0.1-0.1-0.2-0.1-0.3C2.3,40.1,2.3,38,2.3,35.9z
		 M17.9,41.4c-2.5,0-4.2,1.7-4.2,4.2c0,2.3,1.8,4,4.1,4c2.4,0,4.1-1.7,4.1-4.1C22,43.1,20.3,41.4,17.9,41.4z M51,41.4
		c-2.4,0-4.1,1.7-4.2,4.1c0,2.4,1.7,4.2,4.2,4.2c2.3,0,4.1-1.7,4.1-4C55.1,43.1,53.5,41.4,51,41.4z"/>
	<linearGradient id="SVGID_2_" gradientUnits="userSpaceOnUse" x1="29.4377" y1="20.4155" x2="46.0157" y2="20.4155">
		<stop  offset="0" style="stop-color:#E0081D"/>
		<stop  offset="0.9995" style="stop-color:#921730"/>
	</linearGradient>
	<path class="st1" d="M40.8,4.8c1.7,1,3.1,2.2,4.1,4c2,3.7,1.2,8.3-2,11.2c-0.4,0.4-0.6,0.7-0.6,1.2c0,3.4,0,6.8,0,10.1
		c0,2.6-2.2,4.8-4.8,4.7c-2.4,0-4.5-2.2-4.5-4.7c0-3.5,0-6.9,0-10.4c0-0.3,0-0.6-0.3-0.8C27.7,15.8,28.5,8.3,34.3,5
		c0.1,0,0.2-0.1,0.2-0.2c0.3,0,0.5,0,0.8,0c0.5,0.3,0.6,0.8,0.6,1.3c0,2.2,0,4.3,0,6.5c0,0.4,0.1,0.6,0.5,0.5c0.9,0,1.8,0,2.6,0
		c0.4,0,0.5-0.1,0.5-0.5c0-2.1,0-4.2,0-6.3c0-0.6,0.1-1,0.5-1.4C40.3,4.8,40.6,4.8,40.8,4.8z M34,7.4c-0.2,0.1-0.2,0.1-0.3,0.2
		c-3.2,2.7-3.3,7.8-0.3,10.7c1.5,0.8,1.6,2.1,1.6,3.6c-0.1,3.2,0,6.4,0,9.6c0,1.4,0.8,2.4,2,2.6c2,0.4,3.4-0.7,3.5-2.8
		c0-3.6,0-7.2,0-10.7c0-0.8,0.2-1.3,0.8-1.8c3.2-2.3,3.8-7,1.4-10.1c-0.3-0.5-0.7-0.9-1.3-1.3c0,0.3,0,0.5,0,0.8c0,1.8,0,3.7,0,5.5
		c0,0.9-0.3,1.2-1.2,1.2c-1.6,0-3.3,0-4.9,0c-1,0-1.3-0.3-1.3-1.3C34.1,11.6,34,9.5,34,7.4z"/>
</g>
</svg>
