<?xml version="1.0" encoding="utf-8"?>
<!-- Generator: Adobe Illustrator 24.1.0, SVG Export Plug-In . SVG Version: 6.00 Build 0)  -->
<svg version="1.1" id="Layer_1" xmlns="http://www.w3.org/2000/svg" xmlns:xlink="http://www.w3.org/1999/xlink" x="0px" y="0px"
	 viewBox="0 0 18.58 15.09" style="enable-background:new 0 0 18.58 15.09;" xml:space="preserve">
<style type="text/css">
	.st0{fill-rule:evenodd;clip-rule:evenodd;fill:#8A8888;}
</style>
<g id="Layer_1_1_">
</g>
<g id="形状_2">
	<g>
		<path class="st0" d="M18.26,2.15c-0.64,0.29-1.34,0.48-2.06,0.57c0.74-0.44,1.31-1.15,1.58-1.99c-0.69,0.41-1.46,0.71-2.28,0.87
			c-0.65-0.7-1.59-1.13-2.62-1.13c-1.98,0-3.59,1.61-3.59,3.59c0,0.28,0.03,0.56,0.09,0.82C6.4,4.73,3.75,3.3,1.98,1.13
			C1.68,1.66,1.5,2.28,1.5,2.93c0,1.25,0.63,2.34,1.6,2.99C2.51,5.9,1.95,5.74,1.47,5.47c0,0.02,0,0.03,0,0.05
			c0,1.74,1.24,3.19,2.88,3.52C4.05,9.12,3.73,9.16,3.4,9.16c-0.23,0-0.46-0.02-0.68-0.06c0.46,1.43,1.78,2.46,3.35,2.49
			c-1.23,0.96-2.78,1.54-4.46,1.54c-0.29,0-0.58-0.02-0.86-0.05c1.59,1.02,3.48,1.61,5.5,1.61c6.6,0,10.21-5.47,10.21-10.21
			c0-0.16,0-0.31-0.01-0.46C17.17,3.51,17.78,2.87,18.26,2.15z"/>
	</g>
</g>
</svg>
