<?xml version="1.0" encoding="utf-8"?>
<!-- Generator: Adobe Illustrator 24.1.0, SVG Export Plug-In . SVG Version: 6.00 Build 0)  -->
<svg version="1.1" id="Layer_1" xmlns="http://www.w3.org/2000/svg" xmlns:xlink="http://www.w3.org/1999/xlink" x="0px" y="0px"
	 viewBox="0 0 36.35 32.94" style="enable-background:new 0 0 36.35 32.94;" xml:space="preserve">
<style type="text/css">
	.st0{fill:url(#SVGID_1_);}
	.st1{fill:url(#SVGID_2_);}
</style>
<g>
	<linearGradient id="SVGID_1_" gradientUnits="userSpaceOnUse" x1="2.0473" y1="9.9937" x2="33.3322" y2="9.9937">
		<stop  offset="0" style="stop-color:#E0081B"/>
		<stop  offset="0.9995" style="stop-color:#92172D"/>
	</linearGradient>
	<path class="st0" d="M17.16,2.62c0-0.21,0-0.43,0-0.64c0.01-0.38,0.21-0.61,0.52-0.62c0.32,0,0.53,0.23,0.53,0.61
		c0.01,0.39,0.03,0.79-0.01,1.18c-0.03,0.33,0.1,0.42,0.41,0.43c1.72,0.08,3.39,0.44,4.97,1.11c4.91,2.1,8.05,5.73,9.4,10.91
		c0.15,0.58,0.24,1.17,0.32,1.75c0.03,0.19,0.03,0.37-0.18,0.46c-0.2,0.08-0.33-0.04-0.45-0.19c-1.31-1.68-3.09-2.25-5.14-2.06
		c-1.59,0.14-2.93,0.81-3.89,2.14c-0.16,0.22-0.27,0.47-0.4,0.7c-0.18,0.31-0.48,0.32-0.61,0c-1.14-2.73-5.4-3.88-8.34-1.84
		c-0.66,0.46-1.18,1.04-1.52,1.77c-0.07,0.15-0.14,0.29-0.33,0.3c-0.19,0.01-0.28-0.12-0.35-0.27c-0.78-1.58-2.12-2.41-3.79-2.72
		c-1.78-0.33-3.42,0.03-4.85,1.17c-0.3,0.24-0.56,0.52-0.78,0.84c-0.12,0.17-0.26,0.26-0.46,0.17c-0.19-0.09-0.19-0.26-0.17-0.43
		C2.82,10.7,8.01,5.11,14.61,3.85c0.72-0.14,1.44-0.25,2.17-0.27c0.3-0.01,0.42-0.11,0.38-0.42C17.14,2.98,17.16,2.8,17.16,2.62z
		 M22.49,16.33c-0.07-0.68-0.13-1.26-0.2-1.84c-0.28-2.29-0.76-4.54-1.68-6.67c-0.44-1-0.95-1.97-1.78-2.71
		c-0.76-0.69-1.51-0.68-2.28,0c-0.65,0.58-1.1,1.31-1.48,2.07c-0.92,1.86-1.43,3.84-1.78,5.88c-0.18,1.05-0.31,2.1-0.38,3.25
		c1.39-1.25,2.96-1.85,4.76-1.86C19.48,14.45,21.06,15.05,22.49,16.33z M15.3,4.81C9.27,5.69,4.66,10.61,3.58,15.37
		c2.9-1.44,5.64-1.24,8.24,0.78c0.09-0.78,0.16-1.53,0.27-2.27C12.58,10.67,13.27,7.52,15.3,4.81z M31.86,15.44
		c-0.75-2.68-2.08-4.92-4.03-6.78c-2.18-2.08-4.75-3.36-7.8-3.89c0.17,0.22,0.28,0.37,0.39,0.52c1.09,1.54,1.7,3.28,2.17,5.08
		c0.47,1.77,0.75,3.58,0.9,5.41c0.01,0.12-0.02,0.27,0.1,0.33c0.08,0.04,0.15-0.08,0.22-0.13c1.77-1.39,3.77-1.81,5.97-1.36
		C30.49,14.77,31.15,15.05,31.86,15.44z"/>
	<linearGradient id="SVGID_2_" gradientUnits="userSpaceOnUse" x1="13.9149" y1="24.092" x2="18.2221" y2="24.092">
		<stop  offset="0" style="stop-color:#E0081B"/>
		<stop  offset="0.9995" style="stop-color:#92172D"/>
	</linearGradient>
	<path class="st1" d="M18.22,23.25c0,2.05,0,4.09,0,6.14c0,1.16-0.84,2.08-1.97,2.18c-1.11,0.1-2.12-0.68-2.3-1.83
		c-0.05-0.3-0.04-0.61-0.02-0.91c0.02-0.28,0.25-0.48,0.52-0.48c0.28,0,0.5,0.21,0.53,0.51c0.01,0.18,0,0.36,0.01,0.54
		c0.02,0.64,0.5,1.12,1.12,1.11c0.6-0.01,1.06-0.49,1.06-1.13c0.01-2.26,0-4.52,0-6.78c0-1.88,0.01-3.75-0.01-5.63
		c0-0.32,0.12-0.37,0.39-0.37c0.68,0,0.68-0.01,0.68,0.67C18.22,19.27,18.22,21.26,18.22,23.25z"/>
</g>
</svg>
