<?xml version="1.0" encoding="utf-8"?>
<!-- Generator: Adobe Illustrator 24.1.0, SVG Export Plug-In . SVG Version: 6.00 Build 0)  -->
<svg version="1.1" id="Layer_1" xmlns="http://www.w3.org/2000/svg" xmlns:xlink="http://www.w3.org/1999/xlink" x="0px" y="0px"
	 viewBox="0 0 35.39 32.94" style="enable-background:new 0 0 35.39 32.94;" xml:space="preserve">
<style type="text/css">
	.st0{fill:url(#SVGID_1_);}
	.st1{fill:url(#SVGID_2_);}
	.st2{fill:url(#SVGID_3_);}
</style>
<g>
	<linearGradient id="SVGID_1_" gradientUnits="userSpaceOnUse" x1="11.57" y1="16.4751" x2="23.8444" y2="16.4751">
		<stop  offset="0" style="stop-color:#DF091A"/>
		<stop  offset="0.9995" style="stop-color:#91172D"/>
	</linearGradient>
	<path class="st0" d="M21.59,1.63c0.18,0.1,0.37,0.17,0.53,0.29c0.39,0.28,0.6,0.64,0.6,1.15c-0.02,1.89,0,3.77-0.01,5.66
		c0,0.25,0.05,0.35,0.33,0.34c0.6-0.02,0.8,0.24,0.8,0.86c-0.01,1.82,0,3.64,0,5.46c0,1.4,0.01,2.81,0,4.21
		c-0.01,1.53-1.44,3-2.97,3.07c-0.61,0.03-0.61,0.03-0.61,0.64c0,0.57,0,1.14,0,1.71c0,0.82-0.52,1.36-1.34,1.4
		c-0.52,0.02-0.52,0.02-0.52,0.54c0,1.22,0,2.44,0,3.66c0,0.42-0.25,0.69-0.61,0.7c-0.38,0.01-0.64-0.26-0.64-0.7
		c0-1.29-0.01-2.57,0.01-3.86c0-0.28-0.07-0.36-0.35-0.35c-0.78,0.02-1.37-0.37-1.49-0.98c-0.04-0.21-0.03-0.42-0.03-0.64
		c0-0.6-0.02-1.2,0-1.8c0.01-0.26-0.07-0.33-0.32-0.32c-1.26,0.04-2.17-0.57-2.9-1.53c-0.36-0.47-0.5-1.01-0.5-1.6
		c0-3.2,0-6.4,0-9.61c0-0.68,0.18-0.86,0.85-0.87c0.42,0,0.39,0.07,0.39-0.38c0-1.84,0.02-3.68-0.01-5.51
		c-0.01-0.73,0.34-1.15,0.94-1.45c0.05-0.02,0.12-0.01,0.14-0.09C16.44,1.63,19.01,1.63,21.59,1.63z M17.73,10.32
		c0-0.01,0-0.01,0-0.02c-1.54,0-3.07,0.01-4.61-0.01c-0.26,0-0.32,0.07-0.32,0.33c0.01,2.96,0.01,5.92,0.01,8.88
		c0,1.07,0.84,1.93,1.92,1.93c1.97,0.01,3.95,0.01,5.92,0.01c1.11,0,1.93-0.84,1.93-1.95c0-2.89,0-5.78,0-8.67
		c0-0.49,0-0.49-0.49-0.49C20.64,10.32,19.18,10.32,17.73,10.32z M17.77,9.06c1.15,0,2.3-0.01,3.45,0c0.2,0,0.26-0.05,0.26-0.26
		c-0.01-1.89-0.01-3.77,0-5.66c0-0.24-0.08-0.29-0.29-0.29c-2.3,0.01-4.61,0.01-6.91,0c-0.19,0-0.24,0.05-0.24,0.24
		c0.01,1.9,0.01,3.79,0,5.69c0,0.23,0.07,0.27,0.28,0.27C15.46,9.06,16.61,9.06,17.77,9.06z M18.98,23.96L18.98,23.96
		c0-0.35,0-0.7,0-1.04c0-0.16-0.04-0.22-0.21-0.22c-0.69,0.01-1.37,0.01-2.06,0c-0.16,0-0.2,0.06-0.2,0.2c0.01,0.69,0,1.37,0,2.06
		c0,0.14,0.04,0.21,0.2,0.2c0.69-0.01,1.39-0.01,2.08,0c0.14,0,0.18-0.05,0.18-0.19C18.98,24.63,18.98,24.29,18.98,23.96z"/>
	<linearGradient id="SVGID_2_" gradientUnits="userSpaceOnUse" x1="15.2656" y1="6.6101" x2="16.535" y2="6.6101">
		<stop  offset="0" style="stop-color:#DF091A"/>
		<stop  offset="0.9995" style="stop-color:#91172D"/>
	</linearGradient>
	<path class="st1" d="M15.27,6.6c0-0.19-0.01-0.39,0-0.58c0.02-0.36,0.27-0.61,0.6-0.62c0.36,0,0.63,0.23,0.65,0.6
		c0.02,0.4,0.02,0.81,0,1.21c-0.01,0.35-0.29,0.61-0.61,0.61c-0.34,0.01-0.61-0.26-0.63-0.62C15.26,7.01,15.27,6.81,15.27,6.6z"/>
	<linearGradient id="SVGID_3_" gradientUnits="userSpaceOnUse" x1="18.98" y1="6.6248" x2="20.245" y2="6.6248">
		<stop  offset="0" style="stop-color:#DF091A"/>
		<stop  offset="0.9995" style="stop-color:#91172D"/>
	</linearGradient>
	<path class="st2" d="M18.99,6.6c0-0.19-0.01-0.39,0-0.58c0.02-0.36,0.27-0.61,0.6-0.61c0.35-0.01,0.63,0.23,0.64,0.6
		c0.02,0.4,0.02,0.81,0,1.22c-0.01,0.35-0.29,0.61-0.62,0.61c-0.34,0-0.61-0.26-0.63-0.63C18.98,7,18.99,6.8,18.99,6.6z"/>
</g>
</svg>
