<?xml version="1.0" encoding="utf-8"?>
<!-- Generator: Adobe Illustrator 24.1.0, SVG Export Plug-In . SVG Version: 6.00 Build 0)  -->
<svg version="1.1" id="Layer_1" xmlns="http://www.w3.org/2000/svg" xmlns:xlink="http://www.w3.org/1999/xlink" x="0px" y="0px"
	 viewBox="0 0 33.38 33.64" style="enable-background:new 0 0 33.38 33.64;" xml:space="preserve">
<style type="text/css">
	.st0{fill:#9165B7;}
	.st1{fill:#7B509C;}
	.st2{fill:#5F3882;}
</style>
<g>
	<path class="st0" d="M30.14,26.69c-0.33,0.86-1.62,2.46-2.53,3.15c-0.82,0.62-1.4,0.86-2.16,0.89c-0.63,0.03-0.89-0.02-1.69-0.35
		c-6.3-2.59-11.33-6.47-15.33-11.79c-2.09-2.78-3.67-5.66-4.76-8.65c-0.63-1.74-0.66-2.5-0.14-3.39C3.75,6.17,4.71,5.24,5.4,4.72
		C6.56,3.86,7.1,3.54,7.52,3.45c0.29-0.06,0.8-0.01,1.12,0.1C8.8,3.6,9.04,3.73,9.18,3.82c0.85,0.56,3.23,3.6,4,5.11
		c0.44,0.87,0.59,1.51,0.45,1.98c-0.14,0.51-0.38,0.78-1.44,1.64c-0.43,0.34-0.83,0.7-0.89,0.79c-0.16,0.23-0.29,0.69-0.29,1.01
		c0.01,0.75,0.49,2.11,1.13,3.15c0.49,0.81,1.38,1.85,2.25,2.65c1.03,0.94,1.93,1.58,2.96,2.09c1.32,0.65,2.12,0.82,2.71,0.55
		c0.15-0.07,0.31-0.16,0.35-0.2c0.05-0.04,0.39-0.46,0.77-0.93c0.73-0.91,0.89-1.06,1.39-1.23c0.63-0.21,1.28-0.16,1.93,0.17
		c0.49,0.26,1.57,0.92,2.27,1.41c0.91,0.64,2.87,2.24,3.14,2.55C30.37,25.14,30.45,25.88,30.14,26.69z"/>
	<path class="st1" d="M29.9,24.57c-0.26-0.32-2.22-1.91-3.14-2.55c-0.7-0.48-1.77-1.15-2.27-1.41c-0.65-0.33-1.3-0.39-1.93-0.17
		c-0.5,0.17-0.66,0.32-1.39,1.23c-0.38,0.47-0.72,0.89-0.77,0.93c-0.05,0.04-0.21,0.13-0.35,0.2c-0.59,0.27-1.39,0.11-2.71-0.55
		c-1.02-0.51-1.93-1.15-2.96-2.09c-0.88-0.8-1.76-1.84-2.25-2.65c-0.64-1.04-1.12-2.4-1.13-3.15c0-0.32,0.13-0.78,0.29-1.01
		c0.03-0.04,0.11-0.12,0.22-0.22c-1.58,0.95-3.49,1.5-5.53,1.5c-0.05,0-0.1,0-0.16,0c0.76,1.35,1.62,2.67,2.6,3.97
		c4,5.32,9.03,9.19,15.33,11.79c0.8,0.33,1.06,0.39,1.69,0.35c0.76-0.04,1.34-0.27,2.16-0.89c0.9-0.69,2.19-2.29,2.53-3.15
		C30.45,25.88,30.37,25.14,29.9,24.57z"/>
	<path class="st0" d="M16.57,3.17c0.21-0.19,0.36-0.22,1.09-0.2c0.38,0.01,0.94,0.06,1.25,0.09c1.54,0.19,2.79,0.56,4.16,1.23
		c1.35,0.66,2.21,1.28,3.35,2.42c1.07,1.07,1.66,1.88,2.29,3.14c0.88,1.76,1.37,3.84,1.46,6.14c0.03,0.78,0.01,0.96-0.17,1.18
		c-0.34,0.43-1.09,0.36-1.35-0.13c-0.08-0.16-0.1-0.3-0.13-0.93c-0.05-0.96-0.11-1.59-0.25-2.33c-0.53-2.92-1.93-5.25-4.16-6.92
		c-1.86-1.4-3.79-2.08-6.31-2.23c-0.85-0.05-1-0.08-1.19-0.23C16.24,4.14,16.22,3.48,16.57,3.17z"/>
	<path class="st1" d="M21.91,8.94C21.01,8.4,19.68,8,18.46,7.91c-0.44-0.04-0.68-0.13-0.85-0.32c-0.26-0.29-0.28-0.69-0.07-1.01
		c0.23-0.36,0.59-0.42,1.66-0.26c2.72,0.4,4.83,1.66,6.22,3.71c0.78,1.16,1.26,2.51,1.43,3.97c0.06,0.53,0.06,1.51,0,1.67
		c-0.06,0.15-0.25,0.36-0.41,0.44c-0.17,0.09-0.55,0.08-0.75-0.03c-0.35-0.17-0.45-0.45-0.45-1.21c0-1.16-0.3-2.38-0.82-3.33
		C23.83,10.46,22.97,9.56,21.91,8.94z"/>
	<path class="st2" d="M23.43,14.91c-0.27,0.24-0.75,0.25-1.05,0.02c-0.21-0.16-0.28-0.33-0.33-0.79c-0.06-0.61-0.17-1.04-0.35-1.44
		c-0.4-0.85-1.09-1.29-2.27-1.43c-0.55-0.07-0.72-0.13-0.9-0.34c-0.33-0.39-0.2-1.02,0.25-1.25c0.17-0.08,0.24-0.09,0.62-0.07
		c0.23,0.01,0.58,0.05,0.76,0.09c0.88,0.19,1.56,0.52,2.14,1.07c0.75,0.7,1.15,1.56,1.33,2.78C23.76,14.34,23.71,14.65,23.43,14.91z
		"/>
	<path class="st2" d="M29.9,24.57c-0.26-0.32-2.22-1.91-3.14-2.55c-0.7-0.48-1.77-1.15-2.27-1.41c-0.65-0.33-1.3-0.39-1.93-0.17
		c-0.5,0.17-0.66,0.32-1.39,1.23c-0.38,0.47-0.72,0.89-0.77,0.93c-0.05,0.04-0.19,0.12-0.33,0.19c-1.11,1.34-2.43,2.5-3.89,3.43
		c2.29,1.64,4.81,3.03,7.58,4.17c0.8,0.33,1.06,0.39,1.69,0.35c0.76-0.04,1.34-0.27,2.16-0.89c0.9-0.69,2.19-2.29,2.53-3.15
		C30.45,25.88,30.37,25.14,29.9,24.57z"/>
</g>
</svg>
