<?xml version="1.0" encoding="utf-8"?>
<!-- Generator: Adobe Illustrator 24.1.2, SVG Export Plug-In . SVG Version: 6.00 Build 0)  -->
<svg version="1.1" id="Layer_1" xmlns="http://www.w3.org/2000/svg" xmlns:xlink="http://www.w3.org/1999/xlink" x="0px" y="0px"
	 viewBox="0 0 25.5 25.7" style="enable-background:new 0 0 25.5 25.7;" xml:space="preserve">
<style type="text/css">
	.st0{fill:#FFFFFF;}
</style>
<g>
	<path class="st0" d="M23.2,19.1c0,0-0.1-0.1-0.1-0.1c-0.4-0.4-1.7-1.5-2.4-1.9c-0.5-0.4-1.4-0.9-1.8-1.1c-0.5-0.3-1-0.3-1.5-0.1
		c-0.4,0.1-0.5,0.2-1.1,1c-0.3,0.4-0.6,0.7-0.6,0.7c0,0-0.2,0.1-0.3,0.2c-0.5,0.2-1.1,0.1-2.2-0.4c-0.8-0.4-1.5-0.9-2.3-1.7
		c-0.5-0.4-0.9-1-1.3-1.5c-0.2-0.2-0.3-0.4-0.4-0.6c-0.5-0.8-0.9-1.9-0.9-2.5c0-0.3,0.1-0.6,0.2-0.8c0,0,0.1-0.1,0.2-0.2
		c0,0,0,0,0,0c0.1-0.1,0.3-0.3,0.6-0.5c0.8-0.7,1-0.9,1.1-1.3c0.1-0.4,0-0.9-0.4-1.6C9.3,5.4,7.4,3,6.8,2.5C6.6,2.5,6.5,2.4,6.3,2.3
		C6.1,2.2,5.7,2.2,5.4,2.3c-0.3,0.1-0.8,0.3-1.7,1C3.2,3.7,2.4,4.4,2.2,4.7C1.8,5.4,1.9,6,2.4,7.4c0.5,1.3,1,2.5,1.7,3.7
		c0,0,0,0,0,0c0.6,1.1,1.3,2.1,2.1,3.2c3.2,4.2,7.2,7.3,12.2,9.4C19,24,19.2,24,19.7,24c0.6,0,1.1-0.2,1.7-0.7
		c0.7-0.6,1.8-1.8,2-2.5C23.7,20.1,23.6,19.5,23.2,19.1z"/>
	<path class="st0" d="M12.6,2c0.2-0.1,0.3-0.2,0.9-0.2c0.3,0,0.8,0,1,0.1c1.2,0.2,2.2,0.5,3.3,1c1.1,0.5,1.8,1,2.7,1.9
		c0.9,0.8,1.3,1.5,1.8,2.5c0.7,1.4,1.1,3.1,1.2,4.9c0,0.6,0,0.8-0.1,0.9c-0.3,0.4-0.9,0.3-1.1-0.1c-0.1-0.1-0.1-0.2-0.1-0.7
		c0-0.8-0.1-1.3-0.2-1.9c-0.4-2.3-1.5-4.2-3.3-5.5c-1.5-1.1-3-1.7-5-1.8c-0.7,0-0.8-0.1-0.9-0.2C12.4,2.8,12.4,2.3,12.6,2z"/>
	<path class="st0" d="M16.9,6.6c-0.7-0.4-1.8-0.8-2.8-0.8c-0.4,0-0.5-0.1-0.7-0.2c-0.2-0.2-0.2-0.6-0.1-0.8c0.2-0.3,0.5-0.3,1.3-0.2
		c2.2,0.3,3.8,1.3,4.9,3c0.6,0.9,1,2,1.1,3.2c0,0.4,0,1.2,0,1.3c0,0.1-0.2,0.3-0.3,0.4c-0.1,0.1-0.4,0.1-0.6,0
		c-0.3-0.1-0.4-0.4-0.4-1c0-0.9-0.2-1.9-0.6-2.7C18.4,7.8,17.7,7.1,16.9,6.6z"/>
	<path class="st0" d="M18.1,11.4c-0.2,0.2-0.6,0.2-0.8,0c-0.2-0.1-0.2-0.3-0.3-0.6c0-0.5-0.1-0.8-0.3-1.1c-0.3-0.7-0.9-1-1.8-1.1
		c-0.4-0.1-0.6-0.1-0.7-0.3c-0.3-0.3-0.2-0.8,0.2-1c0.1-0.1,0.2-0.1,0.5-0.1c0.2,0,0.5,0,0.6,0.1c0.7,0.2,1.2,0.4,1.7,0.9
		c0.6,0.6,0.9,1.2,1.1,2.2C18.4,10.9,18.3,11.2,18.1,11.4z"/>
	<path class="st0" d="M23.2,19.1c-0.2-0.2-1.8-1.5-2.5-2c-0.5-0.4-1.4-0.9-1.8-1.1c-0.5-0.3-1-0.3-1.5-0.1c-0.4,0.1-0.5,0.2-1.1,1
		c-0.3,0.4-0.6,0.7-0.6,0.7c0,0-0.1,0.1-0.3,0.1c-0.9,1.1-1.9,2-3.1,2.7c1.8,1.3,3.8,2.4,6,3.3C19,24,19.2,24,19.7,24
		c0.6,0,1.1-0.2,1.7-0.7c0.7-0.5,1.8-1.8,2-2.5C23.7,20.1,23.6,19.5,23.2,19.1z"/>
</g>
</svg>
