<?xml version="1.0" encoding="utf-8"?>
<!-- Generator: Adobe Illustrator 24.1.0, SVG Export Plug-In . SVG Version: 6.00 Build 0)  -->
<svg version="1.1" id="Layer_1" xmlns="http://www.w3.org/2000/svg" xmlns:xlink="http://www.w3.org/1999/xlink" x="0px" y="0px"
	 viewBox="0 0 25.5 25.7" style="enable-background:new 0 0 25.5 25.7;" xml:space="preserve">
<style type="text/css">
	.st0{fill:#9165B7;}
	.st1{fill:#7B509C;}
	.st2{fill:#5F3882;}
</style>
<g>
	<path class="st0" d="M23.5,21c-0.3,0.7-1.3,2-2.1,2.6c-0.7,0.5-1.2,0.7-1.8,0.7c-0.5,0-0.7,0-1.4-0.3c-5.2-2.1-9.4-5.4-12.7-9.8
		c-1.7-2.3-3-4.7-3.9-7.2C1,5.7,1,5,1.4,4.3c0.2-0.3,1-1.1,1.6-1.5c1-0.7,1.4-1,1.8-1.1c0.2,0,0.7,0,0.9,0.1C5.8,1.8,6,2,6.1,2
		c0.7,0.5,2.7,3,3.3,4.2C9.8,7,9.9,7.5,9.8,7.9C9.7,8.3,9.5,8.6,8.6,9.3C8.2,9.6,7.9,9.9,7.8,9.9c-0.1,0.2-0.2,0.6-0.2,0.8
		c0,0.6,0.4,1.7,0.9,2.6c0.4,0.7,1.1,1.5,1.9,2.2c0.9,0.8,1.6,1.3,2.5,1.7c1.1,0.5,1.8,0.7,2.2,0.5c0.1-0.1,0.3-0.1,0.3-0.2
		c0,0,0.3-0.4,0.6-0.8c0.6-0.8,0.7-0.9,1.2-1c0.5-0.2,1.1-0.1,1.6,0.1c0.4,0.2,1.3,0.8,1.9,1.2c0.8,0.5,2.4,1.9,2.6,2.1
		C23.7,19.7,23.7,20.3,23.5,21z"/>
	<path class="st1" d="M23.3,19.2c-0.2-0.3-1.8-1.6-2.6-2.1c-0.6-0.4-1.5-1-1.9-1.2c-0.5-0.3-1.1-0.3-1.6-0.1c-0.4,0.1-0.5,0.3-1.2,1
		c-0.3,0.4-0.6,0.7-0.6,0.8c0,0-0.2,0.1-0.3,0.2c-0.5,0.2-1.2,0.1-2.2-0.5c-0.8-0.4-1.6-1-2.5-1.7c-0.7-0.7-1.5-1.5-1.9-2.2
		c-0.5-0.9-0.9-2-0.9-2.6c0-0.3,0.1-0.6,0.2-0.8c0,0,0.1-0.1,0.2-0.2C6.7,10.5,5.1,11,3.4,11c0,0-0.1,0-0.1,0
		c0.6,1.1,1.3,2.2,2.2,3.3c3.3,4.4,7.5,7.6,12.7,9.8c0.7,0.3,0.9,0.3,1.4,0.3c0.6,0,1.1-0.2,1.8-0.7c0.7-0.6,1.8-1.9,2.1-2.6
		C23.7,20.3,23.7,19.7,23.3,19.2z"/>
	<path class="st0" d="M12.2,1.5c0.2-0.2,0.3-0.2,0.9-0.2c0.3,0,0.8,0,1,0.1c1.3,0.2,2.3,0.5,3.4,1c1.1,0.5,1.8,1.1,2.8,2
		C21.3,5.3,21.8,6,22.3,7c0.7,1.5,1.1,3.2,1.2,5.1c0,0.6,0,0.8-0.1,1c-0.3,0.4-0.9,0.3-1.1-0.1c-0.1-0.1-0.1-0.2-0.1-0.8
		c0-0.8-0.1-1.3-0.2-1.9c-0.4-2.4-1.6-4.4-3.4-5.7c-1.5-1.2-3.1-1.7-5.2-1.8c-0.7,0-0.8-0.1-1-0.2C11.9,2.3,11.9,1.8,12.2,1.5z"/>
	<path class="st1" d="M16.6,6.3c-0.7-0.4-1.8-0.8-2.9-0.9c-0.4,0-0.6-0.1-0.7-0.3c-0.2-0.2-0.2-0.6-0.1-0.8C13.2,4,13.5,4,14.4,4.1
		c2.3,0.3,4,1.4,5.2,3.1c0.6,1,1,2.1,1.2,3.3c0,0.4,0,1.3,0,1.4c0,0.1-0.2,0.3-0.3,0.4c-0.1,0.1-0.5,0.1-0.6,0
		c-0.3-0.1-0.4-0.4-0.4-1c0-1-0.2-2-0.7-2.8C18.2,7.5,17.5,6.8,16.6,6.3z"/>
	<path class="st2" d="M17.9,11.2c-0.2,0.2-0.6,0.2-0.9,0c-0.2-0.1-0.2-0.3-0.3-0.7c0-0.5-0.1-0.9-0.3-1.2c-0.3-0.7-0.9-1.1-1.9-1.2
		c-0.5-0.1-0.6-0.1-0.7-0.3c-0.3-0.3-0.2-0.8,0.2-1c0.1-0.1,0.2-0.1,0.5-0.1c0.2,0,0.5,0,0.6,0.1c0.7,0.2,1.3,0.4,1.8,0.9
		c0.6,0.6,1,1.3,1.1,2.3C18.2,10.8,18.1,11,17.9,11.2z"/>
	<path class="st2" d="M23.3,19.2c-0.2-0.3-1.8-1.6-2.6-2.1c-0.6-0.4-1.5-1-1.9-1.2c-0.5-0.3-1.1-0.3-1.6-0.1c-0.4,0.1-0.5,0.3-1.2,1
		c-0.3,0.4-0.6,0.7-0.6,0.8c0,0-0.2,0.1-0.3,0.2c-0.9,1.1-2,2.1-3.2,2.8c1.9,1.4,4,2.5,6.3,3.5c0.7,0.3,0.9,0.3,1.4,0.3
		c0.6,0,1.1-0.2,1.8-0.7c0.7-0.6,1.8-1.9,2.1-2.6C23.7,20.3,23.7,19.7,23.3,19.2z"/>
</g>
</svg>
