<?xml version="1.0" encoding="utf-8"?>
<!-- Generator: Adobe Illustrator 24.1.0, SVG Export Plug-In . SVG Version: 6.00 Build 0)  -->
<svg version="1.1" id="Layer_1" xmlns="http://www.w3.org/2000/svg" xmlns:xlink="http://www.w3.org/1999/xlink" x="0px" y="0px"
	 viewBox="0 0 43.86 25.28" style="enable-background:new 0 0 43.86 25.28;" xml:space="preserve">
<style type="text/css">
	.st0{enable-background:new    ;}
	.st1{fill-rule:evenodd;clip-rule:evenodd;fill:#005BAC;}
	.st2{fill-rule:evenodd;clip-rule:evenodd;fill:#F6AC1D;}
</style>
<g>
	<g id="形状_1_3_" class="st0">
		<g id="形状_1">
			<g>
				<path class="st1" d="M17.79,5.91L15.6,19.39h3.51L21.3,5.91L17.79,5.91L17.79,5.91z M12.65,5.91L9.3,15.18l-0.4-2l0,0
					l-0.09-0.45c-0.4-0.87-1.34-2.53-3.11-3.95C5.18,8.37,4.65,8.02,4.14,7.71l3.04,11.68h3.66l5.58-13.48L12.65,5.91L12.65,5.91z
					 M26.34,9.65c0-1.52,3.42-1.33,4.92-0.5l0.5-2.9c0,0-1.55-0.59-3.16-0.59c-1.74,0-5.88,0.76-5.88,4.46
					c0,3.48,4.85,3.53,4.85,5.35s-4.35,1.5-5.79,0.35l-0.52,3.03c0,0,1.57,0.76,3.96,0.76c2.39,0,6.01-1.24,6.01-4.61
					C31.24,11.5,26.34,11.18,26.34,9.65z M40.66,5.91h-2.82c-1.3,0-1.62,1-1.62,1l-5.23,12.48h3.66l0.73-2h4.46l0.41,2h3.22
					L40.66,5.91z M36.39,14.62l1.84-5.04l1.04,5.04H36.39z"/>
			</g>
		</g>
	</g>
	<g id="形状_1_2_" class="st0">
		<g id="形状_1_1_">
			<g>
				<path class="st2" d="M7.77,7.18c0,0-0.15-1.22-1.7-1.22H0.44L0.38,6.19c0,0,2.71,0.55,5.31,2.62c2.48,1.98,3.29,4.44,3.29,4.44
					L7.77,7.18z"/>
			</g>
		</g>
	</g>
</g>
</svg>
