<?xml version="1.0" encoding="utf-8"?>
<!-- Generator: Adobe Illustrator 24.1.0, SVG Export Plug-In . SVG Version: 6.00 Build 0)  -->
<svg version="1.1" id="Layer_1" xmlns="http://www.w3.org/2000/svg" xmlns:xlink="http://www.w3.org/1999/xlink" x="0px" y="0px"
	 viewBox="0 0 17.61 10.95" style="enable-background:new 0 0 17.61 10.95;" xml:space="preserve">
<style type="text/css">
	.st0{fill:#8A8888;}
</style>
<g id="Layer_1_1_">
</g>
<g id="_x33_64-vk">
	<g>
		<g>
			<path class="st0" d="M16.99,1.1c0.12-0.39,0-0.69-0.56-0.69h-1.87c-0.47,0-0.69,0.25-0.81,0.53c0,0-0.95,2.32-2.29,3.82
				c-0.43,0.43-0.63,0.57-0.87,0.57c-0.12,0-0.3-0.14-0.3-0.54V1.1c0-0.47-0.14-0.69-0.53-0.69H6.83c-0.3,0-0.47,0.22-0.47,0.43
				c0,0.45,0.67,0.55,0.74,1.82v2.75c0,0.6-0.1,0.71-0.35,0.71c-0.63,0-2.17-2.33-3.09-4.99C3.48,0.62,3.3,0.41,2.82,0.41H0.95
				c-0.53,0-0.64,0.25-0.64,0.53c0,0.5,0.63,2.95,2.95,6.19c1.54,2.21,3.71,3.42,5.7,3.42c1.19,0,1.33-0.26,1.33-0.72
				c0-2.12-0.1-2.32,0.49-2.32c0.27,0,0.75,0.14,1.86,1.2c1.27,1.27,1.48,1.84,2.18,1.84h1.87c0.53,0,0.8-0.26,0.65-0.79
				c-0.35-1.11-2.75-3.38-2.86-3.53c-0.27-0.35-0.19-0.51,0-0.83C14.48,5.4,16.76,2.19,16.99,1.1L16.99,1.1z"/>
		</g>
	</g>
</g>
</svg>
