<?xml version="1.0" encoding="utf-8"?>
<!-- Generator: Adobe Illustrator 24.1.0, SVG Export Plug-In . SVG Version: 6.00 Build 0)  -->
<svg version="1.1" id="Layer_21" xmlns="http://www.w3.org/2000/svg" xmlns:xlink="http://www.w3.org/1999/xlink" x="0px" y="0px"
	 viewBox="0 0 21.84 13.55" style="enable-background:new 0 0 21.84 13.55;" xml:space="preserve">
<style type="text/css">
	.st0{fill:#FFFFFF;}
</style>
<g id="_x33_64-vk">
	<g>
		<g>
			<path class="st0" d="M21.07,1.27c0.15-0.49,0-0.86-0.7-0.86h-2.33c-0.59,0-0.86,0.31-1.01,0.66c0,0-1.18,2.89-2.86,4.76
				c-0.54,0.54-0.79,0.71-1.09,0.71c-0.15,0-0.37-0.17-0.37-0.67V1.27c0-0.59-0.17-0.86-0.66-0.86H8.41c-0.37,0-0.59,0.28-0.59,0.53
				c0,0.56,0.84,0.69,0.92,2.27v3.43c0,0.75-0.13,0.89-0.43,0.89c-0.79,0-2.71-2.9-3.85-6.22c-0.23-0.64-0.45-0.9-1.05-0.9H1.08
				c-0.66,0-0.8,0.31-0.8,0.66c0,0.62,0.79,3.68,3.68,7.72c1.92,2.76,4.63,4.26,7.1,4.26c1.48,0,1.66-0.33,1.66-0.9
				c0-2.64-0.13-2.89,0.61-2.89c0.34,0,0.94,0.17,2.32,1.5c1.58,1.58,1.84,2.29,2.72,2.29h2.33c0.66,0,1-0.33,0.81-0.99
				c-0.44-1.38-3.43-4.21-3.57-4.4c-0.34-0.44-0.24-0.64,0-1.03C17.94,6.62,20.78,2.63,21.07,1.27L21.07,1.27z"/>
		</g>
	</g>
</g>
</svg>
