<?xml version="1.0" encoding="utf-8"?>
<!-- Generator: Adobe Illustrator 24.1.0, SVG Export Plug-In . SVG Version: 6.00 Build 0)  -->
<svg version="1.1" id="Layer_1" xmlns="http://www.w3.org/2000/svg" xmlns:xlink="http://www.w3.org/1999/xlink" x="0px" y="0px"
	 viewBox="0 0 36.35 32.94" style="enable-background:new 0 0 36.35 32.94;" xml:space="preserve">
<style type="text/css">
	.st0{fill:url(#SVGID_1_);}
	.st1{fill:url(#SVGID_2_);}
</style>
<g>
	<linearGradient id="SVGID_1_" gradientUnits="userSpaceOnUse" x1="10.8528" y1="16.4708" x2="24.5267" y2="16.4708">
		<stop  offset="0" style="stop-color:#E0081B"/>
		<stop  offset="0.9995" style="stop-color:#92172D"/>
	</linearGradient>
	<path class="st0" d="M17.67,32.32c-1.65,0-3.3,0.01-4.96,0c-1.06-0.01-1.85-0.81-1.85-1.87c0-0.55,0.01-1.09,0-1.64
		c-0.01-0.53,0.15-0.99,0.53-1.36c0.14-0.14,0.13-0.21-0.01-0.33c-0.37-0.36-0.53-0.81-0.53-1.33c0-3.63,0-7.26,0-10.89
		c0-0.49,0.16-0.92,0.48-1.28c0.14-0.15,0.17-0.23,0.01-0.4c-0.34-0.35-0.5-0.78-0.49-1.28c0-0.58,0-1.16,0-1.74
		c0-0.46,0.15-0.86,0.45-1.19c0.11-0.13,0.16-0.22,0.1-0.4c-0.11-0.33,0.02-0.63,0.25-0.89c0.95-1.05,1.88-2.12,2.84-3.17
		c0.15-0.16,0.2-0.33,0.19-0.54c-0.01-0.75,0.01-1.5-0.01-2.24c-0.02-0.64,0.41-1.18,1.16-1.16c1.24,0.04,2.48,0.01,3.72,0.01
		c0.74,0,1.13,0.39,1.13,1.14c0.01,0.76,0.01,1.52,0,2.28c0,0.2,0.06,0.35,0.19,0.51c0.91,1.01,1.81,2.04,2.72,3.04
		c0.3,0.33,0.52,0.67,0.33,1.14c-0.05,0.13,0.05,0.18,0.11,0.25c0.33,0.38,0.49,0.82,0.48,1.32c-0.01,0.55-0.01,1.09,0,1.64
		c0,0.49-0.15,0.93-0.49,1.28c-0.15,0.16-0.14,0.24,0,0.4c0.34,0.37,0.49,0.81,0.49,1.31c0,3.6-0.01,7.19,0,10.79
		c0,0.56-0.16,1.03-0.56,1.42c-0.12,0.12-0.12,0.17,0,0.28c0.4,0.37,0.56,0.84,0.55,1.38c-0.01,0.56,0,1.12,0,1.67
		c-0.01,1.01-0.82,1.83-1.83,1.84C21.02,32.33,19.34,32.32,17.67,32.32z M23.68,20.3c0-1.81,0-3.62,0-5.43
		c0-0.68-0.38-1.05-1.06-1.05c-3.26,0-6.52,0-9.78,0c-0.74,0-1.11,0.37-1.11,1.11c0,3.59,0,7.19,0,10.78c0,0.64,0.42,1.05,1.09,1.05
		c3.23,0,6.45,0,9.68,0c0.83,0,1.18-0.35,1.19-1.17C23.68,23.82,23.68,22.06,23.68,20.3z M17.7,27.75c-1.64,0-3.28,0-4.92,0
		c-0.67,0-1.05,0.4-1.06,1.07c0,0.5,0,1,0,1.51c0,0.75,0.38,1.13,1.13,1.13c3.26,0,6.52,0,9.78,0c0.65,0,1.04-0.38,1.05-1.04
		c0.01-0.5,0-1,0-1.51c0-0.82-0.34-1.16-1.15-1.17C20.92,27.74,19.31,27.75,17.7,27.75z M17.75,9.19c-1.66,0-3.33,0-4.99,0
		c-0.64,0-1.03,0.4-1.04,1.05c0,0.52,0,1.05,0,1.57c0,0.68,0.4,1.08,1.08,1.08c3.27,0,6.54,0,9.81,0c0.67,0,1.06-0.39,1.06-1.06
		c0.01-0.5,0-1,0-1.51c0-0.79-0.35-1.14-1.14-1.14C20.94,9.18,19.35,9.18,17.75,9.19z M23.07,8.28c-1.11-1.24-2.16-2.43-3.21-3.61
		c-0.1-0.11-0.22-0.09-0.34-0.09c-1.23,0-2.45,0-3.68-0.01c-0.2,0-0.33,0.05-0.46,0.2C14.43,5.86,13.47,6.93,12.52,8
		c-0.07,0.08-0.18,0.13-0.16,0.27C15.91,8.28,19.45,8.28,23.07,8.28z M17.7,3.71c0.63,0,1.25,0,1.88,0c0.16,0,0.25-0.03,0.24-0.22
		c-0.01-0.6-0.01-1.21,0-1.81c0-0.21-0.09-0.26-0.29-0.26c-1.22,0.01-2.43,0.01-3.65,0c-0.24,0-0.31,0.08-0.31,0.31
		c0.01,0.57,0.01,1.14,0,1.71c-0.01,0.23,0.09,0.28,0.29,0.27C16.47,3.7,17.08,3.71,17.7,3.71z"/>
	<linearGradient id="SVGID_2_" gradientUnits="userSpaceOnUse" x1="14.5503" y1="19.9859" x2="20.8173" y2="19.9859">
		<stop  offset="0" style="stop-color:#E0081B"/>
		<stop  offset="0.9995" style="stop-color:#92172D"/>
	</linearGradient>
	<path class="st1" d="M17.68,24.09c-1.65,0-3.01-1.27-3.13-2.92c-0.04-0.55,0.13-1.06,0.36-1.54c0.62-1.31,1.5-2.45,2.42-3.56
		c0.2-0.24,0.48-0.26,0.66-0.04c0.98,1.18,1.91,2.38,2.55,3.79C21.5,21.91,19.77,24.14,17.68,24.09z M15.41,21.02
		c-0.02,0.17,0.02,0.36,0.07,0.54c0.33,1.28,1.7,2,2.97,1.57c1.1-0.38,1.91-1.72,1.32-2.98c-0.51-1.09-1.21-2.05-1.94-2.99
		c-0.09-0.11-0.15-0.15-0.25-0.01c-0.74,0.95-1.46,1.91-1.96,3.02C15.49,20.43,15.39,20.7,15.41,21.02z"/>
</g>
</svg>
