<?xml version="1.0" encoding="utf-8"?>
<!-- Generator: Adobe Illustrator 24.1.0, SVG Export Plug-In . SVG Version: 6.00 Build 0)  -->
<svg version="1.1" id="Layer_1" xmlns="http://www.w3.org/2000/svg" xmlns:xlink="http://www.w3.org/1999/xlink" x="0px" y="0px"
	 viewBox="0 0 15.33 15.54" style="enable-background:new 0 0 15.33 15.54;" xml:space="preserve">
<style type="text/css">
	.st0{fill:#7FD371;}
	.st1{fill:#6DBC61;}
	.st2{fill:#549B45;}
	.st3{fill:#5CAA4F;}
</style>
<g id="Layer_1_1_">
</g>
<g>
	<g>
		<path class="st0" d="M7.67,0.35L7.67,0.35L7.67,0.35c-4.08,0-7.4,3.31-7.4,7.39c0,1.62,0.52,3.12,1.41,4.34l-0.92,2.75l2.84-0.91
			c1.17,0.77,2.56,1.22,4.07,1.22c4.08,0,7.39-3.32,7.39-7.39C15.06,3.67,11.75,0.35,7.67,0.35z M11.97,10.79
			c-0.18,0.5-0.89,0.92-1.45,1.04c-0.39,0.08-0.89,0.15-2.59-0.56c-2.17-0.9-3.57-3.11-3.68-3.25C4.14,7.89,3.37,6.86,3.37,5.8
			S3.91,4.22,4.12,4C4.3,3.82,4.6,3.74,4.88,3.74c0.09,0,0.17,0,0.25,0.01C5.34,3.76,5.45,3.77,5.6,4.11
			c0.18,0.43,0.61,1.49,0.66,1.6c0.05,0.11,0.11,0.26,0.03,0.4C6.22,6.26,6.16,6.33,6.05,6.46C5.94,6.58,5.84,6.68,5.73,6.81
			c-0.1,0.12-0.21,0.24-0.09,0.46c0.12,0.21,0.56,0.92,1.2,1.49c0.82,0.74,1.5,0.97,1.74,1.07C8.76,9.9,8.97,9.89,9.1,9.75
			c0.17-0.18,0.37-0.47,0.58-0.76c0.15-0.21,0.34-0.23,0.53-0.16c0.2,0.07,1.26,0.59,1.47,0.7c0.22,0.11,0.36,0.16,0.41,0.25
			C12.15,9.86,12.15,10.29,11.97,10.79z"/>
	</g>
	<g>
		<path class="st1" d="M0.27,7.74c0,1.62,0.52,3.12,1.41,4.34l-0.92,2.75l2.84-0.91c1.17,0.77,2.56,1.22,4.07,1.22
			c4.08,0,7.39-3.32,7.39-7.39c0-4.08-3.31-7.39-7.39-7.39h0l0,0 M11.97,10.79c-0.18,0.5-0.89,0.92-1.45,1.04
			c-0.39,0.08-0.89,0.15-2.59-0.56c-2.17-0.9-3.57-3.11-3.68-3.25C4.14,7.89,3.37,6.86,3.37,5.8S3.91,4.22,4.12,4
			C4.3,3.82,4.6,3.74,4.88,3.74c0.09,0,0.17,0,0.25,0.01C5.34,3.76,5.45,3.77,5.6,4.11c0.18,0.43,0.61,1.49,0.66,1.6
			c0.05,0.11,0.11,0.26,0.03,0.4C6.22,6.26,6.16,6.33,6.05,6.46C5.94,6.58,5.84,6.68,5.73,6.81c-0.1,0.12-0.21,0.24-0.09,0.46
			c0.12,0.21,0.56,0.92,1.2,1.49c0.82,0.74,1.5,0.97,1.74,1.07C8.76,9.9,8.97,9.89,9.1,9.75c0.17-0.18,0.37-0.47,0.58-0.76
			c0.15-0.21,0.34-0.23,0.53-0.16c0.2,0.07,1.26,0.59,1.47,0.7c0.22,0.11,0.36,0.16,0.41,0.25C12.15,9.86,12.15,10.29,11.97,10.79z"
			/>
	</g>
	<path class="st2" d="M10.03,0.74c1.89,1.61,3.12,4.07,3.12,6.16c0,1.15-0.37,2.22-1.03,3.15c-0.01,0.19-0.05,0.46-0.15,0.75
		c-0.18,0.5-0.89,0.92-1.45,1.04c-0.11,0.02-0.22,0.04-0.36,0.05c-1.24,0.77-2.77,1.23-4.43,1.23c-1.5,0-2.89-0.37-4.06-1.01
		l-0.91,2.73l2.84-0.91c1.17,0.77,2.56,1.22,4.07,1.22c4.08,0,7.39-3.32,7.39-7.39C15.06,4.49,12.95,1.73,10.03,0.74z"/>
	<g>
		<path class="st2" d="M10.21,8.81c0.05,0.02,0.15,0.06,0.28,0.12L5.55,3.99C5.56,4.02,5.58,4.06,5.6,4.1
			c0.18,0.43,0.61,1.49,0.66,1.6c0.05,0.11,0.11,0.26,0.03,0.4C6.22,6.25,6.16,6.32,6.05,6.45C5.94,6.57,5.84,6.67,5.73,6.8
			c-0.1,0.12-0.21,0.24-0.09,0.46c0.12,0.21,0.56,0.92,1.2,1.49c0.82,0.74,1.5,0.97,1.74,1.07C8.76,9.89,8.97,9.88,9.1,9.74
			c0.17-0.18,0.37-0.47,0.58-0.76C9.83,8.77,10.02,8.74,10.21,8.81z"/>
		<path class="st3" d="M3.37,5.8L3.32,5.85l0.06,0.06C3.37,5.87,3.37,5.84,3.37,5.8z"/>
	</g>
</g>
</svg>
