<?xml version="1.0" encoding="utf-8"?>
<!-- Generator: Adobe Illustrator 24.1.0, SVG Export Plug-In . SVG Version: 6.00 Build 0)  -->
<svg version="1.1" id="Layer_1" xmlns="http://www.w3.org/2000/svg" xmlns:xlink="http://www.w3.org/1999/xlink" x="0px" y="0px"
	 viewBox="0 0 33.38 33.64" style="enable-background:new 0 0 33.38 33.64;" xml:space="preserve">
<style type="text/css">
	.st0{fill:#7FD371;}
	.st1{fill:#6DBC61;}
	.st2{fill:#549B45;}
	.st3{fill:#5CAA4F;}
</style>
<g>
	<g>
		<path class="st0" d="M16.75,0.78L16.75,0.78L16.75,0.78c-8.87,0-16.07,7.2-16.07,16.06c0,3.51,1.13,6.77,3.06,9.42l-2,5.97
			l6.17-1.97c2.54,1.68,5.57,2.65,8.84,2.65c8.86,0,16.06-7.21,16.06-16.06C32.81,7.99,25.61,0.78,16.75,0.78z M26.1,23.47
			c-0.39,1.09-1.93,2-3.15,2.27c-0.84,0.18-1.94,0.32-5.63-1.21c-4.72-1.95-7.76-6.75-8-7.06c-0.23-0.31-1.91-2.54-1.91-4.84
			s1.17-3.43,1.64-3.91c0.39-0.4,1.03-0.57,1.64-0.57c0.2,0,0.38,0.01,0.54,0.02c0.47,0.02,0.71,0.05,1.02,0.79
			c0.39,0.93,1.33,3.24,1.44,3.48c0.11,0.24,0.23,0.56,0.07,0.87c-0.15,0.32-0.28,0.46-0.52,0.74c-0.24,0.27-0.46,0.48-0.7,0.77
			c-0.22,0.25-0.46,0.53-0.19,1c0.27,0.46,1.22,2,2.61,3.24c1.79,1.6,3.25,2.11,3.77,2.32c0.39,0.16,0.85,0.12,1.13-0.18
			c0.36-0.39,0.8-1.03,1.26-1.66c0.32-0.45,0.73-0.51,1.15-0.35c0.43,0.15,2.73,1.28,3.2,1.52c0.47,0.24,0.78,0.35,0.9,0.55
			C26.48,21.44,26.48,22.37,26.1,23.47z"/>
	</g>
	<g>
		<path class="st1" d="M0.68,16.85c0,3.51,1.13,6.77,3.06,9.42l-2,5.97l6.17-1.97c2.54,1.68,5.57,2.65,8.84,2.65
			c8.86,0,16.06-7.21,16.06-16.06c0-8.86-7.2-16.06-16.06-16.06h-0.01l0,0 M26.1,23.47c-0.39,1.09-1.93,2-3.15,2.27
			c-0.84,0.18-1.94,0.32-5.63-1.21c-4.72-1.95-7.76-6.75-8-7.06c-0.23-0.31-1.91-2.54-1.91-4.84s1.17-3.43,1.64-3.91
			c0.39-0.4,1.03-0.57,1.64-0.57c0.2,0,0.38,0.01,0.54,0.02c0.47,0.02,0.71,0.05,1.02,0.79c0.39,0.93,1.33,3.24,1.44,3.48
			c0.11,0.24,0.23,0.56,0.07,0.87c-0.15,0.32-0.28,0.46-0.52,0.74c-0.24,0.27-0.46,0.48-0.7,0.77c-0.22,0.25-0.46,0.53-0.19,1
			c0.27,0.46,1.22,2,2.61,3.24c1.79,1.6,3.25,2.11,3.77,2.32c0.39,0.16,0.85,0.12,1.13-0.18c0.36-0.39,0.8-1.03,1.26-1.66
			c0.32-0.45,0.73-0.51,1.15-0.35c0.43,0.15,2.73,1.28,3.2,1.52c0.47,0.24,0.78,0.35,0.9,0.55C26.48,21.44,26.48,22.37,26.1,23.47z"
			/>
	</g>
	<path class="st2" d="M21.89,1.63c4.1,3.5,6.77,8.85,6.77,13.38c0,2.5-0.81,4.83-2.23,6.84c-0.02,0.41-0.11,0.99-0.33,1.62
		c-0.39,1.09-1.93,2-3.15,2.27c-0.23,0.05-0.48,0.09-0.79,0.1c-2.69,1.68-6.02,2.67-9.63,2.67c-3.25,0-6.27-0.81-8.81-2.19
		l-1.98,5.92l6.17-1.97c2.54,1.68,5.57,2.65,8.84,2.65c8.86,0,16.06-7.21,16.06-16.06C32.81,9.79,28.23,3.78,21.89,1.63z"/>
	<g>
		<path class="st2" d="M22.27,19.17c0.11,0.04,0.33,0.13,0.61,0.26L12.14,8.7c0.04,0.07,0.08,0.15,0.11,0.24
			c0.39,0.93,1.33,3.24,1.44,3.48c0.11,0.24,0.23,0.56,0.07,0.87c-0.15,0.32-0.28,0.46-0.52,0.74c-0.24,0.27-0.46,0.48-0.7,0.77
			c-0.22,0.25-0.46,0.53-0.19,1c0.27,0.46,1.22,2,2.61,3.24c1.79,1.6,3.25,2.11,3.77,2.32c0.39,0.16,0.85,0.12,1.13-0.18
			c0.36-0.39,0.8-1.03,1.26-1.66C21.44,19.07,21.85,19.01,22.27,19.17z"/>
		<path class="st3" d="M7.41,12.63l-0.11,0.11l0.12,0.12C7.42,12.78,7.41,12.71,7.41,12.63z"/>
	</g>
</g>
</svg>
