<?xml version="1.0" encoding="utf-8"?>
<!-- Generator: Adobe Illustrator 24.1.0, SVG Export Plug-In . SVG Version: 6.00 Build 0)  -->
<svg version="1.1" id="Layer_1" xmlns="http://www.w3.org/2000/svg" xmlns:xlink="http://www.w3.org/1999/xlink" x="0px" y="0px"
	 viewBox="0 0 25.51 25.69" style="enable-background:new 0 0 25.51 25.69;" xml:space="preserve">
<style type="text/css">
	.st0{fill:#FFFFFF;}
</style>
<g>
	<g>
		<path class="st0" d="M12.77,0.59L12.77,0.59L12.77,0.59c-6.81,0-12.34,5.53-12.34,12.34c0,2.7,0.87,5.2,2.35,7.23l-1.54,4.58
			l4.74-1.52c1.95,1.29,4.28,2.04,6.79,2.04c6.8,0,12.33-5.53,12.33-12.34C25.11,6.12,19.57,0.59,12.77,0.59z M19.95,18.01
			c-0.3,0.84-1.48,1.54-2.42,1.74c-0.65,0.14-1.49,0.25-4.32-0.93c-3.63-1.5-5.96-5.19-6.14-5.43C6.89,13.16,5.6,11.45,5.6,9.68
			s0.9-2.63,1.26-3c0.3-0.3,0.79-0.44,1.26-0.44c0.15,0,0.29,0.01,0.41,0.01C8.9,6.26,9.08,6.28,9.32,6.86
			c0.3,0.72,1.02,2.49,1.11,2.67c0.09,0.18,0.17,0.43,0.05,0.67c-0.12,0.25-0.22,0.36-0.4,0.57c-0.18,0.21-0.36,0.37-0.54,0.59
			c-0.17,0.2-0.36,0.41-0.14,0.77c0.21,0.36,0.94,1.54,2,2.49c1.38,1.23,2.49,1.62,2.89,1.78c0.3,0.12,0.65,0.09,0.87-0.14
			c0.28-0.3,0.62-0.79,0.96-1.28c0.25-0.35,0.56-0.39,0.88-0.27c0.33,0.12,2.1,0.99,2.46,1.17c0.36,0.18,0.6,0.27,0.69,0.42
			C20.25,16.45,20.25,17.17,19.95,18.01z"/>
	</g>
	<g>
		<path class="st0" d="M0.43,12.93c0,2.7,0.87,5.2,2.35,7.23l-1.54,4.58l4.74-1.52c1.95,1.29,4.28,2.04,6.79,2.04
			c6.8,0,12.33-5.53,12.33-12.34c0-6.8-5.53-12.34-12.33-12.34h-0.01l0,0 M19.95,18.01c-0.3,0.84-1.48,1.54-2.42,1.74
			c-0.65,0.14-1.49,0.25-4.32-0.93c-3.63-1.5-5.96-5.19-6.14-5.43C6.89,13.16,5.6,11.45,5.6,9.68s0.9-2.63,1.26-3
			c0.3-0.3,0.79-0.44,1.26-0.44c0.15,0,0.29,0.01,0.41,0.01C8.9,6.26,9.08,6.28,9.32,6.86c0.3,0.72,1.02,2.49,1.11,2.67
			c0.09,0.18,0.17,0.43,0.05,0.67c-0.12,0.25-0.22,0.36-0.4,0.57c-0.18,0.21-0.36,0.37-0.54,0.59c-0.17,0.2-0.36,0.41-0.14,0.77
			c0.21,0.36,0.94,1.54,2,2.49c1.38,1.23,2.49,1.62,2.89,1.78c0.3,0.12,0.65,0.09,0.87-0.14c0.28-0.3,0.62-0.79,0.96-1.28
			c0.25-0.35,0.56-0.39,0.88-0.27c0.33,0.12,2.1,0.99,2.46,1.17c0.36,0.18,0.6,0.27,0.69,0.42C20.25,16.45,20.25,17.17,19.95,18.01z
			"/>
	</g>
	<path class="st0" d="M16.72,1.24c3.15,2.69,5.2,6.8,5.2,10.28c0,1.92-0.62,3.71-1.71,5.25c-0.01,0.32-0.08,0.76-0.26,1.24
		c-0.3,0.84-1.48,1.54-2.42,1.74c-0.17,0.04-0.36,0.07-0.6,0.08c-2.06,1.29-4.62,2.05-7.4,2.05c-2.5,0-4.82-0.62-6.76-1.68
		l-1.52,4.54l4.74-1.52c1.95,1.29,4.28,2.04,6.79,2.04c6.8,0,12.33-5.53,12.33-12.34C25.11,7.5,21.59,2.89,16.72,1.24z"/>
	<g>
		<path class="st0" d="M17.01,14.71c0.08,0.03,0.25,0.1,0.46,0.2L9.23,6.67c0.03,0.05,0.06,0.12,0.09,0.19
			c0.3,0.72,1.02,2.49,1.11,2.67c0.09,0.18,0.17,0.43,0.05,0.67c-0.12,0.25-0.22,0.36-0.4,0.57c-0.18,0.21-0.36,0.37-0.54,0.59
			c-0.17,0.2-0.36,0.41-0.14,0.77c0.21,0.36,0.94,1.54,2,2.49c1.38,1.23,2.49,1.62,2.89,1.78c0.3,0.12,0.65,0.09,0.87-0.14
			c0.28-0.3,0.62-0.79,0.96-1.28C16.37,14.63,16.69,14.59,17.01,14.71z"/>
		<path class="st0" d="M5.6,9.69L5.52,9.77l0.09,0.09C5.6,9.8,5.6,9.74,5.6,9.69z"/>
	</g>
</g>
</svg>
