<?xml version="1.0" encoding="utf-8"?>
<!-- Generator: Adobe Illustrator 24.1.0, SVG Export Plug-In . SVG Version: 6.00 Build 0)  -->
<svg version="1.1" id="Layer_1" xmlns="http://www.w3.org/2000/svg" xmlns:xlink="http://www.w3.org/1999/xlink" x="0px" y="0px"
	 viewBox="0 0 21.92 25.28" style="enable-background:new 0 0 21.92 25.28;" xml:space="preserve">
<style type="text/css">
	.st0{fill:#F57A1E;}
</style>
<g>
	<path class="st0" d="M11.15,24.85c-2.79,0-5.57-0.03-8.35,0.02c-1.08,0.02-1.76-0.47-2.29-1.32c-0.14-0.23-0.19-0.47-0.19-0.73
		c0-4.21-0.02-8.41,0.01-12.62c0.01-1.23,0.73-2.06,1.75-2.64c3.29-1.85,6.58-3.69,9.87-5.53c0.84-0.47,1.69-0.94,2.54-1.41
		c0.44-0.24,0.92-0.23,1.39-0.16c0.41,0.07,0.72,0.56,0.71,1.11c-0.06,4.25-0.02,8.5-0.02,12.76c0,1.17-0.58,2-1.51,2.58
		c-0.51,0.32-1.12,0.47-1.69,0.69c-2.17,0.86-4.35,1.72-6.52,2.59C5.87,20.59,4.91,21,3.94,21.4c-0.25,0.1-0.48,0.25-0.57,0.52
		c-0.23,0.67,0.16,1.14,0.86,1.02c0.64-0.1,1.25-0.32,1.87-0.5c2.07-0.58,4.15-1.17,6.22-1.75c1.22-0.34,2.44-0.69,3.66-1.04
		c0.34-0.1,0.69-0.18,1.02-0.32c1.12-0.45,1.64-1.22,1.65-2.42c0.01-2.51,0-5.02,0-7.52c0-0.6,0-0.6,0.61-0.6
		c0.59,0,1.18,0.02,1.7,0.34c0.45,0.28,0.72,0.67,0.72,1.22c0,4.33,0,8.67,0,13c0,0.81-0.65,1.45-1.48,1.49
		c-0.39,0.02-0.79,0.01-1.18,0.01C16.4,24.85,13.78,24.85,11.15,24.85z M10.15,9.79c0,0.85,0.6,1.28,1.39,0.97
		c0.99-0.38,1.54-1.15,1.69-2.18c0.11-0.73-0.48-1.32-1.15-1.19C11.11,7.59,10.15,8.78,10.15,9.79z"/>
</g>
</svg>
